<?xml version="1.0" encoding="utf-8"?>
<!-- Generator: Adobe Illustrator 24.1.2, SVG Export Plug-In . SVG Version: 6.00 Build 0)  -->
<svg version="1.1" xmlns="http://www.w3.org/2000/svg" xmlns:xlink="http://www.w3.org/1999/xlink" x="0px" y="0px"
	 viewBox="0 0 792 612" style="enable-background:new 0 0 792 612;" xml:space="preserve">
<style type="text/css">
	.st0{fill:#0F8261;}
	.st1{fill:#FFFFFF;stroke:#0F8261;stroke-miterlimit:10;stroke-opacity:0.5;}
	.st2{fill:#FFFFFF;}
	.st3{font-family:'Univers-Black';}
	.st4{font-size:36px;}
	.st5{fill:#455560;}
	.st6{clip-path:url(#SVGID_2_);fill:#007853;}
	.st7{clip-path:url(#SVGID_2_);}
	.st8{clip-path:url(#SVGID_4_);}
	.st9{clip-path:url(#SVGID_4_);fill:#007853;}
	.st10{fill:#502C1E;}
	.st11{font-family:'Univers-Condensed';}
	.st12{font-size:16px;}
	.st13{fill:#36333A;}
	.st14{fill:#69BFCF;}
	.st15{fill:#E2E0CE;}
	.st16{fill:#535056;}
	.st17{fill:#40A5C2;}
	.st18{fill:#51B780;}
	.st19{fill:#2C8F5B;}
	.st20{fill:#E7605F;}
	.st21{fill:#CD3C28;}
	.st22{fill:#F6C41B;}
	.st23{fill:#D7A529;}
	.st24{fill:#231F20;}
	.st25{fill:#1A1A1A;}
	.st26{fill:#010101;}
	.st27{fill:#595F6A;}
	.st28{fill:#ECECD9;}
	.st29{fill:#9E9D95;}
	.st30{fill:#BBD162;}
	.st31{fill:#F9DC87;}
	.st32{fill:#FBAA33;}
	.st33{fill:#8DB35E;}
	.st34{fill:#D86B75;}
	.st35{fill:#DC5958;}
	.st36{fill:#43ABCD;}
	.st37{fill:#0988BD;}
</style>
<g id="Guides">
</g>
<g id="Layer_2">
	<g>
		<rect x="36.7" y="249" class="st0" width="38.6" height="38.6"/>
		<rect x="75" y="238.9" class="st1" width="187.1" height="130.8"/>
		<text transform="matrix(1 0 0 1 43.843 281.363)" class="st2 st3 st4">1</text>
		<g>
			<path class="st5" d="M106.6,279.6c-0.1-0.4-0.2-1.8-2.2-1.8c-2.4,0-2.9,2.5-2.9,4.2c0,1.9,0.5,4,2.9,4c0.6,0,1.2-0.2,1.6-0.6
				c0.4-0.4,0.4-0.8,0.5-1.1h1.5c-0.2,2-2,2.8-3.8,2.8c-3.6,0-4.2-3.1-4.2-5.1c0-2.1,0.8-5.3,4.4-5.3c1.4,0,3.4,0.6,3.6,2.9H106.6z"
				/>
			<path class="st5" d="M109.7,276.9h1.3v4.1c0.4-0.7,1.3-1.2,2.3-1.2c0.7,0,1.8,0.3,2.2,1.1c0.1,0.3,0.2,0.6,0.2,1.6v4.4h-1.3v-4.2
				c0-0.6,0-2-1.5-2c-1,0-1.5,0.6-1.7,0.9c-0.2,0.4-0.2,1.1-0.2,1.5v3.7h-1.3V276.9z"/>
			<path class="st5" d="M118.9,283.7c0,1.5,0.6,2.5,2,2.5c0.9,0,1.5-0.4,1.7-1.5h1.3c0,0.4-0.1,0.9-0.6,1.5c-0.3,0.4-1,0.9-2.4,0.9
				c-2.2,0-3.3-1.4-3.3-3.6c0-1.4,0.3-2.5,1.4-3.3c0.7-0.5,1.5-0.5,1.9-0.5c3.2,0,3.1,2.8,3.1,3.9H118.9z M122.6,282.8
				c0-0.7-0.1-2.1-1.7-2.1c-0.9,0-1.9,0.5-1.9,2.1H122.6z"/>
			<path class="st5" d="M129.8,282.2c0-0.3-0.1-1.5-1.4-1.5c-1.8,0-1.8,2.1-1.8,2.6c0,1.4,0.4,2.8,1.8,2.8c1.1,0,1.5-0.8,1.5-1.5
				h1.3c-0.1,1.4-1.1,2.5-2.8,2.5c-0.5,0-1.6-0.1-2.3-0.9c-0.4-0.5-0.8-1.2-0.8-2.7c0-2.9,1.8-3.8,3.2-3.8c0.5,0,1.5,0.1,2.2,0.9
				c0.5,0.6,0.6,1.2,0.6,1.6H129.8z"/>
			<path class="st5" d="M131.8,276.8h1.3v6l2.6-2.9h1.7l-3,3l3.2,4H136l-2.8-3.8v3.8h-1.3V276.8z"/>
			<path class="st5" d="M145.6,279.8c2.8,0,3.4,2.2,3.4,3.7c0,2.1-1.2,3.8-3.6,3.8c-2.3,0-3.5-1.6-3.5-3.7
				C142,281.8,142.8,279.8,145.6,279.8z M145.5,286.3c1,0,2.1-0.7,2.1-2.8c0-1.8-0.8-2.7-2-2.7c-0.8,0-2.2,0.5-2.2,2.7
				C143.4,284.9,144,286.3,145.5,286.3z"/>
			<path class="st5" d="M152.2,280v4.5c0,0.7,0.2,1.6,1.5,1.6c0.7,0,1.3-0.2,1.7-0.8c0.3-0.4,0.3-1,0.3-1.3v-4h1.4v5.7
				c0,0.1,0,0.9,0,1.3h-1.4l0-1.2c-0.3,0.5-0.7,1.3-2.2,1.3c-1.7,0-2.5-1-2.5-2.4V280H152.2z"/>
			<path class="st5" d="M158.3,279.9h1.2v-1.5l1.3-0.4v1.9h1.6v1h-1.6v4.2c0,0.4,0,0.9,0.9,0.9c0.3,0,0.5,0,0.6-0.1v1
				c-0.2,0-0.6,0.1-1.1,0.1c-1.2,0-1.8-0.4-1.8-1.5v-4.7h-1.2V279.9z"/>
			<path class="st5" d="M166.6,279.9h1.2v-1.5l1.3-0.4v1.9h1.6v1h-1.6v4.2c0,0.4,0,0.9,0.9,0.9c0.3,0,0.5,0,0.6-0.1v1
				c-0.2,0-0.6,0.1-1.1,0.1c-1.2,0-1.8-0.4-1.8-1.5v-4.7h-1.2V279.9z"/>
			<path class="st5" d="M172.2,276.9h1.3v4.1c0.4-0.7,1.3-1.2,2.3-1.2c0.7,0,1.8,0.3,2.2,1.1c0.1,0.3,0.2,0.6,0.2,1.6v4.4h-1.3v-4.2
				c0-0.6,0-2-1.5-2c-1,0-1.5,0.6-1.7,0.9c-0.2,0.4-0.2,1.1-0.2,1.5v3.7h-1.3V276.9z"/>
			<path class="st5" d="M181.4,283.7c0,1.5,0.6,2.5,2,2.5c0.9,0,1.5-0.4,1.7-1.5h1.3c0,0.4-0.1,0.9-0.6,1.5c-0.3,0.4-1,0.9-2.4,0.9
				c-2.2,0-3.3-1.4-3.3-3.6c0-1.4,0.3-2.5,1.4-3.3c0.7-0.5,1.5-0.5,1.9-0.5c3.2,0,3.1,2.8,3.1,3.9H181.4z M185.1,282.8
				c0-0.7-0.1-2.1-1.7-2.1c-0.9,0-1.9,0.5-1.9,2.1H185.1z"/>
			<path d="M193.2,276.9l1.6,7.6l2-7.6h2.5l1.8,7.6l1.6-7.6h2.1l-2.6,10.1h-2.4l-1.8-7.7l-2,7.7h-2.5l-2.5-10.1H193.2z"/>
			<path d="M206.6,284c0,0.5,0,1.9,1.4,1.9c0.5,0,1-0.2,1.2-1h1.9c0,0.3-0.1,0.9-0.7,1.5c-0.5,0.5-1.4,0.8-2.5,0.8
				c-0.6,0-1.8-0.1-2.5-0.9c-0.6-0.7-0.9-1.6-0.9-2.8c0-1.1,0.3-2.5,1.5-3.3c0.5-0.4,1.2-0.6,2-0.6c1,0,2.2,0.4,2.9,1.7
				c0.5,1,0.4,2,0.4,2.6H206.6z M209.3,282.7c0-0.3,0-1.6-1.2-1.6c-0.9,0-1.3,0.8-1.3,1.6H209.3z"/>
			<path d="M214.3,284c0,0.5,0,1.9,1.4,1.9c0.5,0,1-0.2,1.2-1h1.9c0,0.3-0.1,0.9-0.7,1.5c-0.5,0.5-1.4,0.8-2.5,0.8
				c-0.6,0-1.8-0.1-2.5-0.9c-0.6-0.7-0.9-1.6-0.9-2.8c0-1.1,0.3-2.5,1.5-3.3c0.5-0.4,1.2-0.6,2-0.6c1,0,2.2,0.4,2.9,1.7
				c0.5,1,0.4,2,0.4,2.6H214.3z M216.9,282.7c0-0.3,0-1.6-1.2-1.6c-0.9,0-1.3,0.8-1.3,1.6H216.9z"/>
			<path d="M220.3,276.9h2.1v6l2.1-3h2.3l-2.4,3.1l2.6,4h-2.5l-2.2-3.9v3.9h-2.1V276.9z"/>
			<path d="M232.1,278.7c0.9-0.4,1.8-0.9,2.6-1.5h1.8v9.8h-2.1v-7.6c-0.4,0.3-1.2,0.8-2.3,1.2V278.7z"/>
			<path class="st5" d="M101.3,301.7c0,0.5,0.3,1.3,1.5,1.3c0.5,0,1-0.1,1.2-0.4c0.1-0.2,0.2-0.4,0.2-0.7c0-0.7-0.5-0.8-1.5-1.1
				c-1.5-0.3-2.7-0.6-2.7-2.1c0-1.3,1.1-2.1,2.7-2.1c0.9,0,2.1,0.3,2.5,1.1c0.2,0.4,0.2,0.7,0.2,1h-1.3c0-1.1-0.9-1.1-1.4-1.1
				c-0.2,0-1.4,0-1.4,1c0,0.6,0.6,0.8,1,0.9c1.9,0.5,2.4,0.6,2.8,1c0.4,0.4,0.5,0.9,0.5,1.3c0,0.8-0.4,1.5-1,1.8
				c-0.6,0.4-1.4,0.5-2.1,0.5c-1.4,0-2.8-0.6-2.7-2.3H101.3z"/>
			<path class="st5" d="M111.8,303.8c-0.1-0.4-0.1-0.7-0.1-1.1c-0.6,1.2-1.6,1.3-2.2,1.3c-1.6,0-2.5-0.9-2.5-2.1
				c0-0.6,0.2-1.5,1.2-2.1c0.8-0.4,1.9-0.5,2.4-0.5c0.3,0,0.5,0,1,0c0-0.9,0-1.2-0.3-1.6c-0.3-0.4-0.8-0.5-1.2-0.5
				c-1.3,0-1.4,0.9-1.4,1.2h-1.3c0-0.4,0.1-0.9,0.5-1.3c0.5-0.6,1.5-0.8,2.3-0.8c1,0,2.1,0.3,2.5,1c0.2,0.4,0.2,0.8,0.2,1.1
				l-0.1,3.4c0,0.1,0,1.1,0.1,1.8H111.8z M110.9,300.3c-0.5,0-2.5,0-2.5,1.4c0,0.4,0.3,1.2,1.5,1.2c0.7,0,1.2-0.3,1.5-0.8
				c0.3-0.5,0.3-0.9,0.3-1.8C111.4,300.4,111.2,300.3,110.9,300.3z"/>
			<path class="st5" d="M115.3,297.7l0-0.9h1.3v1c0.7-1.1,1.6-1.2,2.2-1.2c1.6,0,2,0.8,2.3,1.3c0.2-0.4,0.8-1.3,2.4-1.3
				c1,0,2.6,0.4,2.6,2.5v4.7h-1.3v-4.5c0-0.6-0.1-0.9-0.2-1.1c-0.2-0.3-0.7-0.6-1.3-0.6c-0.9,0-1.3,0.5-1.5,0.7
				c-0.3,0.4-0.3,1.2-0.3,1.5v3.9H120v-4.7c0-0.9-0.5-1.5-1.5-1.5c-0.9,0-1.4,0.6-1.5,0.8c-0.3,0.4-0.3,1-0.3,1.4v4h-1.3V297.7z"/>
			<path class="st5" d="M128.5,297.9c0-0.3,0-0.5,0-1.1h1.3l0,1.2c0.7-1.1,1.8-1.3,2.4-1.3c1.5,0,3,1,3,3.6c0,2.6-1.5,3.8-3.2,3.8
				c-1,0-1.8-0.4-2.2-1.1v3.5h-1.3V297.9z M131.7,303.1c0.3,0,1-0.1,1.5-0.7c0.5-0.7,0.6-1.7,0.6-2.2c0-1.3-0.4-2.6-1.9-2.6
				c-2.1,0-2.1,2.2-2.1,2.9C129.7,301.3,129.9,303.1,131.7,303.1z"/>
			<path class="st5" d="M137.1,293.7h1.3v10.1h-1.3V293.7z"/>
			<path class="st5" d="M141.8,300.5c0,1.5,0.6,2.5,2,2.5c0.9,0,1.5-0.4,1.7-1.5h1.3c0,0.4-0.1,0.9-0.6,1.5c-0.3,0.4-1,0.9-2.4,0.9
				c-2.2,0-3.3-1.4-3.3-3.6c0-1.4,0.3-2.5,1.4-3.3c0.7-0.5,1.5-0.5,1.9-0.5c3.2,0,3.1,2.8,3.1,3.9H141.8z M145.5,299.6
				c0-0.7-0.1-2.1-1.7-2.1c-0.9,0-1.9,0.5-1.9,2.1H145.5z"/>
			<path class="st5" d="M151.6,296.7h1.2v-1.5l1.3-0.4v1.9h1.6v1h-1.6v4.2c0,0.4,0,0.9,0.9,0.9c0.3,0,0.5,0,0.6-0.1v1
				c-0.2,0-0.6,0.1-1.1,0.1c-1.2,0-1.8-0.4-1.8-1.5v-4.7h-1.2V296.7z"/>
			<path class="st5" d="M160.4,296.6c2.8,0,3.4,2.2,3.4,3.7c0,2.1-1.2,3.8-3.6,3.8c-2.3,0-3.5-1.6-3.5-3.7
				C156.8,298.6,157.6,296.6,160.4,296.6z M160.3,303.1c1,0,2.1-0.7,2.1-2.8c0-1.8-0.8-2.7-2-2.7c-0.8,0-2.2,0.5-2.2,2.7
				C158.2,301.7,158.8,303.1,160.3,303.1z"/>
			<path class="st5" d="M171,304.3c0.1,0.8,0.4,1.4,1.6,1.4c1.8,0,1.9-1.3,1.9-3.2c-0.6,1.2-1.9,1.2-2.3,1.2c-0.6,0-1.6-0.1-2.2-0.9
				c-0.6-0.7-0.8-1.7-0.8-2.6c0-2.4,1.4-3.5,3.1-3.5c1.4,0,1.9,0.7,2.2,1.1l0-1h1.3l0,1.3l0,4.4c0,1.7-0.1,2.4-0.3,2.9
				c-0.6,1.1-2,1.3-2.9,1.3c-2.8,0-2.9-1.3-3-2.3H171z M174.1,302c0.3-0.4,0.5-0.7,0.5-2c0-0.9-0.2-1.4-0.5-1.8
				c-0.4-0.4-0.9-0.6-1.5-0.6c-1.7,0-1.9,1.7-1.9,2.6c0,1.1,0.3,2.5,1.9,2.5C173.3,302.7,173.8,302.4,174.1,302z"/>
			<path class="st5" d="M179.1,300.5c0,1.5,0.6,2.5,2,2.5c0.9,0,1.5-0.4,1.7-1.5h1.3c0,0.4-0.1,0.9-0.6,1.5c-0.3,0.4-1,0.9-2.4,0.9
				c-2.2,0-3.3-1.4-3.3-3.6c0-1.4,0.3-2.5,1.4-3.3c0.7-0.5,1.5-0.5,1.9-0.5c3.2,0,3.1,2.8,3.1,3.9H179.1z M182.8,299.6
				c0-0.7-0.1-2.1-1.7-2.1c-0.9,0-1.9,0.5-1.9,2.1H182.8z"/>
			<path class="st5" d="M185,296.7h1.2v-1.5l1.3-0.4v1.9h1.6v1h-1.6v4.2c0,0.4,0,0.9,0.9,0.9c0.3,0,0.5,0,0.6-0.1v1
				c-0.2,0-0.6,0.1-1.1,0.1c-1.2,0-1.8-0.4-1.8-1.5v-4.7H185V296.7z"/>
			<path class="st5" d="M198.9,303.8c-0.1-0.4-0.1-0.7-0.1-1.1c-0.6,1.2-1.6,1.3-2.2,1.3c-1.6,0-2.5-0.9-2.5-2.1
				c0-0.6,0.2-1.5,1.2-2.1c0.8-0.4,1.9-0.5,2.4-0.5c0.3,0,0.5,0,1,0c0-0.9,0-1.2-0.3-1.6c-0.3-0.4-0.8-0.5-1.2-0.5
				c-1.3,0-1.4,0.9-1.4,1.2h-1.3c0-0.4,0.1-0.9,0.5-1.3c0.5-0.6,1.5-0.8,2.3-0.8c1,0,2.1,0.3,2.5,1c0.2,0.4,0.2,0.8,0.2,1.1L200,302
				c0,0.1,0,1.1,0.1,1.8H198.9z M198,300.3c-0.5,0-2.5,0-2.5,1.4c0,0.4,0.3,1.2,1.5,1.2c0.7,0,1.2-0.3,1.5-0.8
				c0.3-0.5,0.3-0.9,0.3-1.8C198.5,300.4,198.3,300.3,198,300.3z"/>
			<path class="st5" d="M101.8,321.1c0.1,0.8,0.4,1.4,1.6,1.4c1.8,0,1.9-1.3,1.9-3.2c-0.6,1.2-1.9,1.2-2.3,1.2
				c-0.6,0-1.6-0.1-2.2-0.9c-0.6-0.7-0.8-1.7-0.8-2.6c0-2.4,1.4-3.5,3.1-3.5c1.4,0,1.9,0.7,2.2,1.1l0-1h1.3l0,1.3l0,4.4
				c0,1.7-0.1,2.4-0.3,2.9c-0.6,1.1-2,1.3-2.9,1.3c-2.8,0-2.9-1.3-3-2.3H101.8z M104.8,318.8c0.3-0.4,0.5-0.7,0.5-2
				c0-0.9-0.2-1.4-0.5-1.8c-0.4-0.4-0.9-0.6-1.5-0.6c-1.7,0-1.9,1.7-1.9,2.6c0,1.1,0.3,2.5,1.9,2.5
				C104.1,319.5,104.5,319.2,104.8,318.8z"/>
			<path class="st5" d="M109.1,310.5h1.3v10.1h-1.3V310.5z"/>
			<path class="st5" d="M112.8,310.5h1.6v1.4h-1.6V310.5z M113,313.6h1.3v7H113V313.6z"/>
			<path class="st5" d="M116.8,314.5l0-0.9h1.3v1c0.7-1.1,1.6-1.2,2.2-1.2c1.6,0,2,0.8,2.3,1.3c0.2-0.4,0.8-1.3,2.4-1.3
				c1,0,2.6,0.4,2.6,2.5v4.7h-1.3v-4.5c0-0.6-0.1-0.9-0.2-1.1c-0.2-0.3-0.7-0.6-1.3-0.6c-0.9,0-1.3,0.5-1.5,0.7
				c-0.3,0.4-0.3,1.2-0.3,1.5v3.9h-1.3v-4.7c0-0.9-0.5-1.5-1.5-1.5c-0.9,0-1.4,0.6-1.5,0.8c-0.3,0.4-0.3,1-0.3,1.4v4h-1.3V314.5z"/>
			<path class="st5" d="M130,314.7c0-0.3,0-0.5,0-1.1h1.3l0,1.2c0.7-1.1,1.8-1.3,2.4-1.3c1.5,0,3,1,3,3.6c0,2.6-1.5,3.8-3.2,3.8
				c-1,0-1.8-0.4-2.2-1v3.5H130V314.7z M133.3,319.9c0.3,0,1-0.1,1.5-0.7c0.5-0.7,0.6-1.7,0.6-2.2c0-1.3-0.4-2.6-1.9-2.6
				c-2.1,0-2.1,2.2-2.1,2.9C131.3,318.1,131.4,319.9,133.3,319.9z"/>
			<path class="st5" d="M139.4,318.5c0,0.5,0.3,1.3,1.5,1.3c0.5,0,1-0.1,1.2-0.4c0.1-0.2,0.2-0.4,0.2-0.7c0-0.7-0.5-0.8-1.5-1.1
				c-1.5-0.3-2.7-0.6-2.7-2.1c0-1.3,1.1-2.1,2.7-2.1c0.9,0,2.1,0.3,2.5,1.1c0.2,0.4,0.2,0.7,0.2,1h-1.3c0-1.1-0.9-1.1-1.4-1.1
				c-0.2,0-1.4,0-1.4,1c0,0.6,0.6,0.8,1,0.9c1.9,0.5,2.4,0.6,2.8,1c0.4,0.4,0.5,0.9,0.5,1.3c0,0.8-0.4,1.5-1,1.8
				c-0.6,0.4-1.4,0.5-2.1,0.5c-1.4,0-2.8-0.6-2.7-2.3H139.4z"/>
			<path class="st5" d="M146.4,317.3c0,1.5,0.6,2.5,2,2.5c0.9,0,1.5-0.4,1.7-1.5h1.3c0,0.3-0.1,0.9-0.6,1.5c-0.3,0.3-1,0.9-2.4,0.9
				c-2.2,0-3.3-1.4-3.3-3.6c0-1.4,0.3-2.5,1.4-3.3c0.7-0.5,1.5-0.5,1.9-0.5c3.2,0,3.1,2.8,3.1,3.9H146.4z M150.1,316.4
				c0-0.7-0.1-2.1-1.7-2.1c-0.9,0-1.9,0.5-1.9,2.1H150.1z"/>
			<path class="st5" d="M160.4,313.4c2.8,0,3.4,2.2,3.4,3.7c0,2.1-1.2,3.8-3.6,3.8c-2.3,0-3.5-1.6-3.5-3.7
				C156.8,315.4,157.6,313.4,160.4,313.4z M160.3,319.9c1,0,2.1-0.7,2.1-2.8c0-1.8-0.8-2.7-2-2.7c-0.8,0-2.2,0.5-2.2,2.7
				C158.2,318.5,158.8,319.9,160.3,319.9z"/>
			<path class="st5" d="M169.4,311.5c-0.2,0-0.5,0-0.8,0c-1.1,0-1.1,0.5-1.1,1v1.1h1.6v1h-1.6v6.1h-1.3v-6.1h-1.4v-1h1.4v-0.8
				c0-1,0.1-1.3,0.3-1.7c0.3-0.4,0.9-0.8,1.8-0.8c0.4,0,0.8,0.1,1.1,0.1V311.5z"/>
			<path class="st5" d="M173.3,313.5h1.2v-1.5l1.3-0.4v1.9h1.6v1h-1.6v4.2c0,0.3,0,0.9,0.9,0.9c0.3,0,0.5,0,0.6-0.1v1
				c-0.2,0-0.6,0.1-1.1,0.1c-1.2,0-1.8-0.3-1.8-1.5v-4.7h-1.2V313.5z"/>
			<path class="st5" d="M179.1,310.5h1.3v4.1c0.4-0.7,1.3-1.2,2.3-1.2c0.7,0,1.8,0.3,2.2,1.1c0.1,0.3,0.2,0.6,0.2,1.6v4.4h-1.3v-4.2
				c0-0.6,0-2-1.5-2c-1,0-1.5,0.6-1.7,0.9c-0.2,0.4-0.2,1.1-0.2,1.5v3.7h-1.3V310.5z"/>
			<path class="st5" d="M188.4,317.3c0,1.5,0.6,2.5,2,2.5c0.9,0,1.5-0.4,1.7-1.5h1.3c0,0.3-0.1,0.9-0.6,1.5c-0.3,0.3-1,0.9-2.4,0.9
				c-2.2,0-3.3-1.4-3.3-3.6c0-1.4,0.3-2.5,1.4-3.3c0.7-0.5,1.5-0.5,1.9-0.5c3.2,0,3.1,2.8,3.1,3.9H188.4z M192.1,316.4
				c0-0.7-0.1-2.1-1.7-2.1c-0.9,0-1.9,0.5-1.9,2.1H192.1z"/>
			<path class="st5" d="M99.4,330.3h1.2v-1.5l1.3-0.4v1.9h1.6v1H102v4.2c0,0.3,0,0.9,0.9,0.9c0.3,0,0.5,0,0.6-0.1v1
				c-0.2,0-0.6,0.1-1.1,0.1c-1.2,0-1.8-0.3-1.8-1.5v-4.7h-1.2V330.3z"/>
			<path class="st5" d="M106,334.1c0,1.5,0.6,2.5,2,2.5c0.9,0,1.5-0.4,1.7-1.5h1.3c0,0.3-0.1,0.9-0.6,1.5c-0.3,0.3-1,0.9-2.4,0.9
				c-2.2,0-3.3-1.4-3.3-3.6c0-1.4,0.3-2.5,1.4-3.3c0.7-0.5,1.5-0.5,1.9-0.5c3.2,0,3.1,2.8,3.1,3.9H106z M109.7,333.2
				c0-0.7-0.1-2.1-1.7-2.1c-0.9,0-1.9,0.5-1.9,2.1H109.7z"/>
			<path class="st5" d="M113,331.3l0-0.9h1.3v1c0.7-1.1,1.6-1.2,2.2-1.2c1.6,0,2,0.8,2.3,1.3c0.2-0.4,0.8-1.3,2.4-1.3
				c1,0,2.6,0.4,2.6,2.5v4.7h-1.3v-4.5c0-0.6-0.1-0.9-0.2-1.1c-0.2-0.3-0.7-0.6-1.3-0.6c-0.9,0-1.3,0.5-1.5,0.7
				c-0.3,0.4-0.3,1.2-0.3,1.5v3.9h-1.3v-4.7c0-0.9-0.5-1.5-1.5-1.5c-0.9,0-1.4,0.6-1.5,0.8c-0.3,0.4-0.3,1-0.3,1.4v4H113V331.3z"/>
			<path class="st5" d="M126.1,331.5c0-0.3,0-0.5,0-1.1h1.3l0,1.2c0.7-1.1,1.8-1.3,2.4-1.3c1.5,0,3,1,3,3.6c0,2.6-1.5,3.8-3.2,3.8
				c-1,0-1.8-0.4-2.2-1v3.5h-1.3V331.5z M129.4,336.7c0.3,0,1-0.1,1.5-0.7c0.5-0.7,0.6-1.7,0.6-2.2c0-1.3-0.4-2.6-1.9-2.6
				c-2.1,0-2.1,2.2-2.1,2.9C127.4,334.9,127.5,336.7,129.4,336.7z"/>
			<path class="st5" d="M134.8,327.3h1.3v10.1h-1.3V327.3z"/>
			<path class="st5" d="M142.9,337.4c-0.1-0.4-0.1-0.7-0.1-1.1c-0.6,1.2-1.6,1.3-2.2,1.3c-1.6,0-2.5-0.9-2.5-2.1
				c0-0.6,0.2-1.5,1.2-2.1c0.8-0.4,1.9-0.5,2.4-0.5c0.3,0,0.5,0,1,0c0-0.9,0-1.2-0.3-1.6c-0.3-0.3-0.8-0.5-1.2-0.5
				c-1.3,0-1.4,0.9-1.4,1.2h-1.3c0-0.4,0.1-0.9,0.5-1.3c0.5-0.6,1.5-0.8,2.3-0.8c1,0,2.1,0.3,2.5,1c0.2,0.4,0.2,0.8,0.2,1.1
				l-0.1,3.4c0,0.1,0,1.1,0.1,1.8H142.9z M142,333.9c-0.5,0-2.5,0-2.5,1.4c0,0.4,0.3,1.2,1.5,1.2c0.7,0,1.2-0.3,1.5-0.8
				c0.3-0.5,0.3-0.9,0.3-1.8C142.5,334,142.3,333.9,142,333.9z"/>
			<path class="st5" d="M145.3,330.3h1.2v-1.5l1.3-0.4v1.9h1.6v1h-1.6v4.2c0,0.3,0,0.9,0.9,0.9c0.3,0,0.5,0,0.6-0.1v1
				c-0.2,0-0.6,0.1-1.1,0.1c-1.2,0-1.8-0.3-1.8-1.5v-4.7h-1.2V330.3z"/>
			<path class="st5" d="M151.9,334.1c0,1.5,0.6,2.5,2,2.5c0.9,0,1.5-0.4,1.7-1.5h1.3c0,0.3-0.1,0.9-0.6,1.5c-0.3,0.3-1,0.9-2.4,0.9
				c-2.2,0-3.3-1.4-3.3-3.6c0-1.4,0.3-2.5,1.4-3.3c0.7-0.5,1.5-0.5,1.9-0.5c3.2,0,3.1,2.8,3.1,3.9H151.9z M155.6,333.2
				c0-0.7-0.1-2.1-1.7-2.1c-0.9,0-1.9,0.5-1.9,2.1H155.6z"/>
			<path class="st5" d="M162.6,327.3h1.6v1.4h-1.6V327.3z M162.8,330.4h1.3v7h-1.3V330.4z"/>
			<path class="st5" d="M166.7,331.2l0-0.8h1.3l0,1.1c0.2-0.3,0.7-1.3,2.3-1.3c0.6,0,2.5,0.2,2.5,2.4v4.8h-1.3v-4.5
				c0-0.5-0.1-0.9-0.4-1.2c-0.3-0.3-0.8-0.5-1.2-0.5c-1,0-1.8,0.7-1.8,2.1v4h-1.3V331.2z"/>
			<path class="st5" d="M183.4,337.4c-0.1-0.4-0.1-0.7-0.1-1.1c-0.6,1.2-1.6,1.3-2.2,1.3c-1.6,0-2.5-0.9-2.5-2.1
				c0-0.6,0.2-1.5,1.2-2.1c0.8-0.4,1.9-0.5,2.4-0.5c0.3,0,0.5,0,1,0c0-0.9,0-1.2-0.3-1.6c-0.3-0.3-0.8-0.5-1.2-0.5
				c-1.3,0-1.4,0.9-1.4,1.2H179c0-0.4,0.1-0.9,0.5-1.3c0.5-0.6,1.5-0.8,2.3-0.8c1,0,2.1,0.3,2.5,1c0.2,0.4,0.2,0.8,0.2,1.1l-0.1,3.4
				c0,0.1,0,1.1,0.1,1.8H183.4z M182.5,333.9c-0.5,0-2.5,0-2.5,1.4c0,0.4,0.3,1.2,1.5,1.2c0.7,0,1.2-0.3,1.5-0.8
				c0.3-0.5,0.3-0.9,0.3-1.8C183,334,182.8,333.9,182.5,333.9z"/>
			<path class="st5" d="M190.9,332.6c0-0.3-0.1-1.5-1.4-1.5c-1.8,0-1.8,2.1-1.8,2.6c0,1.4,0.4,2.8,1.8,2.8c1.1,0,1.5-0.8,1.5-1.5
				h1.3c-0.1,1.4-1.1,2.5-2.8,2.5c-0.5,0-1.6-0.1-2.3-0.9c-0.4-0.5-0.8-1.2-0.8-2.7c0-2.9,1.8-3.8,3.2-3.8c0.5,0,1.5,0.1,2.2,0.9
				c0.5,0.6,0.6,1.2,0.6,1.6H190.9z"/>
			<path class="st5" d="M192.8,330.3h1.2v-1.5l1.3-0.4v1.9h1.6v1h-1.6v4.2c0,0.3,0,0.9,0.9,0.9c0.3,0,0.5,0,0.6-0.1v1
				c-0.2,0-0.6,0.1-1.1,0.1c-1.2,0-1.8-0.3-1.8-1.5v-4.7h-1.2V330.3z"/>
			<path class="st5" d="M198.4,327.3h1.6v1.4h-1.6V327.3z M198.5,330.4h1.3v7h-1.3V330.4z"/>
			<path class="st5" d="M205.5,330.2c2.8,0,3.4,2.2,3.4,3.7c0,2.1-1.2,3.8-3.6,3.8c-2.3,0-3.5-1.6-3.5-3.7
				C201.9,332.2,202.7,330.2,205.5,330.2z M205.4,336.7c1,0,2.1-0.7,2.1-2.8c0-1.8-0.8-2.7-2-2.7c-0.8,0-2.2,0.5-2.2,2.7
				C203.3,335.3,203.9,336.7,205.4,336.7z"/>
			<path class="st5" d="M211,331.2l0-0.8h1.3l0,1.1c0.2-0.3,0.7-1.3,2.3-1.3c0.6,0,2.5,0.2,2.5,2.4v4.8h-1.3v-4.5
				c0-0.5-0.1-0.9-0.4-1.2c-0.3-0.3-0.8-0.5-1.2-0.5c-1,0-1.8,0.7-1.8,2.1v4H211V331.2z"/>
			<path class="st5" d="M220.4,336h1.5v1.4h-1.5V336z M221.7,335.1h-1l-0.3-7.8h1.6L221.7,335.1z"/>
		</g>
	</g>
	<g>
		<rect x="265.2" y="161.7" class="st0" width="38.6" height="38.6"/>
		<rect x="303.5" y="151.6" class="st1" width="186.9" height="149.3"/>
		<text transform="matrix(1 0 0 1 272.4007 194.0376)" class="st2 st3 st4">2</text>
		<g>
			<path class="st5" d="M333.2,199.7h-1.5l-3.6-10.1h1.6l2.9,8.6l3-8.6h1.4L333.2,199.7z"/>
			<path class="st5" d="M337.9,189.6h1.6v1.4h-1.6V189.6z M338.1,192.6h1.3v7h-1.3V192.6z"/>
			<path class="st5" d="M342.8,196.4c0,1.5,0.6,2.5,2,2.5c0.9,0,1.5-0.4,1.7-1.5h1.3c0,0.4-0.1,0.9-0.6,1.5c-0.3,0.4-1,0.9-2.4,0.9
				c-2.2,0-3.3-1.4-3.3-3.6c0-1.4,0.3-2.5,1.4-3.3c0.7-0.5,1.5-0.5,1.9-0.5c3.2,0,3.1,2.8,3.1,3.9H342.8z M346.5,195.5
				c0-0.7-0.1-2.1-1.7-2.1c-0.9,0-1.9,0.5-1.9,2.1H346.5z"/>
			<path class="st5" d="M350.1,192.6l1.7,5.6l1.8-5.6h1.7l1.6,5.5l1.8-5.5h1.4l-2.5,7H356l-1.7-5.8l-1.8,5.8H351l-2.3-7H350.1z"/>
			<path class="st5" d="M364.2,192.6h1.2v-1.5l1.3-0.4v1.9h1.6v1h-1.6v4.2c0,0.4,0,0.9,0.9,0.9c0.3,0,0.5,0,0.6-0.1v1
				c-0.2,0-0.6,0.1-1.1,0.1c-1.2,0-1.8-0.4-1.8-1.5v-4.7h-1.2V192.6z"/>
			<path class="st5" d="M370,189.6h1.3v4.1c0.4-0.7,1.3-1.2,2.3-1.2c0.7,0,1.8,0.3,2.2,1.1c0.1,0.3,0.2,0.6,0.2,1.6v4.4h-1.3v-4.2
				c0-0.6,0-2-1.5-2c-1,0-1.5,0.6-1.7,0.9c-0.2,0.4-0.2,1.1-0.2,1.5v3.7H370V189.6z"/>
			<path class="st5" d="M379.3,196.4c0,1.5,0.6,2.5,2,2.5c0.9,0,1.5-0.4,1.7-1.5h1.3c0,0.4-0.1,0.9-0.6,1.5c-0.3,0.4-1,0.9-2.4,0.9
				c-2.2,0-3.3-1.4-3.3-3.6c0-1.4,0.3-2.5,1.4-3.3c0.7-0.5,1.5-0.5,1.9-0.5c3.2,0,3.1,2.8,3.1,3.9H379.3z M383,195.5
				c0-0.7-0.1-2.1-1.7-2.1c-0.9,0-1.9,0.5-1.9,2.1H383z"/>
			<path d="M392.2,191.2h-3v-1.7h8.2v1.7h-3v8.4h-2.2V191.2z"/>
			<path d="M398,196.7c0,0.5,0,1.9,1.4,1.9c0.5,0,1-0.2,1.2-1h1.9c0,0.3-0.1,0.9-0.7,1.5c-0.5,0.5-1.4,0.8-2.5,0.8
				c-0.6,0-1.8-0.1-2.5-0.9c-0.6-0.7-0.9-1.6-0.9-2.8c0-1.1,0.3-2.5,1.5-3.3c0.5-0.4,1.2-0.6,2-0.6c1,0,2.2,0.4,2.9,1.7
				c0.5,1,0.4,2,0.4,2.6H398z M400.6,195.4c0-0.3,0-1.6-1.2-1.6c-0.9,0-1.3,0.8-1.3,1.6H400.6z"/>
			<path d="M404.1,193.9c0-0.4,0-0.9-0.1-1.3h2l0.1,0.9c0.2-0.3,0.8-1.1,2.2-1.1c1.6,0,2.1,1,2.2,1.3c0.6-1.1,1.5-1.3,2.3-1.3
				c1.4,0,2,0.9,2.2,1.1c0.4,0.6,0.3,1.5,0.3,2.1v4h-2.1v-4.2c0-0.8-0.1-1.6-1.2-1.6c-1.2,0-1.3,1.2-1.3,2.2v3.5h-2.1v-4.2
				c0-0.5,0-1.6-1.2-1.6c-1.3,0-1.3,1.1-1.3,1.6v4.2h-2.1V193.9z"/>
			<path d="M419.3,192.6l0.1,1c0.6-1.1,1.8-1.1,2.2-1.1c1.8,0,2.9,1.4,2.9,3.5c0,2-1,3.8-3.1,3.8c-1.3,0-1.8-0.7-2-0.9v3.5h-2.1
				v-9.8H419.3z M422.3,196.1c0-0.8-0.2-2.3-1.4-2.3c-0.7,0-1.6,0.5-1.6,2.4c0,0.4,0,2.2,1.5,2.2
				C421.8,198.4,422.3,197.5,422.3,196.1z"/>
			<path d="M425.9,189.5h2.1v10.1h-2.1V189.5z"/>
			<path d="M434,199.7c-0.1-0.4-0.1-0.8-0.1-1c-0.8,1.1-1.7,1.1-2.1,1.1c-1,0-1.5-0.3-1.8-0.6c-0.4-0.4-0.6-1-0.6-1.6
				c0-0.6,0.2-1.6,1.5-2.2c0.9-0.4,2.1-0.4,2.8-0.4c0-0.5,0-0.7-0.1-0.9c-0.2-0.5-0.7-0.6-0.9-0.6c-0.3,0-0.6,0.1-0.8,0.4
				c-0.2,0.2-0.2,0.5-0.2,0.6h-2c0-0.4,0.1-1.1,0.8-1.7c0.6-0.5,1.5-0.6,2.1-0.6c0.6,0,1.8,0.1,2.5,0.9c0.5,0.6,0.5,1.4,0.5,1.7
				l0,2.8c0,0.6,0,1.2,0.2,1.8H434z M431.5,197.5c0,0.5,0.3,1,1,1c0.4,0,0.7-0.2,0.9-0.4c0.4-0.4,0.4-1,0.4-1.8
				C432.4,196.2,431.5,196.6,431.5,197.5z"/>
			<path d="M441.7,199.6c-0.7,0.2-1.3,0.2-1.6,0.2c-2.1,0-2.1-1.3-2.1-1.9V194h-1.4v-1.4h1.4v-1.4l2.1-0.8v2.1h1.7v1.4h-1.7v3.2
				c0,0.6,0,1.1,0.9,1.1c0.3,0,0.4,0,0.7,0V199.6z"/>
			<path d="M444.4,196.7c0,0.5,0,1.9,1.4,1.9c0.5,0,1-0.2,1.2-1h1.9c0,0.3-0.1,0.9-0.7,1.5c-0.5,0.5-1.4,0.8-2.5,0.8
				c-0.6,0-1.8-0.1-2.5-0.9c-0.6-0.7-0.9-1.6-0.9-2.8c0-1.1,0.3-2.5,1.5-3.3c0.5-0.4,1.2-0.6,2-0.6c1,0,2.2,0.4,2.9,1.7
				c0.5,1,0.4,2,0.4,2.6H444.4z M447,195.4c0-0.3,0-1.6-1.2-1.6c-0.9,0-1.3,0.8-1.3,1.6H447z"/>
			<path d="M328.8,206.4h3.1c1.5,0,2.7,0.1,3.5,1.1c0.5,0.6,0.6,1.4,0.6,1.9c0,1.2-0.5,2.2-1.3,2.7c-0.7,0.5-1.8,0.5-2.3,0.5H331
				v3.9h-2.2V206.4z M330.9,210.9h0.9c0.7,0,2,0,2-1.5c0-1.4-1.2-1.4-1.8-1.4h-1.1V210.9z"/>
			<path d="M341,216.5c-0.1-0.4-0.1-0.8-0.1-1c-0.8,1.1-1.7,1.1-2.1,1.1c-1,0-1.5-0.3-1.8-0.6c-0.4-0.4-0.6-1-0.6-1.6
				c0-0.6,0.2-1.6,1.5-2.2c0.9-0.4,2.1-0.4,2.8-0.4c0-0.5,0-0.7-0.1-0.9c-0.2-0.5-0.7-0.6-0.9-0.6c-0.3,0-0.6,0.1-0.8,0.4
				c-0.2,0.2-0.2,0.5-0.2,0.6h-2c0-0.4,0.1-1.1,0.8-1.7c0.6-0.5,1.5-0.6,2.1-0.6c0.6,0,1.8,0.1,2.5,0.9c0.5,0.6,0.5,1.4,0.5,1.7
				l0,2.8c0,0.6,0,1.2,0.2,1.8H341z M338.4,214.3c0,0.5,0.3,1,1,1c0.4,0,0.7-0.2,0.9-0.4c0.4-0.4,0.4-1,0.4-1.8
				C339.4,213,338.4,213.4,338.4,214.3z"/>
			<path d="M351.2,209.4c-0.1,0.6-0.1,1-0.1,1.8v5.2c0,2.6-2.2,2.9-3.5,2.9c-1,0-3-0.1-3.1-2.3h2c0,0.2,0.1,1,1.2,1
				c0.6,0,1.1-0.3,1.3-0.9c0.1-0.4,0.1-0.6,0.1-1.7c-0.7,0.9-1.4,1-1.9,1c-2,0-3-1.8-3-3.5c0-1.8,1-3.5,3-3.5c1.3,0,1.8,0.7,2,1
				l0.1-0.9H351.2z M347.7,214.9c1.5,0,1.5-1.7,1.5-2c0-0.8-0.2-2.2-1.4-2.2c-0.8,0-1.4,0.6-1.4,2.1
				C346.3,213.2,346.3,214.9,347.7,214.9z"/>
			<path d="M354.5,213.5c0,0.5,0,1.9,1.4,1.9c0.5,0,1-0.2,1.2-1h1.9c0,0.3-0.1,0.9-0.7,1.5c-0.5,0.5-1.4,0.8-2.5,0.8
				c-0.6,0-1.8-0.1-2.5-0.9c-0.6-0.7-0.9-1.6-0.9-2.8c0-1.1,0.3-2.5,1.5-3.3c0.5-0.4,1.2-0.6,2-0.6c1,0,2.2,0.4,2.9,1.7
				c0.5,1,0.4,2,0.4,2.6H354.5z M357.1,212.2c0-0.3,0-1.6-1.2-1.6c-0.9,0-1.3,0.8-1.3,1.6H357.1z"/>
			<path d="M362,214.4c0,0.4,0.3,1,1.2,1c0.7,0,1.1-0.4,1.1-0.8c0-0.3-0.2-0.6-1-0.8l-1.3-0.4c-0.6-0.2-1.8-0.5-1.8-2
				c0-1.4,1.3-2.2,3.1-2.2c1.5,0,2.6,0.7,2.7,2.1h-1.9c-0.1-0.8-0.7-0.8-1-0.8c-0.6,0-1,0.3-1,0.7c0,0.5,0.4,0.6,1,0.7l1.3,0.4
				c1.3,0.4,1.9,1,1.9,2c0,1.2-1.1,2.4-3.2,2.4c-0.9,0-1.8-0.2-2.4-0.9c-0.5-0.5-0.5-1.1-0.5-1.4H362z"/>
			<path class="st5" d="M370.7,209.4h1.2v-1.5l1.3-0.4v1.9h1.6v1h-1.6v4.2c0,0.4,0,0.9,0.9,0.9c0.3,0,0.5,0,0.6-0.1v1
				c-0.2,0-0.6,0.1-1.1,0.1c-1.2,0-1.8-0.4-1.8-1.5v-4.7h-1.2V209.4z"/>
			<path class="st5" d="M379.5,209.3c2.8,0,3.4,2.2,3.4,3.7c0,2.1-1.2,3.8-3.6,3.8c-2.3,0-3.5-1.6-3.5-3.7
				C376,211.3,376.8,209.3,379.5,209.3z M379.4,215.7c1,0,2.1-0.7,2.1-2.8c0-1.8-0.8-2.7-2-2.7c-0.8,0-2.2,0.5-2.2,2.7
				C377.3,214.4,377.9,215.7,379.4,215.7z"/>
			<path class="st5" d="M389.7,214.4c0,0.5,0.3,1.3,1.5,1.3c0.5,0,1-0.1,1.2-0.4c0.1-0.2,0.2-0.4,0.2-0.7c0-0.7-0.5-0.8-1.5-1.1
				c-1.5-0.3-2.7-0.6-2.7-2.1c0-1.3,1.1-2.1,2.7-2.1c0.9,0,2.1,0.3,2.5,1.1c0.2,0.4,0.2,0.7,0.2,1h-1.3c0-1.1-0.9-1.1-1.4-1.1
				c-0.2,0-1.4,0-1.4,1c0,0.6,0.6,0.8,1,0.9c1.9,0.5,2.4,0.6,2.8,1c0.4,0.4,0.5,0.9,0.5,1.3c0,0.8-0.4,1.5-1,1.8
				c-0.6,0.4-1.4,0.5-2.1,0.5c-1.4,0-2.8-0.6-2.7-2.3H389.7z"/>
			<path class="st5" d="M396.7,213.2c0,1.5,0.6,2.5,2,2.5c0.9,0,1.5-0.4,1.7-1.5h1.3c0,0.4-0.1,0.9-0.6,1.5c-0.3,0.4-1,0.9-2.4,0.9
				c-2.2,0-3.3-1.4-3.3-3.6c0-1.4,0.3-2.5,1.4-3.3c0.7-0.5,1.5-0.5,1.9-0.5c3.2,0,3.1,2.8,3.1,3.9H396.7z M400.4,212.3
				c0-0.7-0.1-2.1-1.7-2.1c-0.9,0-1.9,0.5-1.9,2.1H400.4z"/>
			<path class="st5" d="M404.5,213.2c0,1.5,0.6,2.5,2,2.5c0.9,0,1.5-0.4,1.7-1.5h1.3c0,0.4-0.1,0.9-0.6,1.5c-0.3,0.4-1,0.9-2.4,0.9
				c-2.2,0-3.3-1.4-3.3-3.6c0-1.4,0.3-2.5,1.4-3.3c0.7-0.5,1.5-0.5,1.9-0.5c3.2,0,3.1,2.8,3.1,3.9H404.5z M408.2,212.3
				c0-0.7-0.1-2.1-1.7-2.1c-0.9,0-1.9,0.5-1.9,2.1H408.2z"/>
			<path class="st5" d="M418.4,209.3c2.8,0,3.4,2.2,3.4,3.7c0,2.1-1.2,3.8-3.6,3.8c-2.3,0-3.5-1.6-3.5-3.7
				C414.9,211.3,415.7,209.3,418.4,209.3z M418.3,215.7c1,0,2.1-0.7,2.1-2.8c0-1.8-0.8-2.7-2-2.7c-0.8,0-2.2,0.5-2.2,2.7
				C416.2,214.4,416.9,215.7,418.3,215.7z"/>
			<path class="st5" d="M422.9,209.4h1.2v-1.5l1.3-0.4v1.9h1.6v1h-1.6v4.2c0,0.4,0,0.9,0.9,0.9c0.3,0,0.5,0,0.6-0.1v1
				c-0.2,0-0.6,0.1-1.1,0.1c-1.2,0-1.8-0.4-1.8-1.5v-4.7h-1.2V209.4z"/>
			<path class="st5" d="M428.6,206.4h1.3v4.1c0.4-0.7,1.3-1.2,2.3-1.2c0.7,0,1.8,0.3,2.2,1.1c0.1,0.3,0.2,0.6,0.2,1.6v4.4h-1.3v-4.2
				c0-0.6,0-2-1.5-2c-1,0-1.5,0.6-1.7,0.9c-0.2,0.4-0.2,1.1-0.2,1.5v3.7h-1.3V206.4z"/>
			<path class="st5" d="M437.9,213.2c0,1.5,0.6,2.5,2,2.5c0.9,0,1.5-0.4,1.7-1.5h1.3c0,0.4-0.1,0.9-0.6,1.5c-0.3,0.4-1,0.9-2.4,0.9
				c-2.2,0-3.3-1.4-3.3-3.6c0-1.4,0.3-2.5,1.4-3.3c0.7-0.5,1.5-0.5,1.9-0.5c3.2,0,3.1,2.8,3.1,3.9H437.9z M441.7,212.3
				c0-0.7-0.1-2.1-1.7-2.1c-0.9,0-1.9,0.5-1.9,2.1H441.7z"/>
			<path class="st5" d="M445,210.9c0-0.5,0-1-0.1-1.4h1.3l0,1.4c0.3-1,1.1-1.3,1.7-1.4c0.4-0.1,0.7,0,0.9,0v1.3
				c-0.1,0-0.2,0-0.3-0.1c-0.1,0-0.2,0-0.4,0c-1.6,0-1.9,0.9-1.9,2.1v3.7H445V210.9z"/>
			<path class="st5" d="M328,226.2h1.5l2.2,5.6l2.2-5.6h1.5l-3.1,7H331L328,226.2z"/>
			<path class="st5" d="M341.1,233.3c-0.1-0.4-0.1-0.7-0.1-1.1c-0.6,1.2-1.6,1.3-2.2,1.3c-1.6,0-2.5-0.9-2.5-2.1
				c0-0.6,0.2-1.5,1.2-2.1c0.8-0.4,1.9-0.5,2.4-0.5c0.3,0,0.5,0,1,0c0-0.9,0-1.2-0.3-1.6c-0.3-0.4-0.8-0.5-1.2-0.5
				c-1.3,0-1.4,0.9-1.4,1.2h-1.3c0-0.4,0.1-0.9,0.5-1.3c0.5-0.6,1.5-0.8,2.3-0.8c1,0,2.1,0.3,2.5,1c0.2,0.4,0.2,0.8,0.2,1.1
				l-0.1,3.4c0,0.1,0,1.1,0.1,1.8H341.1z M340.2,229.8c-0.5,0-2.5,0-2.5,1.4c0,0.4,0.3,1.2,1.5,1.2c0.7,0,1.2-0.3,1.5-0.8
				c0.3-0.5,0.3-0.9,0.3-1.8C340.8,229.8,340.6,229.8,340.2,229.8z"/>
			<path class="st5" d="M344.7,227.7c0-0.5,0-1-0.1-1.4h1.3l0,1.4c0.3-1,1.1-1.3,1.7-1.4c0.4-0.1,0.7,0,0.9,0v1.3
				c-0.1,0-0.2,0-0.3-0.1c-0.1,0-0.2,0-0.4,0c-1.6,0-1.9,0.9-1.9,2.1v3.7h-1.3V227.7z"/>
			<path class="st5" d="M350,223.2h1.6v1.4H350V223.2z M350.1,226.2h1.3v7h-1.3V226.2z"/>
			<path class="st5" d="M358.3,233.3c-0.1-0.4-0.1-0.7-0.1-1.1c-0.6,1.2-1.6,1.3-2.2,1.3c-1.6,0-2.5-0.9-2.5-2.1
				c0-0.6,0.2-1.5,1.2-2.1c0.8-0.4,1.9-0.5,2.4-0.5c0.3,0,0.5,0,1,0c0-0.9,0-1.2-0.3-1.6c-0.3-0.4-0.8-0.5-1.2-0.5
				c-1.3,0-1.4,0.9-1.4,1.2h-1.3c0-0.4,0.1-0.9,0.5-1.3c0.5-0.6,1.5-0.8,2.3-0.8c1,0,2.1,0.3,2.5,1c0.2,0.4,0.2,0.8,0.2,1.1
				l-0.1,3.4c0,0.1,0,1.1,0.1,1.8H358.3z M357.4,229.8c-0.5,0-2.5,0-2.5,1.4c0,0.4,0.3,1.2,1.5,1.2c0.7,0,1.2-0.3,1.5-0.8
				c0.3-0.5,0.3-0.9,0.3-1.8C357.9,229.8,357.7,229.8,357.4,229.8z"/>
			<path class="st5" d="M360.7,226.2h1.2v-1.5l1.3-0.4v1.9h1.6v1h-1.6v4.2c0,0.4,0,0.9,0.9,0.9c0.3,0,0.5,0,0.6-0.1v1
				c-0.2,0-0.6,0.1-1.1,0.1c-1.2,0-1.8-0.4-1.8-1.5v-4.7h-1.2V226.2z"/>
			<path class="st5" d="M366.3,223.2h1.6v1.4h-1.6V223.2z M366.4,226.2h1.3v7h-1.3V226.2z"/>
			<path class="st5" d="M373.4,226.1c2.8,0,3.4,2.2,3.4,3.7c0,2.1-1.2,3.8-3.6,3.8c-2.3,0-3.5-1.6-3.5-3.7
				C369.8,228.1,370.6,226.1,373.4,226.1z M373.3,232.5c1,0,2.1-0.7,2.1-2.8c0-1.8-0.8-2.7-2-2.7c-0.8,0-2.2,0.5-2.2,2.7
				C371.2,231.2,371.8,232.5,373.3,232.5z"/>
			<path class="st5" d="M378.9,227.1l0-0.8h1.3l0,1.1c0.2-0.3,0.7-1.3,2.3-1.3c0.6,0,2.5,0.2,2.5,2.4v4.8h-1.3v-4.5
				c0-0.5-0.1-0.9-0.4-1.2c-0.3-0.3-0.8-0.5-1.2-0.5c-1,0-1.8,0.7-1.8,2.1v4h-1.3V227.1z"/>
			<path class="st5" d="M388.2,231.2c0,0.5,0.3,1.3,1.5,1.3c0.5,0,1-0.1,1.2-0.4c0.1-0.2,0.2-0.4,0.2-0.7c0-0.7-0.5-0.8-1.5-1.1
				c-1.5-0.3-2.7-0.6-2.7-2.1c0-1.3,1.1-2.1,2.7-2.1c0.9,0,2.1,0.3,2.5,1.1c0.2,0.4,0.2,0.7,0.2,1h-1.3c0-1.1-0.9-1.1-1.4-1.1
				c-0.2,0-1.4,0-1.4,1c0,0.6,0.6,0.8,1,0.9c1.9,0.5,2.4,0.6,2.8,1c0.4,0.4,0.5,0.9,0.5,1.3c0,0.8-0.4,1.5-1,1.8
				c-0.6,0.4-1.4,0.5-2.1,0.5c-1.4,0-2.8-0.6-2.7-2.3H388.2z"/>
			<path class="st5" d="M401.4,226.1c2.8,0,3.4,2.2,3.4,3.7c0,2.1-1.2,3.8-3.6,3.8c-2.3,0-3.5-1.6-3.5-3.7
				C397.8,228.1,398.6,226.1,401.4,226.1z M401.3,232.5c1,0,2.1-0.7,2.1-2.8c0-1.8-0.8-2.7-2-2.7c-0.8,0-2.2,0.5-2.2,2.7
				C399.2,231.2,399.8,232.5,401.3,232.5z"/>
			<path class="st5" d="M410.4,224.1c-0.2,0-0.5,0-0.8,0c-1.1,0-1.1,0.5-1.1,1v1.1h1.6v1h-1.6v6.1h-1.3v-6.1h-1.4v-1h1.4v-0.8
				c0-1,0.1-1.3,0.3-1.7c0.3-0.4,0.9-0.8,1.8-0.8c0.4,0,0.8,0.1,1.1,0.1V224.1z"/>
			<path class="st5" d="M415.4,223.2h1.3v4.1c0.4-0.7,1.3-1.2,2.3-1.2c0.7,0,1.8,0.3,2.2,1.1c0.1,0.3,0.2,0.6,0.2,1.6v4.4h-1.3v-4.2
				c0-0.6,0-2-1.5-2c-1,0-1.5,0.6-1.7,0.9c-0.2,0.4-0.2,1.1-0.2,1.5v3.7h-1.3V223.2z"/>
			<path class="st5" d="M427,226.1c2.8,0,3.4,2.2,3.4,3.7c0,2.1-1.2,3.8-3.6,3.8c-2.3,0-3.5-1.6-3.5-3.7
				C423.5,228.1,424.3,226.1,427,226.1z M427,232.5c1,0,2.1-0.7,2.1-2.8c0-1.8-0.8-2.7-2-2.7c-0.8,0-2.2,0.5-2.2,2.7
				C424.8,231.2,425.5,232.5,427,232.5z"/>
			<path class="st5" d="M432.9,226.2l1.7,5.6l1.8-5.6h1.7l1.6,5.5l1.8-5.5h1.4l-2.5,7h-1.5l-1.7-5.8l-1.8,5.8h-1.6l-2.3-7H432.9z"/>
			<path class="st5" d="M333.1,245.3c0-0.3-0.1-1.5-1.4-1.5c-1.8,0-1.8,2.1-1.8,2.6c0,1.4,0.4,2.8,1.8,2.8c1.1,0,1.5-0.8,1.5-1.5
				h1.3c-0.1,1.4-1.1,2.5-2.8,2.5c-0.5,0-1.6-0.1-2.3-0.9c-0.4-0.5-0.8-1.2-0.8-2.7c0-2.9,1.8-3.8,3.2-3.8c0.5,0,1.5,0.1,2.2,0.9
				c0.5,0.6,0.6,1.2,0.6,1.6H333.1z"/>
			<path class="st5" d="M339.1,242.9c2.8,0,3.4,2.2,3.4,3.7c0,2.1-1.2,3.8-3.6,3.8c-2.3,0-3.5-1.6-3.5-3.7
				C335.6,244.9,336.4,242.9,339.1,242.9z M339,249.3c1,0,2.1-0.7,2.1-2.8c0-1.8-0.8-2.7-2-2.7c-0.8,0-2.2,0.5-2.2,2.7
				C336.9,248,337.5,249.3,339,249.3z"/>
			<path class="st5" d="M345.8,243v4.5c0,0.7,0.2,1.6,1.5,1.6c0.7,0,1.3-0.2,1.7-0.8c0.3-0.4,0.3-1,0.3-1.3v-4h1.4v5.7
				c0,0.1,0,0.9,0,1.3h-1.4l0-1.2c-0.3,0.5-0.7,1.3-2.2,1.3c-1.7,0-2.5-1-2.5-2.4V243H345.8z"/>
			<path class="st5" d="M353.3,244.5c0-0.5,0-1-0.1-1.4h1.3l0,1.4c0.3-1,1.1-1.3,1.7-1.4c0.4-0.1,0.7,0,0.9,0v1.3
				c-0.1,0-0.2,0-0.3-0.1c-0.1,0-0.2,0-0.4,0c-1.6,0-1.9,0.9-1.9,2.1v3.7h-1.3V244.5z"/>
			<path class="st5" d="M359.7,248c0,0.5,0.3,1.3,1.5,1.3c0.5,0,1-0.1,1.2-0.4c0.1-0.2,0.2-0.4,0.2-0.7c0-0.7-0.5-0.8-1.5-1.1
				c-1.5-0.3-2.7-0.6-2.7-2.1c0-1.3,1.1-2.1,2.7-2.1c0.9,0,2.1,0.3,2.5,1.1c0.2,0.4,0.2,0.7,0.2,1h-1.3c0-1.1-0.9-1.1-1.4-1.1
				c-0.2,0-1.4,0-1.4,1c0,0.6,0.6,0.8,1,0.9c1.9,0.5,2.4,0.6,2.8,1c0.4,0.4,0.5,0.9,0.5,1.3c0,0.8-0.4,1.5-1,1.8
				c-0.6,0.4-1.4,0.5-2.1,0.5c-1.4,0-2.8-0.6-2.7-2.3H359.7z"/>
			<path class="st5" d="M366.7,246.8c0,1.5,0.6,2.5,2,2.5c0.9,0,1.5-0.4,1.7-1.5h1.3c0,0.4-0.1,0.9-0.6,1.5c-0.3,0.4-1,0.9-2.4,0.9
				c-2.2,0-3.3-1.4-3.3-3.6c0-1.4,0.3-2.5,1.4-3.3c0.7-0.5,1.5-0.5,1.9-0.5c3.2,0,3.1,2.8,3.1,3.9H366.7z M370.4,245.9
				c0-0.7-0.1-2.1-1.7-2.1c-0.9,0-1.9,0.5-1.9,2.1H370.4z"/>
			<path class="st5" d="M381.6,245.3c0-0.3-0.1-1.5-1.4-1.5c-1.8,0-1.8,2.1-1.8,2.6c0,1.4,0.4,2.8,1.8,2.8c1.1,0,1.5-0.8,1.5-1.5
				h1.3c-0.1,1.4-1.1,2.5-2.8,2.5c-0.5,0-1.6-0.1-2.3-0.9c-0.4-0.5-0.8-1.2-0.8-2.7c0-2.9,1.8-3.8,3.2-3.8c0.5,0,1.5,0.1,2.2,0.9
				c0.5,0.6,0.6,1.2,0.6,1.6H381.6z"/>
			<path class="st5" d="M387.6,242.9c2.8,0,3.4,2.2,3.4,3.7c0,2.1-1.2,3.8-3.6,3.8c-2.3,0-3.5-1.6-3.5-3.7
				C384.1,244.9,384.9,242.9,387.6,242.9z M387.6,249.3c1,0,2.1-0.7,2.1-2.8c0-1.8-0.8-2.7-2-2.7c-0.8,0-2.2,0.5-2.2,2.7
				C385.4,248,386.1,249.3,387.6,249.3z"/>
			<path class="st5" d="M393.2,243.9l0-0.8h1.3l0,1.1c0.2-0.3,0.7-1.3,2.3-1.3c0.6,0,2.5,0.2,2.5,2.4v4.8H398v-4.5
				c0-0.5-0.1-0.9-0.4-1.2c-0.3-0.3-0.8-0.5-1.2-0.5c-1,0-1.8,0.7-1.8,2.1v4h-1.3V243.9z"/>
			<path class="st5" d="M400.6,243h1.2v-1.5l1.3-0.4v1.9h1.6v1h-1.6v4.2c0,0.4,0,0.9,0.9,0.9c0.3,0,0.5,0,0.6-0.1v1
				c-0.2,0-0.6,0.1-1.1,0.1c-1.2,0-1.8-0.4-1.8-1.5V244h-1.2V243z"/>
			<path class="st5" d="M407.2,246.8c0,1.5,0.6,2.5,2,2.5c0.9,0,1.5-0.4,1.7-1.5h1.3c0,0.4-0.1,0.9-0.6,1.5c-0.3,0.4-1,0.9-2.4,0.9
				c-2.2,0-3.3-1.4-3.3-3.6c0-1.4,0.3-2.5,1.4-3.3c0.7-0.5,1.5-0.5,1.9-0.5c3.2,0,3.1,2.8,3.1,3.9H407.2z M410.9,245.9
				c0-0.7-0.1-2.1-1.7-2.1c-0.9,0-1.9,0.5-1.9,2.1H410.9z"/>
			<path class="st5" d="M414.2,243.9l0-0.8h1.3l0,1.1c0.2-0.3,0.7-1.3,2.3-1.3c0.6,0,2.5,0.2,2.5,2.4v4.8H419v-4.5
				c0-0.5-0.1-0.9-0.4-1.2c-0.3-0.3-0.8-0.5-1.2-0.5c-1,0-1.8,0.7-1.8,2.1v4h-1.3V243.9z"/>
			<path class="st5" d="M421.6,243h1.2v-1.5l1.3-0.4v1.9h1.6v1h-1.6v4.2c0,0.4,0,0.9,0.9,0.9c0.3,0,0.5,0,0.6-0.1v1
				c-0.2,0-0.6,0.1-1.1,0.1c-1.2,0-1.8-0.4-1.8-1.5V244h-1.2V243z"/>
			<path class="st5" d="M435.3,245.3c0-0.3-0.1-1.5-1.4-1.5c-1.8,0-1.8,2.1-1.8,2.6c0,1.4,0.4,2.8,1.8,2.8c1.1,0,1.5-0.8,1.5-1.5
				h1.3c-0.1,1.4-1.1,2.5-2.8,2.5c-0.5,0-1.6-0.1-2.3-0.9c-0.4-0.5-0.8-1.2-0.8-2.7c0-2.9,1.8-3.8,3.2-3.8c0.5,0,1.5,0.1,2.2,0.9
				c0.5,0.6,0.6,1.2,0.6,1.6H435.3z"/>
			<path class="st5" d="M442.5,250.1c-0.1-0.4-0.1-0.7-0.1-1.1c-0.6,1.2-1.6,1.3-2.2,1.3c-1.6,0-2.5-0.9-2.5-2.1
				c0-0.6,0.2-1.5,1.2-2.1c0.8-0.4,1.9-0.5,2.4-0.5c0.3,0,0.5,0,1,0c0-0.9,0-1.2-0.3-1.6c-0.3-0.4-0.8-0.5-1.2-0.5
				c-1.3,0-1.4,0.9-1.4,1.2h-1.3c0-0.4,0.1-0.9,0.5-1.3c0.5-0.6,1.5-0.8,2.3-0.8c1,0,2.1,0.3,2.5,1c0.2,0.4,0.2,0.8,0.2,1.1
				l-0.1,3.4c0,0.1,0,1.1,0.1,1.8H442.5z M441.6,246.6c-0.5,0-2.5,0-2.5,1.4c0,0.4,0.3,1.2,1.5,1.2c0.7,0,1.2-0.3,1.5-0.8
				c0.3-0.5,0.3-0.9,0.3-1.8C442.1,246.6,441.9,246.6,441.6,246.6z"/>
			<path class="st5" d="M446.1,243.9l0-0.8h1.3l0,1.1c0.2-0.3,0.7-1.3,2.3-1.3c0.6,0,2.5,0.2,2.5,2.4v4.8h-1.3v-4.5
				c0-0.5-0.1-0.9-0.4-1.2c-0.3-0.3-0.8-0.5-1.2-0.5c-1,0-1.8,0.7-1.8,2.1v4h-1.3V243.9z"/>
			<path class="st5" d="M330.4,260.9c0.2-0.3,0.7-1.2,2.3-1.2c0.7,0,1.6,0.2,2.2,0.9c0.4,0.4,0.8,1.1,0.8,2.6c0,1.4-0.3,2.1-0.7,2.6
				c-0.6,0.8-1.5,1.2-2.5,1.2c-0.3,0-1,0-1.6-0.4c-0.4-0.3-0.5-0.5-0.7-0.7l0,1.1h-1.3l0-1.3v-8.9h1.3V260.9z M332.4,260.6
				c-2,0-2,2.4-2,2.8c0,0.5,0,2.7,2,2.7c1.6,0,2-1.6,2-2.7C334.4,262.6,334.2,260.6,332.4,260.6z"/>
			<path class="st5" d="M338.4,263.6c0,1.5,0.6,2.5,2,2.5c0.9,0,1.5-0.4,1.7-1.5h1.3c0,0.4-0.1,0.9-0.6,1.5c-0.3,0.4-1,0.9-2.4,0.9
				c-2.2,0-3.3-1.4-3.3-3.6c0-1.4,0.3-2.5,1.4-3.3c0.7-0.5,1.5-0.5,1.9-0.5c3.2,0,3.1,2.8,3.1,3.9H338.4z M342.1,262.7
				c0-0.7-0.1-2.1-1.7-2.1c-0.9,0-1.9,0.5-1.9,2.1H342.1z"/>
			<path class="st5" d="M354.2,256.8h1.3v9c0,0.2,0,0.8,0.1,1.1h-1.3l0-1.1c-0.1,0.2-0.3,0.5-0.6,0.7c-0.6,0.4-1.3,0.5-1.7,0.5
				c-0.9,0-3-0.5-3-3.6c0-2.7,1.5-3.8,3.2-3.8c1.5,0,2,0.9,2.2,1.2V256.8z M353.7,261.3c-0.3-0.4-0.8-0.7-1.5-0.7
				c-1.9,0-1.9,2.3-1.9,2.8c0,1.2,0.3,2.7,1.9,2.7c2.1,0,2.1-2.3,2.1-2.8C354.2,262.2,354,261.7,353.7,261.3z"/>
			<path class="st5" d="M357.7,256.8h1.6v1.4h-1.6V256.8z M357.9,259.8h1.3v7h-1.3V259.8z"/>
			<path class="st5" d="M362.5,264.8c0,0.5,0.3,1.3,1.5,1.3c0.5,0,1-0.1,1.2-0.4c0.1-0.2,0.2-0.4,0.2-0.7c0-0.7-0.5-0.8-1.5-1.1
				c-1.5-0.3-2.7-0.6-2.7-2.1c0-1.3,1.1-2.1,2.7-2.1c0.9,0,2.1,0.3,2.5,1.1c0.2,0.4,0.2,0.7,0.2,1h-1.3c0-1.1-0.9-1.1-1.4-1.1
				c-0.2,0-1.4,0-1.4,1c0,0.6,0.6,0.8,1,0.9c1.9,0.5,2.4,0.6,2.8,1c0.4,0.4,0.5,0.9,0.5,1.3c0,0.8-0.4,1.5-1,1.8
				c-0.6,0.4-1.4,0.5-2.1,0.5c-1.4,0-2.8-0.6-2.7-2.3H362.5z"/>
			<path class="st5" d="M368.7,261c0-0.3,0-0.5,0-1.1h1.3l0,1.2c0.7-1.1,1.8-1.3,2.4-1.3c1.5,0,3,1,3,3.6c0,2.6-1.5,3.8-3.2,3.8
				c-1,0-1.8-0.4-2.2-1.1v3.5h-1.3V261z M371.9,266.2c0.3,0,1-0.1,1.5-0.7c0.5-0.7,0.6-1.7,0.6-2.2c0-1.3-0.4-2.6-1.9-2.6
				c-2.1,0-2.1,2.2-2.1,2.9C370,264.4,370.1,266.2,371.9,266.2z"/>
			<path class="st5" d="M377.3,256.8h1.3v10.1h-1.3V256.8z"/>
			<path class="st5" d="M385.5,266.9c-0.1-0.4-0.1-0.7-0.1-1.1c-0.6,1.2-1.6,1.3-2.2,1.3c-1.6,0-2.5-0.9-2.5-2.1
				c0-0.6,0.2-1.5,1.2-2.1c0.8-0.4,1.9-0.5,2.4-0.5c0.3,0,0.5,0,1,0c0-0.9,0-1.2-0.3-1.6c-0.3-0.4-0.8-0.5-1.2-0.5
				c-1.3,0-1.4,0.9-1.4,1.2h-1.3c0-0.4,0.1-0.9,0.5-1.3c0.5-0.6,1.5-0.8,2.3-0.8c1,0,2.1,0.3,2.5,1c0.2,0.4,0.2,0.8,0.2,1.1
				l-0.1,3.4c0,0.1,0,1.1,0.1,1.8H385.5z M384.6,263.4c-0.5,0-2.5,0-2.5,1.4c0,0.4,0.3,1.2,1.5,1.2c0.7,0,1.2-0.3,1.5-0.8
				c0.3-0.5,0.3-0.9,0.3-1.8C385.1,263.4,384.9,263.4,384.6,263.4z"/>
			<path class="st5" d="M392.1,266.9l-1,2.6h-1.4l1.1-2.7l-2.9-7h1.5l2.2,5.5l2.2-5.5h1.4L392.1,266.9z"/>
			<path class="st5" d="M397.6,263.6c0,1.5,0.6,2.5,2,2.5c0.9,0,1.5-0.4,1.7-1.5h1.3c0,0.4-0.1,0.9-0.6,1.5c-0.3,0.4-1,0.9-2.4,0.9
				c-2.2,0-3.3-1.4-3.3-3.6c0-1.4,0.3-2.5,1.4-3.3c0.7-0.5,1.5-0.5,1.9-0.5c3.2,0,3.1,2.8,3.1,3.9H397.6z M401.3,262.7
				c0-0.7-0.1-2.1-1.7-2.1c-0.9,0-1.9,0.5-1.9,2.1H401.3z"/>
			<path class="st5" d="M409.4,256.8h1.3v9c0,0.2,0,0.8,0.1,1.1h-1.3l0-1.1c-0.1,0.2-0.3,0.5-0.6,0.7c-0.6,0.4-1.3,0.5-1.7,0.5
				c-0.9,0-3-0.5-3-3.6c0-2.7,1.5-3.8,3.2-3.8c1.5,0,2,0.9,2.2,1.2V256.8z M408.9,261.3c-0.3-0.4-0.8-0.7-1.5-0.7
				c-1.9,0-1.9,2.3-1.9,2.8c0,1.2,0.3,2.7,1.9,2.7c2.1,0,2.1-2.3,2.1-2.8C409.5,262.2,409.2,261.7,408.9,261.3z"/>
			<path class="st5" d="M413,265.2h1.6v1.7H413V265.2z"/>
		</g>
	</g>
	<g>
		<rect x="530.6" y="209.3" class="st0" width="38.6" height="38.6"/>
		<rect x="568.9" y="199.2" class="st1" width="187.3" height="182.2"/>
		<text transform="matrix(1 0 0 1 537.7955 241.6397)" class="st2 st3 st4">3</text>
		<g>
			<path class="st5" d="M594.5,237.2h3.4c1.2,0,2.1,0.1,2.8,0.8c0.5,0.5,0.7,1.2,0.7,2c0,0.8-0.3,1.4-0.8,2
				c-0.5,0.5-1.2,0.9-3.1,0.9h-1.6v4.5h-1.4V237.2z M595.9,241.6h1.7c0.9,0,2.3-0.1,2.3-1.7c0-1.6-1.3-1.6-2-1.6h-2V241.6z"/>
			<path class="st5" d="M605.7,240.1c2.8,0,3.4,2.2,3.4,3.7c0,2.1-1.2,3.8-3.6,3.8c-2.3,0-3.5-1.6-3.5-3.7
				C602.1,242.1,602.9,240.1,605.7,240.1z M605.6,246.5c1,0,2.1-0.7,2.1-2.8c0-1.8-0.8-2.7-2-2.7c-0.8,0-2.2,0.5-2.2,2.7
				C603.5,245.2,604.1,246.5,605.6,246.5z"/>
			<path class="st5" d="M611.1,241.4c0-0.3,0-0.5,0-1.1h1.3l0,1.2c0.7-1.1,1.8-1.3,2.4-1.3c1.5,0,3,1,3,3.6c0,2.6-1.5,3.8-3.2,3.8
				c-1,0-1.8-0.4-2.2-1.1v3.5h-1.3V241.4z M614.4,246.6c0.3,0,1-0.1,1.5-0.7c0.5-0.7,0.6-1.7,0.6-2.2c0-1.3-0.4-2.6-1.9-2.6
				c-2.1,0-2.1,2.2-2.1,2.9C612.4,244.8,612.5,246.6,614.4,246.6z"/>
			<path class="st5" d="M623.5,237.2h1.6v1.4h-1.6V237.2z M623.6,240.2h1.3v7h-1.3V240.2z"/>
			<path class="st5" d="M627.5,241.1l0-0.8h1.3l0,1.1c0.2-0.3,0.7-1.3,2.3-1.3c0.6,0,2.5,0.2,2.5,2.4v4.8h-1.3v-4.5
				c0-0.5-0.1-0.9-0.4-1.2c-0.3-0.3-0.8-0.5-1.2-0.5c-1,0-1.8,0.7-1.8,2.1v4h-1.3V241.1z"/>
			<path class="st5" d="M638.9,240.2h1.2v-1.5l1.3-0.4v1.9h1.6v1h-1.6v4.2c0,0.4,0,0.9,0.9,0.9c0.3,0,0.5,0,0.6-0.1v1
				c-0.2,0-0.6,0.1-1.1,0.1c-1.2,0-1.8-0.4-1.8-1.5v-4.7h-1.2V240.2z"/>
			<path class="st5" d="M647.7,240.1c2.8,0,3.4,2.2,3.4,3.7c0,2.1-1.2,3.8-3.6,3.8c-2.3,0-3.5-1.6-3.5-3.7
				C644.1,242.1,644.9,240.1,647.7,240.1z M647.6,246.5c1,0,2.1-0.7,2.1-2.8c0-1.8-0.8-2.7-2-2.7c-0.8,0-2.2,0.5-2.2,2.7
				C645.5,245.2,646.1,246.5,647.6,246.5z"/>
			<path class="st5" d="M656,240.2h1.2v-1.5l1.3-0.4v1.9h1.6v1h-1.6v4.2c0,0.4,0,0.9,0.9,0.9c0.3,0,0.5,0,0.6-0.1v1
				c-0.2,0-0.6,0.1-1.1,0.1c-1.2,0-1.8-0.4-1.8-1.5v-4.7H656V240.2z"/>
			<path class="st5" d="M661.7,237.2h1.3v4.1c0.4-0.7,1.3-1.2,2.3-1.2c0.7,0,1.8,0.3,2.2,1.1c0.1,0.3,0.2,0.6,0.2,1.6v4.4h-1.3v-4.2
				c0-0.6,0-2-1.5-2c-1,0-1.5,0.6-1.7,0.9c-0.2,0.4-0.2,1.1-0.2,1.5v3.7h-1.3V237.2z"/>
			<path class="st5" d="M671.1,244c0,1.5,0.6,2.5,2,2.5c0.9,0,1.5-0.4,1.7-1.5h1.3c0,0.4-0.1,0.9-0.6,1.5c-0.3,0.4-1,0.9-2.4,0.9
				c-2.2,0-3.3-1.4-3.3-3.6c0-1.4,0.3-2.5,1.4-3.3c0.7-0.5,1.5-0.5,1.9-0.5c3.2,0,3.1,2.8,3.1,3.9H671.1z M674.8,243.1
				c0-0.7-0.1-2.1-1.7-2.1c-0.9,0-1.9,0.5-1.9,2.1H674.8z"/>
			<path d="M681.7,237.2h6.5v1.6h-4.4v2.5h4.1v1.7h-4.1v4.3h-2.2V237.2z"/>
			<path d="M693.1,247.3c-0.1-0.4-0.1-0.8-0.1-1c-0.8,1.1-1.7,1.1-2.1,1.1c-1,0-1.5-0.3-1.8-0.6c-0.4-0.4-0.6-1-0.6-1.6
				c0-0.6,0.2-1.6,1.5-2.2c0.9-0.4,2.1-0.4,2.8-0.4c0-0.5,0-0.7-0.1-0.9c-0.2-0.5-0.7-0.6-0.9-0.6c-0.3,0-0.6,0.1-0.8,0.4
				c-0.2,0.2-0.2,0.5-0.2,0.6h-2c0-0.4,0.1-1.1,0.8-1.7c0.6-0.5,1.5-0.6,2.1-0.6c0.6,0,1.8,0.1,2.5,0.9c0.5,0.6,0.5,1.4,0.5,1.7
				l0,2.8c0,0.6,0,1.2,0.2,1.8H693.1z M690.5,245.1c0,0.5,0.3,1,1,1c0.4,0,0.7-0.2,0.9-0.4c0.4-0.4,0.4-1,0.4-1.8
				C691.5,243.8,690.5,244.2,690.5,245.1z"/>
			<path d="M700.4,242.7c0-0.3-0.1-1.3-0.9-1.3c-1,0-1.1,1.5-1.1,2.3c0,0.4,0,1.7,0.5,2.2c0.2,0.2,0.4,0.2,0.6,0.2
				c0.2,0,0.9-0.1,1-1.4h2c0,0.5-0.1,1.4-0.9,2.1c-0.5,0.4-1.1,0.7-2,0.7c-0.9,0-1.8-0.2-2.4-0.9c-0.6-0.7-0.9-1.7-0.9-2.8
				c0-3.2,2.4-3.7,3.3-3.7c1.3,0,2.9,0.7,2.9,2.6H700.4z"/>
			<path d="M705.7,240.2v4.2c0,0.6,0,1.6,1.1,1.6c1.3,0,1.3-1,1.3-2.2v-3.6h2.1v4.7c0,1.5,0,1.7,0,1.9c0,0.2,0,0.3,0.1,0.5h-2
				l-0.1-0.9c-0.2,0.3-0.7,1.1-2.1,1.1c-1,0-1.7-0.4-2.1-1c-0.5-0.6-0.5-1.6-0.5-1.9v-4.4H705.7z"/>
			<path d="M712.2,237.1h2.1v10.1h-2.1V237.1z"/>
			<path d="M720.2,247.2c-0.7,0.2-1.3,0.2-1.6,0.2c-2.1,0-2.1-1.3-2.1-1.9v-3.9h-1.4v-1.4h1.4v-1.4l2.1-0.8v2.1h1.7v1.4h-1.7v3.2
				c0,0.6,0,1.1,0.9,1.1c0.3,0,0.4,0,0.7,0V247.2z"/>
			<path d="M723.1,240.2l1.6,4.9l1.6-4.9h2.1l-2.7,6.9l-0.9,2.8h-2.1l0.9-2.7l-2.7-7.1H723.1z"/>
			<path d="M594.2,253.9h2.2v4h3.8v-4h2.2v10.1h-2.2v-4.4h-3.9v4.4h-2.2V253.9z"/>
			<path d="M607.6,256.8c2.6,0,3.7,1.7,3.7,3.7c0,2-1.1,3.8-3.7,3.8c-2,0-3.6-1.2-3.6-3.7C603.9,258.9,604.8,256.8,607.6,256.8z
				 M607.6,262.9c0.9,0,1.5-0.5,1.5-2.4c0-0.9-0.2-2.2-1.6-2.2c-1.5,0-1.5,1.8-1.5,2.4C606.1,262.2,606.6,262.9,607.6,262.9z"/>
			<path d="M613.9,257l1.3,5.3l1.5-5.3h2.3l1.5,5.3l1.4-5.3h2.1l-2.4,7.1h-2.3l-1.5-5.2l-1.5,5.2H614l-2.3-7.1H613.9z"/>
			<path d="M624.5,259.6h3.5v1.6h-3.5V259.6z"/>
			<path d="M631.7,255.6h-3v-1.7h8.2v1.7h-3v8.4h-2.2V255.6z"/>
			<path d="M639.2,256.8c2.6,0,3.7,1.7,3.7,3.7c0,2-1.1,3.8-3.7,3.8c-2,0-3.6-1.2-3.6-3.7C635.6,258.9,636.4,256.8,639.2,256.8z
				 M639.3,262.9c0.9,0,1.5-0.5,1.5-2.4c0-0.9-0.2-2.2-1.6-2.2c-1.5,0-1.5,1.8-1.5,2.4C637.7,262.2,638.2,262.9,639.3,262.9z"/>
			<path d="M655.2,257.1c0-0.3,0-0.6-0.3-1c-0.4-0.7-1.2-0.8-1.7-0.8c-2.5,0-3,2.3-3,3.9c0,0.7,0.1,1.9,0.8,2.7
				c0.5,0.6,1.2,0.9,2.4,0.9c1.1,0,1.4-0.1,1.7-0.2v-2.1h-2v-1.7h4.1v5.1c-0.6,0.2-1.7,0.6-3.7,0.6c-2.3,0-3.5-0.6-4.3-1.3
				c-1.1-1.1-1.3-2.7-1.3-3.8c0-3.6,2.2-5.5,5.3-5.5c1.3,0,2.6,0.4,3.4,1.3c0.7,0.8,0.7,1.6,0.7,2.1H655.2z"/>
			<path d="M661.3,257v4.2c0,0.6,0,1.6,1.1,1.6c1.3,0,1.3-1,1.3-2.2V257h2.1v4.7c0,1.5,0,1.7,0,1.9c0,0.2,0,0.3,0.1,0.5h-2l-0.1-0.9
				c-0.2,0.3-0.7,1.1-2.1,1.1c-1,0-1.7-0.4-2.1-1c-0.5-0.6-0.5-1.6-0.5-1.9V257H661.3z"/>
			<path d="M667.7,254h2.2v1.8h-2.2V254z M667.8,257h2.1v7.1h-2.1V257z"/>
			<path d="M676.4,254h2.1v9c0,0.4,0,0.9,0.1,1.1h-2.1l-0.1-1c-0.1,0.3-0.3,0.5-0.7,0.8c-0.5,0.3-1.1,0.4-1.4,0.4
				c-1.9,0-3-1.3-3-3.5c0-2.3,1.3-3.8,3.1-3.8c1.3,0,1.8,0.7,2,1V254z M674.8,262.9c0.6,0,1.1-0.4,1.3-0.8c0.3-0.6,0.3-1.3,0.3-1.7
				c0-1.4-0.6-2.1-1.5-2.1c-1.4,0-1.5,1.7-1.5,2.4C673.3,261.8,673.7,262.9,674.8,262.9z"/>
			<path d="M681.9,261.1c0,0.5,0,1.9,1.4,1.9c0.5,0,1-0.2,1.2-1h1.9c0,0.3-0.1,0.9-0.7,1.5c-0.5,0.5-1.4,0.8-2.5,0.8
				c-0.6,0-1.8-0.1-2.5-0.9c-0.6-0.7-0.9-1.6-0.9-2.8c0-1.1,0.3-2.5,1.5-3.3c0.5-0.4,1.2-0.6,2-0.6c1,0,2.2,0.4,2.9,1.7
				c0.5,1,0.4,2,0.4,2.6H681.9z M684.5,259.8c0-0.3,0-1.6-1.2-1.6c-0.9,0-1.3,0.8-1.3,1.6H684.5z"/>
			<path class="st5" d="M695.7,254.9c-0.2,0-0.5,0-0.8,0c-1.1,0-1.1,0.5-1.1,1v1.1h1.6v1h-1.6v6.1h-1.3V258h-1.4v-1h1.4v-0.8
				c0-1,0.1-1.3,0.3-1.7c0.3-0.4,0.9-0.8,1.8-0.8c0.4,0,0.8,0.1,1.1,0.1V254.9z"/>
			<path class="st5" d="M699.9,256.9c2.8,0,3.4,2.2,3.4,3.7c0,2.1-1.2,3.8-3.6,3.8c-2.3,0-3.5-1.6-3.5-3.7
				C696.4,258.9,697.2,256.9,699.9,256.9z M699.9,263.3c1,0,2.1-0.7,2.1-2.8c0-1.8-0.8-2.7-2-2.7c-0.8,0-2.2,0.5-2.2,2.7
				C697.7,262,698.4,263.3,699.9,263.3z"/>
			<path class="st5" d="M705.5,258.5c0-0.5,0-1-0.1-1.4h1.3l0,1.4c0.3-1,1.1-1.3,1.7-1.4c0.4-0.1,0.7,0,0.9,0v1.3
				c-0.1,0-0.2,0-0.3-0.1c-0.1,0-0.2,0-0.4,0c-1.6,0-1.9,0.9-1.9,2.1v3.7h-1.3V258.5z"/>
			<path class="st5" d="M595.2,278.8c0,0.5,0.3,1.3,1.5,1.3c0.5,0,1-0.1,1.2-0.4c0.1-0.2,0.2-0.4,0.2-0.7c0-0.7-0.5-0.8-1.5-1.1
				c-1.5-0.3-2.7-0.6-2.7-2.1c0-1.3,1.1-2.1,2.7-2.1c0.9,0,2.1,0.3,2.5,1.1c0.2,0.4,0.2,0.7,0.2,1h-1.3c0-1.1-0.9-1.1-1.4-1.1
				c-0.2,0-1.4,0-1.4,1c0,0.6,0.6,0.8,1,0.9c1.9,0.5,2.4,0.6,2.8,1c0.4,0.4,0.5,0.9,0.5,1.3c0,0.8-0.4,1.5-1,1.8
				c-0.6,0.4-1.4,0.5-2.1,0.5c-1.4,0-2.8-0.6-2.7-2.3H595.2z"/>
			<path class="st5" d="M600.4,273.8h1.2v-1.5l1.3-0.4v1.9h1.6v1h-1.6v4.2c0,0.4,0,0.9,0.9,0.9c0.3,0,0.5,0,0.6-0.1v1
				c-0.2,0-0.6,0.1-1.1,0.1c-1.2,0-1.8-0.4-1.8-1.5v-4.7h-1.2V273.8z"/>
			<path class="st5" d="M606.9,277.6c0,1.5,0.6,2.5,2,2.5c0.9,0,1.5-0.4,1.7-1.5h1.3c0,0.4-0.1,0.9-0.6,1.5c-0.3,0.4-1,0.9-2.4,0.9
				c-2.2,0-3.3-1.4-3.3-3.6c0-1.4,0.3-2.5,1.4-3.3c0.7-0.5,1.5-0.5,1.9-0.5c3.2,0,3.1,2.8,3.1,3.9H606.9z M610.6,276.7
				c0-0.7-0.1-2.1-1.7-2.1c-0.9,0-1.9,0.5-1.9,2.1H610.6z"/>
			<path class="st5" d="M613.9,275c0-0.3,0-0.5,0-1.1h1.3l0,1.2c0.7-1.1,1.8-1.3,2.4-1.3c1.5,0,3,1,3,3.6c0,2.6-1.5,3.8-3.2,3.8
				c-1,0-1.8-0.4-2.2-1.1v3.5h-1.3V275z M617.1,280.2c0.3,0,1-0.1,1.5-0.7c0.5-0.7,0.6-1.7,0.6-2.2c0-1.3-0.4-2.6-1.9-2.6
				c-2.1,0-2.1,2.2-2.1,2.9C615.1,278.4,615.3,280.2,617.1,280.2z"/>
			<path class="st5" d="M621.8,276.7h3.5v1.1h-3.5V276.7z"/>
			<path class="st5" d="M628.5,274.9c0.2-0.3,0.7-1.2,2.3-1.2c0.7,0,1.6,0.2,2.2,0.9c0.3,0.4,0.8,1.1,0.8,2.6c0,1.4-0.3,2.1-0.7,2.6
				c-0.6,0.8-1.5,1.2-2.5,1.2c-0.3,0-1,0-1.6-0.4c-0.4-0.3-0.5-0.5-0.7-0.7l0,1.1h-1.3l0-1.3v-8.9h1.3V274.9z M630.4,274.6
				c-2,0-2,2.4-2,2.8c0,0.5,0,2.7,2,2.7c1.6,0,2-1.6,2-2.7C632.4,276.6,632.3,274.6,630.4,274.6z"/>
			<path class="st5" d="M638.9,280.9l-1,2.6h-1.4l1.1-2.7l-2.9-7h1.5l2.2,5.5l2.2-5.5h1.4L638.9,280.9z"/>
			<path class="st5" d="M642.5,276.7h3.5v1.1h-3.5V276.7z"/>
			<path class="st5" d="M648.5,278.8c0,0.5,0.3,1.3,1.5,1.3c0.5,0,1-0.1,1.2-0.4c0.1-0.2,0.2-0.4,0.2-0.7c0-0.7-0.5-0.8-1.5-1.1
				c-1.5-0.3-2.7-0.6-2.7-2.1c0-1.3,1.1-2.1,2.7-2.1c0.9,0,2.1,0.3,2.5,1.1c0.2,0.4,0.2,0.7,0.2,1h-1.3c0-1.1-0.9-1.1-1.4-1.1
				c-0.2,0-1.4,0-1.4,1c0,0.6,0.6,0.8,1,0.9c1.9,0.5,2.4,0.6,2.8,1c0.4,0.4,0.5,0.9,0.5,1.3c0,0.8-0.4,1.5-1,1.8
				c-0.6,0.4-1.4,0.5-2.1,0.5c-1.4,0-2.8-0.6-2.7-2.3H648.5z"/>
			<path class="st5" d="M653.7,273.8h1.2v-1.5l1.3-0.4v1.9h1.6v1h-1.6v4.2c0,0.4,0,0.9,0.9,0.9c0.3,0,0.5,0,0.6-0.1v1
				c-0.2,0-0.6,0.1-1.1,0.1c-1.2,0-1.8-0.4-1.8-1.5v-4.7h-1.2V273.8z"/>
			<path class="st5" d="M660.2,277.6c0,1.5,0.6,2.5,2,2.5c0.9,0,1.5-0.4,1.7-1.5h1.3c0,0.4-0.1,0.9-0.6,1.5c-0.3,0.4-1,0.9-2.4,0.9
				c-2.2,0-3.3-1.4-3.3-3.6c0-1.4,0.3-2.5,1.4-3.3c0.7-0.5,1.5-0.5,1.9-0.5c3.2,0,3.1,2.8,3.1,3.9H660.2z M664,276.7
				c0-0.7-0.1-2.1-1.7-2.1c-0.9,0-1.9,0.5-1.9,2.1H664z"/>
			<path class="st5" d="M667.2,275c0-0.3,0-0.5,0-1.1h1.3l0,1.2c0.7-1.1,1.8-1.3,2.4-1.3c1.5,0,3,1,3,3.6c0,2.6-1.5,3.8-3.2,3.8
				c-1,0-1.8-0.4-2.2-1.1v3.5h-1.3V275z M670.4,280.2c0.3,0,1-0.1,1.5-0.7c0.5-0.7,0.6-1.7,0.6-2.2c0-1.3-0.4-2.6-1.9-2.6
				c-2.1,0-2.1,2.2-2.1,2.9C668.5,278.4,668.6,280.2,670.4,280.2z"/>
			<path class="st5" d="M594.5,292.1c0-0.5,0-1-0.1-1.4h1.3l0,1.4c0.3-1,1.1-1.3,1.7-1.4c0.4-0.1,0.7,0,0.9,0v1.3
				c-0.1,0-0.2,0-0.3-0.1c-0.1,0-0.2,0-0.4,0c-1.6,0-1.9,0.9-1.9,2.1v3.7h-1.3V292.1z"/>
			<path class="st5" d="M600.7,294.4c0,1.5,0.6,2.5,2,2.5c0.9,0,1.5-0.4,1.7-1.5h1.3c0,0.4-0.1,0.9-0.6,1.5c-0.3,0.4-1,0.9-2.4,0.9
				c-2.2,0-3.3-1.4-3.3-3.6c0-1.4,0.3-2.5,1.4-3.3c0.7-0.5,1.5-0.5,1.9-0.5c3.2,0,3.1,2.8,3.1,3.9H600.7z M604.4,293.5
				c0-0.7-0.1-2.1-1.7-2.1c-0.9,0-1.9,0.5-1.9,2.1H604.4z"/>
			<path class="st5" d="M608.5,295.6c0,0.5,0.3,1.3,1.5,1.3c0.5,0,1-0.1,1.2-0.4c0.1-0.2,0.2-0.4,0.2-0.7c0-0.7-0.5-0.8-1.5-1.1
				c-1.5-0.3-2.7-0.6-2.7-2.1c0-1.3,1.1-2.1,2.7-2.1c0.9,0,2.1,0.3,2.5,1.1c0.2,0.4,0.2,0.7,0.2,1h-1.3c0-1.1-0.9-1.1-1.4-1.1
				c-0.2,0-1.4,0-1.4,1c0,0.6,0.6,0.8,1,0.9c1.9,0.5,2.4,0.6,2.8,1c0.4,0.4,0.5,0.9,0.5,1.3c0,0.8-0.4,1.5-1,1.8
				c-0.6,0.4-1.4,0.5-2.1,0.5c-1.4,0-2.8-0.6-2.7-2.3H608.5z"/>
			<path class="st5" d="M617.8,290.5c2.8,0,3.4,2.2,3.4,3.7c0,2.1-1.2,3.8-3.6,3.8c-2.3,0-3.5-1.6-3.5-3.7
				C614.2,292.5,615,290.5,617.8,290.5z M617.7,296.9c1,0,2.1-0.7,2.1-2.8c0-1.8-0.8-2.7-2-2.7c-0.8,0-2.2,0.5-2.2,2.7
				C615.6,295.6,616.2,296.9,617.7,296.9z"/>
			<path class="st5" d="M624.5,290.6v4.5c0,0.7,0.2,1.6,1.5,1.6c0.7,0,1.3-0.2,1.7-0.8c0.3-0.4,0.3-1,0.3-1.3v-4h1.4v5.7
				c0,0.1,0,0.9,0,1.3h-1.4l0-1.2c-0.3,0.5-0.7,1.3-2.2,1.3c-1.7,0-2.5-1-2.5-2.4v-4.7H624.5z"/>
			<path class="st5" d="M631.9,292.1c0-0.5,0-1-0.1-1.4h1.3l0,1.4c0.3-1,1.1-1.3,1.7-1.4c0.4-0.1,0.7,0,0.9,0v1.3
				c-0.1,0-0.2,0-0.3-0.1c-0.1,0-0.2,0-0.4,0c-1.6,0-1.9,0.9-1.9,2.1v3.7h-1.3V292.1z"/>
			<path class="st5" d="M641.3,292.9c0-0.3-0.1-1.5-1.4-1.5c-1.8,0-1.8,2.1-1.8,2.6c0,1.4,0.3,2.8,1.8,2.8c1.1,0,1.5-0.8,1.5-1.5
				h1.3c-0.1,1.4-1.1,2.5-2.8,2.5c-0.5,0-1.6-0.1-2.3-0.9c-0.4-0.5-0.8-1.2-0.8-2.7c0-2.9,1.8-3.8,3.2-3.8c0.5,0,1.5,0.1,2.2,0.9
				c0.5,0.6,0.6,1.2,0.6,1.6H641.3z"/>
			<path class="st5" d="M645.1,294.4c0,1.5,0.6,2.5,2,2.5c0.9,0,1.5-0.4,1.7-1.5h1.3c0,0.4-0.1,0.9-0.6,1.5c-0.3,0.4-1,0.9-2.4,0.9
				c-2.2,0-3.3-1.4-3.3-3.6c0-1.4,0.3-2.5,1.4-3.3c0.7-0.5,1.5-0.5,1.9-0.5c3.2,0,3.1,2.8,3.1,3.9H645.1z M648.8,293.5
				c0-0.7-0.1-2.1-1.7-2.1c-0.9,0-1.9,0.5-1.9,2.1H648.8z"/>
			<path class="st5" d="M652.8,295.6c0,0.5,0.3,1.3,1.5,1.3c0.5,0,1-0.1,1.2-0.4c0.1-0.2,0.2-0.4,0.2-0.7c0-0.7-0.5-0.8-1.5-1.1
				c-1.5-0.3-2.7-0.6-2.7-2.1c0-1.3,1.1-2.1,2.7-2.1c0.9,0,2.1,0.3,2.5,1.1c0.2,0.4,0.2,0.7,0.2,1h-1.3c0-1.1-0.9-1.1-1.4-1.1
				c-0.2,0-1.4,0-1.4,1c0,0.6,0.6,0.8,1,0.9c1.9,0.5,2.4,0.6,2.8,1c0.4,0.4,0.5,0.9,0.5,1.3c0,0.8-0.4,1.5-1,1.8
				c-0.6,0.4-1.4,0.5-2.1,0.5c-1.4,0-2.8-0.6-2.7-2.3H652.8z"/>
			<path class="st5" d="M666,290.5c2.8,0,3.4,2.2,3.4,3.7c0,2.1-1.2,3.8-3.6,3.8c-2.3,0-3.5-1.6-3.5-3.7
				C662.4,292.5,663.2,290.5,666,290.5z M665.9,296.9c1,0,2.1-0.7,2.1-2.8c0-1.8-0.8-2.7-2-2.7c-0.8,0-2.2,0.5-2.2,2.7
				C663.8,295.6,664.4,296.9,665.9,296.9z"/>
			<path class="st5" d="M671.5,291.5l0-0.8h1.3l0,1.1c0.2-0.3,0.7-1.3,2.3-1.3c0.6,0,2.5,0.2,2.5,2.4v4.8h-1.3v-4.5
				c0-0.5-0.1-0.9-0.4-1.2c-0.3-0.3-0.8-0.5-1.2-0.5c-1,0-1.8,0.7-1.8,2.1v4h-1.3V291.5z"/>
			<path class="st5" d="M683.9,287.6h1.3v4.1c0.4-0.7,1.3-1.2,2.3-1.2c0.7,0,1.8,0.3,2.2,1.1c0.1,0.3,0.2,0.6,0.2,1.6v4.4h-1.3v-4.2
				c0-0.6,0-2-1.5-2c-1,0-1.5,0.6-1.7,0.9c-0.2,0.4-0.2,1.1-0.2,1.5v3.7h-1.3V287.6z"/>
			<path class="st5" d="M695.5,290.5c2.8,0,3.4,2.2,3.4,3.7c0,2.1-1.2,3.8-3.6,3.8c-2.3,0-3.5-1.6-3.5-3.7
				C692,292.5,692.8,290.5,695.5,290.5z M695.5,296.9c1,0,2.1-0.7,2.1-2.8c0-1.8-0.8-2.7-2-2.7c-0.8,0-2.2,0.5-2.2,2.7
				C693.3,295.6,694,296.9,695.5,296.9z"/>
			<path class="st5" d="M701.4,290.6l1.7,5.6l1.8-5.6h1.7l1.6,5.5l1.8-5.5h1.4l-2.5,7h-1.5l-1.7-5.8l-1.8,5.8h-1.6l-2.3-7H701.4z"/>
			<path class="st5" d="M715.5,290.6h1.2v-1.5l1.3-0.4v1.9h1.6v1h-1.6v4.2c0,0.4,0,0.9,0.9,0.9c0.3,0,0.5,0,0.6-0.1v1
				c-0.2,0-0.6,0.1-1.1,0.1c-1.2,0-1.8-0.4-1.8-1.5v-4.7h-1.2V290.6z"/>
			<path class="st5" d="M724.3,290.5c2.8,0,3.4,2.2,3.4,3.7c0,2.1-1.2,3.8-3.6,3.8c-2.3,0-3.5-1.6-3.5-3.7
				C720.7,292.5,721.5,290.5,724.3,290.5z M724.2,296.9c1,0,2.1-0.7,2.1-2.8c0-1.8-0.8-2.7-2-2.7c-0.8,0-2.2,0.5-2.2,2.7
				C722.1,295.6,722.7,296.9,724.2,296.9z"/>
			<path class="st5" d="M595.7,307.4v4.5c0,0.7,0.2,1.6,1.5,1.6c0.7,0,1.3-0.2,1.7-0.8c0.3-0.4,0.3-1,0.3-1.3v-4h1.4v5.7
				c0,0.1,0,0.9,0,1.3h-1.4l0-1.2c-0.3,0.5-0.7,1.3-2.2,1.3c-1.7,0-2.5-1-2.5-2.4v-4.7H595.7z"/>
			<path class="st5" d="M603.8,312.4c0,0.5,0.3,1.3,1.5,1.3c0.5,0,1-0.1,1.2-0.4c0.1-0.2,0.2-0.4,0.2-0.7c0-0.7-0.5-0.8-1.5-1.1
				c-1.5-0.3-2.7-0.6-2.7-2.1c0-1.3,1.1-2.1,2.7-2.1c0.9,0,2.1,0.3,2.5,1.1c0.2,0.4,0.2,0.7,0.2,1h-1.3c0-1.1-0.9-1.1-1.4-1.1
				c-0.2,0-1.4,0-1.4,1c0,0.6,0.6,0.8,1,0.9c1.9,0.5,2.4,0.6,2.8,1c0.4,0.4,0.5,0.9,0.5,1.3c0,0.8-0.4,1.5-1,1.8
				c-0.6,0.4-1.4,0.5-2.1,0.5c-1.4,0-2.8-0.6-2.7-2.3H603.8z"/>
			<path class="st5" d="M610.8,311.2c0,1.5,0.6,2.5,2,2.5c0.9,0,1.5-0.4,1.7-1.5h1.3c0,0.3-0.1,0.9-0.6,1.5c-0.3,0.3-1,0.9-2.4,0.9
				c-2.2,0-3.3-1.4-3.3-3.6c0-1.4,0.3-2.5,1.4-3.3c0.7-0.5,1.5-0.5,1.9-0.5c3.2,0,3.1,2.8,3.1,3.9H610.8z M614.5,310.3
				c0-0.7-0.1-2.1-1.7-2.1c-0.9,0-1.9,0.5-1.9,2.1H614.5z"/>
			<path class="st5" d="M620.6,307.4h1.2v-1.5l1.3-0.4v1.9h1.6v1h-1.6v4.2c0,0.3,0,0.9,0.9,0.9c0.3,0,0.5,0,0.6-0.1v1
				c-0.2,0-0.6,0.1-1.1,0.1c-1.2,0-1.8-0.3-1.8-1.5v-4.7h-1.2V307.4z"/>
			<path class="st5" d="M626.4,304.4h1.3v4.1c0.4-0.7,1.3-1.2,2.3-1.2c0.7,0,1.8,0.3,2.2,1.1c0.1,0.3,0.2,0.6,0.2,1.6v4.4h-1.3v-4.2
				c0-0.6,0-2-1.5-2c-1,0-1.5,0.6-1.7,0.9c-0.2,0.4-0.2,1.1-0.2,1.5v3.7h-1.3V304.4z"/>
			<path class="st5" d="M635.7,311.2c0,1.5,0.6,2.5,2,2.5c0.9,0,1.5-0.4,1.7-1.5h1.3c0,0.3-0.1,0.9-0.6,1.5c-0.3,0.3-1,0.9-2.4,0.9
				c-2.2,0-3.3-1.4-3.3-3.6c0-1.4,0.3-2.5,1.4-3.3c0.7-0.5,1.5-0.5,1.9-0.5c3.2,0,3.1,2.8,3.1,3.9H635.7z M639.4,310.3
				c0-0.7-0.1-2.1-1.7-2.1c-0.9,0-1.9,0.5-1.9,2.1H639.4z"/>
			<path class="st5" d="M645.5,307.4h1.2v-1.5l1.3-0.4v1.9h1.6v1h-1.6v4.2c0,0.3,0,0.9,0.9,0.9c0.3,0,0.5,0,0.6-0.1v1
				c-0.2,0-0.6,0.1-1.1,0.1c-1.2,0-1.8-0.3-1.8-1.5v-4.7h-1.2V307.4z"/>
			<path class="st5" d="M652.1,311.2c0,1.5,0.6,2.5,2,2.5c0.9,0,1.5-0.4,1.7-1.5h1.3c0,0.3-0.1,0.9-0.6,1.5c-0.3,0.3-1,0.9-2.4,0.9
				c-2.2,0-3.3-1.4-3.3-3.6c0-1.4,0.3-2.5,1.4-3.3c0.7-0.5,1.5-0.5,1.9-0.5c3.2,0,3.1,2.8,3.1,3.9H652.1z M655.8,310.3
				c0-0.7-0.1-2.1-1.7-2.1c-0.9,0-1.9,0.5-1.9,2.1H655.8z"/>
			<path class="st5" d="M659,308.4l0-0.9h1.3v1c0.7-1.1,1.6-1.2,2.2-1.2c1.6,0,2,0.8,2.3,1.3c0.2-0.4,0.8-1.3,2.4-1.3
				c1,0,2.6,0.4,2.6,2.5v4.7h-1.3V310c0-0.6-0.1-0.9-0.2-1.1c-0.2-0.3-0.7-0.6-1.3-0.6c-0.9,0-1.3,0.5-1.5,0.7
				c-0.3,0.4-0.3,1.2-0.3,1.5v3.9h-1.3v-4.7c0-0.9-0.5-1.5-1.5-1.5c-0.9,0-1.4,0.6-1.5,0.8c-0.3,0.4-0.3,1-0.3,1.4v4H659V308.4z"/>
			<path class="st5" d="M672.2,308.6c0-0.3,0-0.5,0-1.1h1.3l0,1.2c0.7-1.1,1.8-1.3,2.4-1.3c1.5,0,3,1,3,3.6c0,2.6-1.5,3.8-3.2,3.8
				c-1,0-1.8-0.4-2.2-1v3.5h-1.3V308.6z M675.5,313.8c0.3,0,1-0.1,1.5-0.7c0.5-0.7,0.6-1.7,0.6-2.2c0-1.3-0.4-2.6-1.9-2.6
				c-2.1,0-2.1,2.2-2.1,2.9C673.5,312,673.6,313.8,675.5,313.8z"/>
			<path class="st5" d="M680.8,304.4h1.3v10.1h-1.3V304.4z"/>
			<path class="st5" d="M689,314.5c-0.1-0.4-0.1-0.7-0.1-1.1c-0.6,1.2-1.6,1.3-2.2,1.3c-1.6,0-2.5-0.9-2.5-2.1
				c0-0.6,0.2-1.5,1.2-2.1c0.8-0.4,1.9-0.5,2.4-0.5c0.3,0,0.5,0,1,0c0-0.9,0-1.2-0.3-1.6c-0.3-0.3-0.8-0.5-1.2-0.5
				c-1.3,0-1.4,0.9-1.4,1.2h-1.3c0-0.4,0.1-0.9,0.5-1.3c0.5-0.6,1.5-0.8,2.3-0.8c1,0,2.1,0.3,2.5,1c0.2,0.4,0.2,0.8,0.2,1.1
				l-0.1,3.4c0,0.1,0,1.1,0.1,1.8H689z M688.1,311c-0.5,0-2.5,0-2.5,1.4c0,0.4,0.3,1.2,1.5,1.2c0.7,0,1.2-0.3,1.5-0.8
				c0.3-0.5,0.3-0.9,0.3-1.8C688.6,311,688.4,311,688.1,311z"/>
			<path class="st5" d="M691.4,307.4h1.2v-1.5l1.3-0.4v1.9h1.6v1H694v4.2c0,0.3,0,0.9,0.9,0.9c0.3,0,0.5,0,0.6-0.1v1
				c-0.2,0-0.6,0.1-1.1,0.1c-1.2,0-1.8-0.3-1.8-1.5v-4.7h-1.2V307.4z"/>
			<path class="st5" d="M697.9,311.2c0,1.5,0.6,2.5,2,2.5c0.9,0,1.5-0.4,1.7-1.5h1.3c0,0.3-0.1,0.9-0.6,1.5c-0.3,0.3-1,0.9-2.4,0.9
				c-2.2,0-3.3-1.4-3.3-3.6c0-1.4,0.3-2.5,1.4-3.3c0.7-0.5,1.5-0.5,1.9-0.5c3.2,0,3.1,2.8,3.1,3.9H697.9z M701.7,310.3
				c0-0.7-0.1-2.1-1.7-2.1c-0.9,0-1.9,0.5-1.9,2.1H701.7z"/>
			<path class="st5" d="M706.9,312.8l-1.6,3.4h-1l0.9-3.4H706.9z"/>
			<path class="st5" d="M594.3,321.2h1.6v1.4h-1.6V321.2z M594.5,324.2h1.3v7h-1.3V324.2z"/>
			<path class="st5" d="M598.4,325.1l0-0.8h1.3l0,1.1c0.2-0.3,0.7-1.3,2.3-1.3c0.6,0,2.5,0.2,2.5,2.4v4.8h-1.3v-4.5
				c0-0.5-0.1-0.9-0.4-1.2c-0.3-0.3-0.8-0.5-1.2-0.5c-1,0-1.8,0.7-1.8,2.1v4h-1.3V325.1z"/>
			<path class="st5" d="M610.9,326.5c0-0.3-0.1-1.5-1.4-1.5c-1.8,0-1.8,2.1-1.8,2.6c0,1.4,0.4,2.8,1.8,2.8c1.1,0,1.5-0.8,1.5-1.5
				h1.3c-0.1,1.4-1.1,2.5-2.8,2.5c-0.5,0-1.6-0.1-2.3-0.9c-0.4-0.5-0.8-1.2-0.8-2.7c0-2.9,1.8-3.8,3.2-3.8c0.5,0,1.5,0.1,2.2,0.9
				c0.5,0.6,0.6,1.2,0.6,1.6H610.9z"/>
			<path class="st5" d="M613.9,321.2h1.3v10.1h-1.3V321.2z"/>
			<path class="st5" d="M619,324.2v4.5c0,0.7,0.2,1.6,1.5,1.6c0.7,0,1.3-0.2,1.7-0.8c0.3-0.4,0.3-1,0.3-1.3v-4h1.4v5.7
				c0,0.1,0,0.9,0,1.3h-1.4l0-1.2c-0.3,0.5-0.7,1.3-2.2,1.3c-1.7,0-2.5-1-2.5-2.4v-4.7H619z"/>
			<path class="st5" d="M631.2,321.2h1.3v9c0,0.2,0,0.8,0.1,1.1h-1.3l0-1.1c-0.1,0.2-0.3,0.5-0.6,0.7c-0.6,0.4-1.3,0.5-1.7,0.5
				c-0.9,0-3-0.5-3-3.6c0-2.7,1.5-3.8,3.2-3.8c1.5,0,2,0.9,2.2,1.2V321.2z M630.7,325.7c-0.3-0.4-0.8-0.7-1.5-0.7
				c-1.9,0-1.9,2.3-1.9,2.8c0,1.2,0.3,2.7,1.9,2.7c2.1,0,2.1-2.3,2.1-2.8C631.3,326.6,631,326.1,630.7,325.7z"/>
			<path class="st5" d="M634.8,321.2h1.6v1.4h-1.6V321.2z M634.9,324.2h1.3v7h-1.3V324.2z"/>
			<path class="st5" d="M638.9,325.1l0-0.8h1.3l0,1.1c0.2-0.3,0.7-1.3,2.3-1.3c0.6,0,2.5,0.2,2.5,2.4v4.8h-1.3v-4.5
				c0-0.5-0.1-0.9-0.4-1.2c-0.3-0.3-0.8-0.5-1.2-0.5c-1,0-1.8,0.7-1.8,2.1v4h-1.3V325.1z"/>
			<path class="st5" d="M648.6,331.8c0.1,0.8,0.4,1.4,1.6,1.4c1.8,0,1.9-1.3,1.9-3.2c-0.6,1.2-1.9,1.2-2.3,1.2
				c-0.6,0-1.6-0.1-2.2-0.9c-0.6-0.7-0.8-1.7-0.8-2.6c0-2.4,1.4-3.5,3.1-3.5c1.4,0,1.9,0.7,2.2,1.1l0-1h1.3l0,1.3l0,4.4
				c0,1.7-0.1,2.4-0.3,2.9c-0.6,1.1-2,1.3-2.9,1.3c-2.8,0-2.9-1.3-3-2.3H648.6z M651.7,329.5c0.3-0.4,0.5-0.7,0.5-2
				c0-0.9-0.2-1.4-0.5-1.8c-0.4-0.4-0.9-0.6-1.5-0.6c-1.7,0-1.9,1.7-1.9,2.6c0,1.1,0.3,2.5,1.9,2.5
				C650.9,330.2,651.4,329.9,651.7,329.5z"/>
			<path class="st5" d="M658.7,324.2h1.5l2.2,5.6l2.2-5.6h1.5l-3.1,7h-1.3L658.7,324.2z"/>
			<path class="st5" d="M667.5,321.2h1.6v1.4h-1.6V321.2z M667.6,324.2h1.3v7h-1.3V324.2z"/>
			<path class="st5" d="M676.4,321.2h1.3v9c0,0.2,0,0.8,0.1,1.1h-1.3l0-1.1c-0.1,0.2-0.3,0.5-0.6,0.7c-0.6,0.4-1.3,0.5-1.7,0.5
				c-0.9,0-3-0.5-3-3.6c0-2.7,1.5-3.8,3.2-3.8c1.5,0,2,0.9,2.2,1.2V321.2z M675.9,325.7c-0.3-0.4-0.8-0.7-1.5-0.7
				c-1.9,0-1.9,2.3-1.9,2.8c0,1.2,0.3,2.7,1.9,2.7c2.1,0,2.1-2.3,2.1-2.8C676.4,326.6,676.2,326.1,675.9,325.7z"/>
			<path class="st5" d="M680.8,328c0,1.5,0.6,2.5,2,2.5c0.9,0,1.5-0.4,1.7-1.5h1.3c0,0.4-0.1,0.9-0.6,1.5c-0.3,0.4-1,0.9-2.4,0.9
				c-2.2,0-3.3-1.4-3.3-3.6c0-1.4,0.3-2.5,1.4-3.3c0.7-0.5,1.5-0.5,1.9-0.5c3.2,0,3.1,2.8,3.1,3.9H680.8z M684.6,327.1
				c0-0.7-0.1-2.1-1.7-2.1c-0.9,0-1.9,0.5-1.9,2.1H684.6z"/>
			<path class="st5" d="M690.9,324.1c2.8,0,3.4,2.2,3.4,3.7c0,2.1-1.2,3.8-3.6,3.8c-2.3,0-3.5-1.6-3.5-3.7
				C687.3,326.1,688.1,324.1,690.9,324.1z M690.8,330.5c1,0,2.1-0.7,2.1-2.8c0-1.8-0.8-2.7-2-2.7c-0.8,0-2.2,0.5-2.2,2.7
				C688.7,329.2,689.3,330.5,690.8,330.5z"/>
			<path class="st5" d="M704.6,331.3c-0.1-0.3-0.1-0.7-0.1-1.1c-0.6,1.2-1.6,1.3-2.2,1.3c-1.6,0-2.5-0.9-2.5-2.1
				c0-0.6,0.2-1.5,1.2-2.1c0.8-0.4,1.9-0.5,2.4-0.5c0.3,0,0.5,0,1,0c0-0.9,0-1.2-0.3-1.6c-0.3-0.4-0.8-0.5-1.2-0.5
				c-1.3,0-1.4,0.9-1.4,1.2h-1.3c0-0.4,0.1-0.9,0.5-1.3c0.5-0.6,1.5-0.8,2.3-0.8c1,0,2.1,0.3,2.5,1c0.2,0.4,0.2,0.8,0.2,1.1
				l-0.1,3.4c0,0.1,0,1.1,0.1,1.8H704.6z M703.6,327.8c-0.5,0-2.5,0-2.5,1.4c0,0.4,0.3,1.2,1.5,1.2c0.7,0,1.2-0.3,1.5-0.8
				c0.3-0.5,0.3-0.9,0.3-1.8C704.2,327.8,704,327.8,703.6,327.8z"/>
			<path class="st5" d="M708.1,325.1l0-0.8h1.3l0,1.1c0.2-0.3,0.7-1.3,2.3-1.3c0.6,0,2.5,0.2,2.5,2.4v4.8h-1.3v-4.5
				c0-0.5-0.1-0.9-0.4-1.2c-0.3-0.3-0.8-0.5-1.2-0.5c-1,0-1.8,0.7-1.8,2.1v4h-1.3V325.1z"/>
			<path class="st5" d="M721.5,321.2h1.3v9c0,0.2,0,0.8,0.1,1.1h-1.3l0-1.1c-0.1,0.2-0.3,0.5-0.6,0.7c-0.6,0.4-1.3,0.5-1.7,0.5
				c-0.9,0-3-0.5-3-3.6c0-2.7,1.5-3.8,3.2-3.8c1.5,0,2,0.9,2.2,1.2V321.2z M721,325.7c-0.3-0.4-0.8-0.7-1.5-0.7
				c-1.9,0-1.9,2.3-1.9,2.8c0,1.2,0.3,2.7,1.9,2.7c2.1,0,2.1-2.3,2.1-2.8C721.5,326.6,721.3,326.1,721,325.7z"/>
			<path class="st5" d="M594.9,341l1.7,5.6l1.8-5.6h1.7l1.6,5.5l1.8-5.5h1.4l-2.5,7h-1.5l-1.7-5.8l-1.8,5.8h-1.6l-2.3-7H594.9z"/>
			<path class="st5" d="M606.2,342.5c0-0.5,0-1-0.1-1.4h1.3l0,1.4c0.3-1,1.1-1.3,1.7-1.4c0.4-0.1,0.7,0,0.9,0v1.3
				c-0.1,0-0.2,0-0.3-0.1c-0.1,0-0.2,0-0.4,0c-1.6,0-1.9,0.9-1.9,2.1v3.7h-1.3V342.5z"/>
			<path class="st5" d="M611.5,338h1.6v1.4h-1.6V338z M611.6,341h1.3v7h-1.3V341z"/>
			<path class="st5" d="M614.4,341h1.2v-1.5l1.3-0.4v1.9h1.6v1h-1.6v4.2c0,0.4,0,0.9,0.9,0.9c0.3,0,0.5,0,0.6-0.1v1
				c-0.2,0-0.6,0.1-1.1,0.1c-1.2,0-1.8-0.4-1.8-1.5V342h-1.2V341z"/>
			<path class="st5" d="M618.7,341h1.2v-1.5l1.3-0.4v1.9h1.6v1h-1.6v4.2c0,0.4,0,0.9,0.9,0.9c0.3,0,0.5,0,0.6-0.1v1
				c-0.2,0-0.6,0.1-1.1,0.1c-1.2,0-1.8-0.4-1.8-1.5V342h-1.2V341z"/>
			<path class="st5" d="M625.2,344.8c0,1.5,0.6,2.5,2,2.5c0.9,0,1.5-0.4,1.7-1.5h1.3c0,0.4-0.1,0.9-0.6,1.5c-0.3,0.4-1,0.9-2.4,0.9
				c-2.2,0-3.3-1.4-3.3-3.6c0-1.4,0.3-2.5,1.4-3.3c0.7-0.5,1.5-0.5,1.9-0.5c3.2,0,3.1,2.8,3.1,3.9H625.2z M629,343.9
				c0-0.7-0.1-2.1-1.7-2.1c-0.9,0-1.9,0.5-1.9,2.1H629z"/>
			<path class="st5" d="M632.3,341.9l0-0.8h1.3l0,1.1c0.2-0.3,0.7-1.3,2.3-1.3c0.6,0,2.5,0.2,2.5,2.4v4.8h-1.3v-4.5
				c0-0.5-0.1-0.9-0.4-1.2c-0.3-0.3-0.8-0.5-1.2-0.5c-1,0-1.8,0.7-1.8,2.1v4h-1.3V341.9z"/>
			<path class="st5" d="M644.6,338h1.6v1.4h-1.6V338z M644.7,341h1.3v7h-1.3V341z"/>
			<path class="st5" d="M648.6,341.9l0-0.8h1.3l0,1.1c0.2-0.3,0.7-1.3,2.3-1.3c0.6,0,2.5,0.2,2.5,2.4v4.8h-1.3v-4.5
				c0-0.5-0.1-0.9-0.4-1.2c-0.3-0.3-0.8-0.5-1.2-0.5c-1,0-1.8,0.7-1.8,2.1v4h-1.3V341.9z"/>
			<path class="st5" d="M657.9,346c0,0.5,0.3,1.3,1.5,1.3c0.5,0,1-0.1,1.2-0.4c0.1-0.2,0.2-0.4,0.2-0.7c0-0.7-0.5-0.8-1.5-1.1
				c-1.5-0.3-2.7-0.6-2.7-2.1c0-1.3,1.1-2.1,2.7-2.1c0.9,0,2.1,0.3,2.5,1.1c0.2,0.4,0.2,0.7,0.2,1h-1.3c0-1.1-0.9-1.1-1.4-1.1
				c-0.2,0-1.4,0-1.4,1c0,0.6,0.6,0.8,1,0.9c1.9,0.5,2.4,0.6,2.8,1c0.4,0.4,0.5,0.9,0.5,1.3c0,0.8-0.4,1.5-1,1.8
				c-0.6,0.4-1.4,0.5-2.1,0.5c-1.4,0-2.8-0.6-2.7-2.3H657.9z"/>
			<path class="st5" d="M663,341h1.2v-1.5l1.3-0.4v1.9h1.6v1h-1.6v4.2c0,0.4,0,0.9,0.9,0.9c0.3,0,0.5,0,0.6-0.1v1
				c-0.2,0-0.6,0.1-1.1,0.1c-1.2,0-1.8-0.4-1.8-1.5V342H663V341z"/>
			<path class="st5" d="M668.9,342.5c0-0.5,0-1-0.1-1.4h1.3l0,1.4c0.3-1,1.1-1.3,1.7-1.4c0.4-0.1,0.7,0,0.9,0v1.3
				c-0.1,0-0.2,0-0.3-0.1c-0.1,0-0.2,0-0.4,0c-1.6,0-1.9,0.9-1.9,2.1v3.7h-1.3V342.5z"/>
			<path class="st5" d="M675.4,341v4.5c0,0.7,0.2,1.6,1.5,1.6c0.7,0,1.3-0.2,1.7-0.8c0.3-0.4,0.3-1,0.3-1.3v-4h1.4v5.7
				c0,0.1,0,0.9,0,1.3h-1.4l0-1.2c-0.3,0.5-0.7,1.3-2.2,1.3c-1.7,0-2.5-1-2.5-2.4V341H675.4z"/>
			<path class="st5" d="M686.8,343.3c0-0.3-0.1-1.5-1.4-1.5c-1.8,0-1.8,2.1-1.8,2.6c0,1.4,0.4,2.8,1.8,2.8c1.1,0,1.5-0.8,1.5-1.5
				h1.3c-0.1,1.4-1.1,2.5-2.8,2.5c-0.5,0-1.6-0.1-2.3-0.9c-0.4-0.5-0.8-1.2-0.8-2.7c0-2.9,1.8-3.8,3.2-3.8c0.5,0,1.5,0.1,2.2,0.9
				c0.5,0.6,0.6,1.2,0.6,1.6H686.8z"/>
			<path class="st5" d="M688.7,341h1.2v-1.5l1.3-0.4v1.9h1.6v1h-1.6v4.2c0,0.4,0,0.9,0.9,0.9c0.3,0,0.5,0,0.6-0.1v1
				c-0.2,0-0.6,0.1-1.1,0.1c-1.2,0-1.8-0.4-1.8-1.5V342h-1.2V341z"/>
			<path class="st5" d="M694.3,338h1.6v1.4h-1.6V338z M694.5,341h1.3v7h-1.3V341z"/>
			<path class="st5" d="M701.4,340.9c2.8,0,3.4,2.2,3.4,3.7c0,2.1-1.2,3.8-3.6,3.8c-2.3,0-3.5-1.6-3.5-3.7
				C697.8,342.9,698.6,340.9,701.4,340.9z M701.3,347.3c1,0,2.1-0.7,2.1-2.8c0-1.8-0.8-2.7-2-2.7c-0.8,0-2.2,0.5-2.2,2.7
				C699.2,346,699.8,347.3,701.3,347.3z"/>
			<path class="st5" d="M706.9,341.9l0-0.8h1.3l0,1.1c0.2-0.3,0.7-1.3,2.3-1.3c0.6,0,2.5,0.2,2.5,2.4v4.8h-1.3v-4.5
				c0-0.5-0.1-0.9-0.4-1.2c-0.3-0.3-0.8-0.5-1.2-0.5c-1,0-1.8,0.7-1.8,2.1v4h-1.3V341.9z"/>
			<path class="st5" d="M716.2,346c0,0.5,0.3,1.3,1.5,1.3c0.5,0,1-0.1,1.2-0.4c0.1-0.2,0.2-0.4,0.2-0.7c0-0.7-0.5-0.8-1.5-1.1
				c-1.5-0.3-2.7-0.6-2.7-2.1c0-1.3,1.1-2.1,2.7-2.1c0.9,0,2.1,0.3,2.5,1.1c0.2,0.4,0.2,0.7,0.2,1h-1.3c0-1.1-0.9-1.1-1.4-1.1
				c-0.2,0-1.4,0-1.4,1c0,0.6,0.6,0.8,1,0.9c1.9,0.5,2.4,0.6,2.8,1c0.4,0.4,0.5,0.9,0.5,1.3c0,0.8-0.4,1.5-1,1.8
				c-0.6,0.4-1.4,0.5-2.1,0.5c-1.4,0-2.8-0.6-2.7-2.3H716.2z"/>
			<path class="st5" d="M722.3,346.4h1.6v1.7h-1.6V346.4z"/>
		</g>
	</g>
	<g>
		<rect x="416.9" y="431.2" class="st0" width="38.6" height="38.6"/>
		<rect x="455.2" y="421" class="st1" width="216" height="97"/>
		<text transform="matrix(1 0 0 1 424.0748 463.5228)" class="st2 st3 st4">4</text>
		<g>
			<path class="st5" d="M482.2,459v4.3h4.8V459h1.4v10.1H487v-4.6h-4.8v4.6h-1.4V459H482.2z"/>
			<path class="st5" d="M495.1,469.1c-0.1-0.3-0.1-0.7-0.1-1.1c-0.6,1.2-1.6,1.3-2.2,1.3c-1.6,0-2.5-0.9-2.5-2.1
				c0-0.6,0.2-1.5,1.2-2.1c0.8-0.4,1.9-0.5,2.4-0.5c0.3,0,0.5,0,1,0c0-0.9,0-1.2-0.3-1.6c-0.3-0.4-0.8-0.5-1.2-0.5
				c-1.3,0-1.4,0.9-1.4,1.2h-1.3c0-0.4,0.1-0.9,0.5-1.3c0.5-0.6,1.5-0.8,2.3-0.8c1,0,2.1,0.3,2.5,1c0.2,0.4,0.2,0.8,0.2,1.1
				l-0.1,3.4c0,0.1,0,1.1,0.1,1.8H495.1z M494.2,465.7c-0.5,0-2.5,0-2.5,1.4c0,0.4,0.3,1.2,1.5,1.2c0.7,0,1.2-0.3,1.5-0.8
				c0.3-0.5,0.3-0.9,0.3-1.8C494.8,465.7,494.6,465.7,494.2,465.7z"/>
			<path class="st5" d="M497.6,462.1h1.5l2.2,5.6l2.2-5.6h1.5l-3.1,7h-1.3L497.6,462.1z"/>
			<path class="st5" d="M507.2,465.9c0,1.5,0.6,2.5,2,2.5c0.9,0,1.5-0.4,1.7-1.5h1.3c0,0.4-0.1,0.9-0.6,1.5c-0.3,0.4-1,0.9-2.4,0.9
				c-2.2,0-3.3-1.4-3.3-3.6c0-1.4,0.3-2.5,1.4-3.3c0.7-0.5,1.5-0.5,1.9-0.5c3.2,0,3.1,2.8,3.1,3.9H507.2z M510.9,464.9
				c0-0.7-0.1-2.1-1.7-2.1c-0.9,0-1.9,0.5-1.9,2.1H510.9z"/>
			<path class="st5" d="M521.6,460c-0.2,0-0.5,0-0.8,0c-1.1,0-1.1,0.5-1.1,1v1.1h1.6v1h-1.6v6.1h-1.3v-6.1h-1.4v-1h1.4v-0.8
				c0-1,0.1-1.3,0.3-1.7c0.3-0.4,0.9-0.8,1.8-0.8c0.4,0,0.8,0.1,1.1,0.1V460z"/>
			<path class="st5" d="M524,462.1v4.5c0,0.7,0.2,1.6,1.5,1.6c0.7,0,1.3-0.2,1.7-0.8c0.3-0.4,0.3-1,0.3-1.3v-4h1.4v5.7
				c0,0.1,0,0.9,0,1.3h-1.4l0-1.2c-0.3,0.5-0.7,1.3-2.2,1.3c-1.7,0-2.5-1-2.5-2.4v-4.7H524z"/>
			<path class="st5" d="M531.4,462.9l0-0.8h1.3l0,1.1c0.2-0.3,0.7-1.3,2.3-1.3c0.6,0,2.5,0.2,2.5,2.4v4.8h-1.3v-4.5
				c0-0.5-0.1-0.9-0.4-1.2c-0.3-0.3-0.8-0.5-1.2-0.5c-1,0-1.8,0.7-1.8,2.1v4h-1.3V462.9z"/>
			<path class="st5" d="M548.1,469.1c-0.1-0.3-0.1-0.7-0.1-1.1c-0.6,1.2-1.6,1.3-2.2,1.3c-1.6,0-2.5-0.9-2.5-2.1
				c0-0.6,0.2-1.5,1.2-2.1c0.8-0.4,1.9-0.5,2.4-0.5c0.3,0,0.5,0,1,0c0-0.9,0-1.2-0.3-1.6c-0.3-0.4-0.8-0.5-1.2-0.5
				c-1.3,0-1.4,0.9-1.4,1.2h-1.3c0-0.4,0.1-0.9,0.5-1.3c0.5-0.6,1.5-0.8,2.3-0.8c1,0,2.1,0.3,2.5,1c0.2,0.4,0.2,0.8,0.2,1.1
				l-0.1,3.4c0,0.1,0,1.1,0.1,1.8H548.1z M547.1,465.7c-0.5,0-2.5,0-2.5,1.4c0,0.4,0.3,1.2,1.5,1.2c0.7,0,1.2-0.3,1.5-0.8
				c0.3-0.5,0.3-0.9,0.3-1.8C547.7,465.7,547.5,465.7,547.1,465.7z"/>
			<path class="st5" d="M551.6,462.9l0-0.8h1.3l0,1.1c0.2-0.3,0.7-1.3,2.3-1.3c0.6,0,2.5,0.2,2.5,2.4v4.8h-1.3v-4.5
				c0-0.5-0.1-0.9-0.4-1.2c-0.3-0.3-0.8-0.5-1.2-0.5c-1,0-1.8,0.7-1.8,2.1v4h-1.3V462.9z"/>
			<path class="st5" d="M565,459h1.3v9c0,0.2,0,0.8,0.1,1.1H565l0-1.1c-0.1,0.2-0.3,0.5-0.6,0.7c-0.6,0.4-1.3,0.5-1.7,0.5
				c-0.9,0-3-0.5-3-3.6c0-2.7,1.5-3.8,3.2-3.8c1.5,0,2,0.9,2.2,1.2V459z M564.5,463.6c-0.3-0.4-0.8-0.7-1.5-0.7
				c-1.9,0-1.9,2.3-1.9,2.8c0,1.2,0.3,2.7,1.9,2.7c2.1,0,2.1-2.3,2.1-2.8C565,464.5,564.8,463.9,564.5,463.6z"/>
			<path class="st5" d="M573.3,465.9c0,1.5,0.6,2.5,2,2.5c0.9,0,1.5-0.4,1.7-1.5h1.3c0,0.4-0.1,0.9-0.6,1.5c-0.3,0.4-1,0.9-2.4,0.9
				c-2.2,0-3.3-1.4-3.3-3.6c0-1.4,0.3-2.5,1.4-3.3c0.7-0.5,1.5-0.5,1.9-0.5c3.2,0,3.1,2.8,3.1,3.9H573.3z M577.1,464.9
				c0-0.7-0.1-2.1-1.7-2.1c-0.9,0-1.9,0.5-1.9,2.1H577.1z"/>
			<path class="st5" d="M580.4,462.9l0-0.8h1.3l0,1.1c0.2-0.3,0.7-1.3,2.3-1.3c0.6,0,2.5,0.2,2.5,2.4v4.8h-1.3v-4.5
				c0-0.5-0.1-0.9-0.4-1.2c-0.3-0.3-0.8-0.5-1.2-0.5c-1,0-1.8,0.7-1.8,2.1v4h-1.3V462.9z"/>
			<path class="st5" d="M587.6,470.9c1,0,1.3-0.1,1.3-1.3v-7.5h1.3v7.7c0,0.7,0,2.1-1.8,2.1c-0.2,0-0.4,0-0.8-0.1V470.9z
				 M588.8,459.1h1.6v1.5h-1.6V459.1z"/>
			<path class="st5" d="M595.8,461.9c2.8,0,3.4,2.2,3.4,3.7c0,2.1-1.2,3.8-3.6,3.8c-2.3,0-3.5-1.6-3.5-3.7
				C592.3,464,593.1,461.9,595.8,461.9z M595.8,468.4c1,0,2.1-0.7,2.1-2.8c0-1.8-0.8-2.7-2-2.7c-0.8,0-2.2,0.5-2.2,2.7
				C593.6,467.1,594.3,468.4,595.8,468.4z"/>
			<path class="st5" d="M604.5,469.2l-1,2.6h-1.4l1.1-2.7l-2.9-7h1.5l2.2,5.5l2.2-5.5h1.4L604.5,469.2z"/>
			<path class="st5" d="M484.8,481.2c0-0.3-0.1-1.5-1.4-1.5c-1.8,0-1.8,2.1-1.8,2.6c0,1.4,0.3,2.8,1.8,2.8c1.1,0,1.5-0.8,1.5-1.5
				h1.3c-0.1,1.4-1.1,2.5-2.8,2.5c-0.5,0-1.6-0.1-2.3-0.9c-0.4-0.5-0.8-1.2-0.8-2.7c0-2.9,1.8-3.8,3.2-3.8c0.5,0,1.5,0.1,2.2,0.9
				c0.5,0.6,0.6,1.2,0.6,1.6H484.8z"/>
			<path class="st5" d="M489,478.9v4.5c0,0.7,0.2,1.6,1.5,1.6c0.7,0,1.3-0.2,1.7-0.8c0.3-0.4,0.3-1,0.3-1.3v-4h1.4v5.7
				c0,0.1,0,0.9,0,1.3h-1.4l0-1.2c-0.3,0.5-0.7,1.3-2.2,1.3c-1.7,0-2.5-1-2.5-2.4v-4.7H489z"/>
			<path class="st5" d="M497.1,483.9c0,0.5,0.3,1.3,1.5,1.3c0.5,0,1-0.1,1.2-0.4c0.1-0.2,0.2-0.4,0.2-0.7c0-0.7-0.5-0.8-1.5-1.1
				c-1.5-0.3-2.7-0.6-2.7-2.1c0-1.3,1.1-2.1,2.7-2.1c0.9,0,2.1,0.3,2.5,1.1c0.2,0.4,0.2,0.7,0.2,1h-1.3c0-1.1-0.9-1.1-1.4-1.1
				c-0.2,0-1.4,0-1.4,1c0,0.6,0.6,0.8,1,0.9c1.9,0.5,2.4,0.6,2.8,1c0.4,0.4,0.5,0.9,0.5,1.3c0,0.8-0.4,1.5-1,1.8
				c-0.6,0.4-1.4,0.5-2.1,0.5c-1.4,0-2.8-0.6-2.7-2.3H497.1z"/>
			<path class="st5" d="M502.2,478.9h1.2v-1.5l1.3-0.4v1.9h1.6v1h-1.6v4.2c0,0.3,0,0.9,0.9,0.9c0.3,0,0.5,0,0.6-0.1v1
				c-0.2,0-0.6,0.1-1.1,0.1c-1.2,0-1.8-0.3-1.8-1.5v-4.7h-1.2V478.9z"/>
			<path class="st5" d="M511,478.7c2.8,0,3.4,2.2,3.4,3.7c0,2.1-1.2,3.8-3.6,3.8c-2.3,0-3.5-1.6-3.5-3.7
				C507.5,480.8,508.3,478.7,511,478.7z M510.9,485.2c1,0,2.1-0.7,2.1-2.8c0-1.8-0.8-2.7-2-2.7c-0.8,0-2.2,0.5-2.2,2.7
				C508.8,483.9,509.4,485.2,510.9,485.2z"/>
			<path class="st5" d="M516.5,479.8l0-0.9h1.3v1c0.7-1.1,1.6-1.2,2.2-1.2c1.6,0,2,0.8,2.3,1.3c0.2-0.4,0.8-1.3,2.4-1.3
				c1,0,2.6,0.4,2.6,2.5v4.7h-1.3v-4.5c0-0.6-0.1-0.9-0.2-1.1c-0.2-0.3-0.7-0.6-1.3-0.6c-0.9,0-1.3,0.5-1.5,0.7
				c-0.3,0.4-0.3,1.2-0.3,1.5v3.9h-1.3v-4.7c0-0.9-0.5-1.5-1.5-1.5c-0.9,0-1.4,0.6-1.5,0.8c-0.3,0.4-0.3,1-0.3,1.4v4h-1.3V479.8z"/>
			<path class="st5" d="M529.6,475.9h1.6v1.4h-1.6V475.9z M529.8,478.9h1.3v7h-1.3V478.9z"/>
			<path class="st5" d="M532.8,484.6l3.8-4.7H533v-1h5.1v1.1l-3.9,4.9h3.9v1h-5.3V484.6z"/>
			<path class="st5" d="M539.7,475.9h1.6v1.4h-1.6V475.9z M539.9,478.9h1.3v7h-1.3V478.9z"/>
			<path class="st5" d="M543.8,479.7l0-0.8h1.3l0,1.1c0.2-0.3,0.7-1.3,2.3-1.3c0.6,0,2.5,0.2,2.5,2.4v4.8h-1.3v-4.5
				c0-0.5-0.1-0.9-0.4-1.2c-0.3-0.3-0.8-0.5-1.2-0.5c-1,0-1.8,0.7-1.8,2.1v4h-1.3V479.7z"/>
			<path class="st5" d="M553.6,486.5c0.1,0.8,0.4,1.4,1.6,1.4c1.8,0,1.9-1.3,1.9-3.2c-0.6,1.2-1.9,1.2-2.3,1.2
				c-0.6,0-1.6-0.1-2.2-0.9c-0.6-0.7-0.8-1.7-0.8-2.6c0-2.4,1.4-3.5,3.1-3.5c1.4,0,1.9,0.7,2.2,1.1l0-1h1.3l0,1.3l0,4.4
				c0,1.7-0.1,2.4-0.3,2.9c-0.6,1.1-2,1.3-2.9,1.3c-2.8,0-2.9-1.3-3-2.3H553.6z M556.6,484.1c0.3-0.4,0.5-0.7,0.5-2
				c0-0.9-0.2-1.4-0.5-1.8c-0.4-0.4-0.9-0.6-1.5-0.6c-1.7,0-1.9,1.7-1.9,2.6c0,1.1,0.3,2.5,1.9,2.5
				C555.8,484.8,556.3,484.6,556.6,484.1z"/>
			<path class="st5" d="M567.9,486l-1,2.6h-1.4l1.1-2.7l-2.9-7h1.5l2.2,5.5l2.2-5.5h1.4L567.9,486z"/>
			<path class="st5" d="M575.6,478.7c2.8,0,3.4,2.2,3.4,3.7c0,2.1-1.2,3.8-3.6,3.8c-2.3,0-3.5-1.6-3.5-3.7
				C572,480.8,572.8,478.7,575.6,478.7z M575.5,485.2c1,0,2.1-0.7,2.1-2.8c0-1.8-0.8-2.7-2-2.7c-0.8,0-2.2,0.5-2.2,2.7
				C573.4,483.9,574,485.2,575.5,485.2z"/>
			<path class="st5" d="M582.3,478.9v4.5c0,0.7,0.2,1.6,1.5,1.6c0.7,0,1.3-0.2,1.7-0.8c0.3-0.4,0.3-1,0.3-1.3v-4h1.4v5.7
				c0,0.1,0,0.9,0,1.3h-1.4l0-1.2c-0.3,0.5-0.7,1.3-2.2,1.3c-1.7,0-2.5-1-2.5-2.4v-4.7H582.3z"/>
			<path class="st5" d="M589.7,480.3c0-0.5,0-1-0.1-1.4h1.3l0,1.4c0.3-1,1.1-1.3,1.7-1.4c0.4-0.1,0.7,0,0.9,0v1.3
				c-0.1,0-0.2,0-0.3-0.1c-0.1,0-0.2,0-0.4,0c-1.6,0-1.9,0.9-1.9,2.1v3.7h-1.3V480.3z"/>
			<path class="st5" d="M603,481.2c0-0.3-0.1-1.5-1.4-1.5c-1.8,0-1.8,2.1-1.8,2.6c0,1.4,0.4,2.8,1.8,2.8c1.1,0,1.5-0.8,1.5-1.5h1.3
				c-0.1,1.4-1.1,2.5-2.8,2.5c-0.5,0-1.6-0.1-2.3-0.9c-0.4-0.5-0.8-1.2-0.8-2.7c0-2.9,1.8-3.8,3.2-3.8c0.5,0,1.5,0.1,2.2,0.9
				c0.5,0.6,0.6,1.2,0.6,1.6H603z"/>
			<path class="st5" d="M609,478.7c2.8,0,3.4,2.2,3.4,3.7c0,2.1-1.2,3.8-3.6,3.8c-2.3,0-3.5-1.6-3.5-3.7
				C605.4,480.8,606.3,478.7,609,478.7z M608.9,485.2c1,0,2.1-0.7,2.1-2.8c0-1.8-0.8-2.7-2-2.7c-0.8,0-2.2,0.5-2.2,2.7
				C606.8,483.9,607.4,485.2,608.9,485.2z"/>
			<path class="st5" d="M615.7,478.9v4.5c0,0.7,0.2,1.6,1.5,1.6c0.7,0,1.3-0.2,1.7-0.8c0.3-0.4,0.3-1,0.3-1.3v-4h1.4v5.7
				c0,0.1,0,0.9,0,1.3h-1.4l0-1.2c-0.3,0.5-0.7,1.3-2.2,1.3c-1.7,0-2.5-1-2.5-2.4v-4.7H615.7z"/>
			<path class="st5" d="M623.1,480.3c0-0.5,0-1-0.1-1.4h1.3l0,1.4c0.3-1,1.1-1.3,1.7-1.4c0.4-0.1,0.7,0,0.9,0v1.3
				c-0.1,0-0.2,0-0.3-0.1c-0.1,0-0.2,0-0.4,0c-1.6,0-1.9,0.9-1.9,2.1v3.7h-1.3V480.3z"/>
			<path class="st5" d="M629.6,483.9c0,0.5,0.3,1.3,1.5,1.3c0.5,0,1-0.1,1.2-0.4c0.1-0.2,0.2-0.4,0.2-0.7c0-0.7-0.5-0.8-1.5-1.1
				c-1.5-0.3-2.7-0.6-2.7-2.1c0-1.3,1.1-2.1,2.7-2.1c0.9,0,2.1,0.3,2.5,1.1c0.2,0.4,0.2,0.7,0.2,1h-1.3c0-1.1-0.9-1.1-1.4-1.1
				c-0.2,0-1.4,0-1.4,1c0,0.6,0.6,0.8,1,0.9c1.9,0.5,2.4,0.6,2.8,1c0.4,0.4,0.5,0.9,0.5,1.3c0,0.8-0.4,1.5-1,1.8
				c-0.6,0.4-1.4,0.5-2.1,0.5c-1.4,0-2.8-0.6-2.7-2.3H629.6z"/>
			<path class="st5" d="M636.6,482.7c0,1.5,0.6,2.5,2,2.5c0.9,0,1.5-0.4,1.7-1.5h1.3c0,0.3-0.1,0.9-0.6,1.5c-0.3,0.3-1,0.9-2.4,0.9
				c-2.2,0-3.3-1.4-3.3-3.6c0-1.4,0.3-2.5,1.4-3.3c0.7-0.5,1.5-0.5,1.9-0.5c3.2,0,3.1,2.8,3.1,3.9H636.6z M640.3,481.7
				c0-0.7-0.1-2.1-1.7-2.1c-0.9,0-1.9,0.5-1.9,2.1H640.3z"/>
			<path class="st5" d="M644.4,484.5h1.5v1.4h-1.5V484.5z M645.7,483.6h-1l-0.3-7.8h1.6L645.7,483.6z"/>
		</g>
	</g>
	<g>
		<rect x="149.8" y="421.8" class="st0" width="38.6" height="38.6"/>
		<rect x="188.1" y="411.7" class="st1" width="187.6" height="114.8"/>
		<text transform="matrix(1 0 0 1 157.0056 454.1301)" class="st2 st3 st4">5</text>
		<g>
			<path class="st5" d="M217.8,459.8h-1.5l-3.6-10.1h1.6l2.9,8.6l3-8.6h1.4L217.8,459.8z"/>
			<path class="st5" d="M222.5,449.7h1.6v1.4h-1.6V449.7z M222.7,452.7h1.3v7h-1.3V452.7z"/>
			<path class="st5" d="M227.3,457.7c0,0.5,0.3,1.3,1.5,1.3c0.5,0,1-0.1,1.2-0.4c0.1-0.2,0.2-0.4,0.2-0.7c0-0.7-0.5-0.8-1.5-1.1
				c-1.5-0.3-2.7-0.6-2.7-2.1c0-1.3,1.1-2.1,2.7-2.1c0.9,0,2.1,0.3,2.5,1.1c0.2,0.4,0.2,0.7,0.2,1h-1.3c0-1.1-0.9-1.1-1.4-1.1
				c-0.2,0-1.4,0-1.4,1c0,0.6,0.6,0.8,1,0.9c1.9,0.5,2.4,0.6,2.8,1c0.4,0.4,0.5,0.9,0.5,1.3c0,0.8-0.4,1.5-1,1.8
				c-0.6,0.4-1.4,0.5-2.1,0.5c-1.4,0-2.8-0.6-2.7-2.3H227.3z"/>
			<path class="st5" d="M233.4,449.7h1.6v1.4h-1.6V449.7z M233.6,452.7h1.3v7h-1.3V452.7z"/>
			<path class="st5" d="M236.4,452.7h1.2v-1.5l1.3-0.4v1.9h1.6v1h-1.6v4.2c0,0.3,0,0.9,0.9,0.9c0.3,0,0.5,0,0.6-0.1v1
				c-0.2,0-0.6,0.1-1.1,0.1c-1.2,0-1.8-0.3-1.8-1.5v-4.7h-1.2V452.7z"/>
			<path class="st5" d="M244.9,452.7h1.2v-1.5l1.3-0.4v1.9h1.6v1h-1.6v4.2c0,0.3,0,0.9,0.9,0.9c0.3,0,0.5,0,0.6-0.1v1
				c-0.2,0-0.6,0.1-1.1,0.1c-1.2,0-1.8-0.3-1.8-1.5v-4.7h-1.2V452.7z"/>
			<path class="st5" d="M250.7,449.7h1.3v4.1c0.4-0.7,1.3-1.2,2.3-1.2c0.7,0,1.8,0.3,2.2,1.1c0.1,0.3,0.2,0.6,0.2,1.6v4.4h-1.3v-4.2
				c0-0.6,0-2-1.5-2c-1,0-1.5,0.6-1.7,0.9c-0.2,0.4-0.2,1.1-0.2,1.5v3.7h-1.3V449.7z"/>
			<path class="st5" d="M260,456.5c0,1.5,0.6,2.5,2,2.5c0.9,0,1.5-0.4,1.7-1.5h1.3c0,0.3-0.1,0.9-0.6,1.5c-0.3,0.3-1,0.9-2.4,0.9
				c-2.2,0-3.3-1.4-3.3-3.6c0-1.4,0.3-2.5,1.4-3.3c0.7-0.5,1.5-0.5,1.9-0.5c3.2,0,3.1,2.8,3.1,3.9H260z M263.7,455.6
				c0-0.7-0.1-2.1-1.7-2.1c-0.9,0-1.9,0.5-1.9,2.1H263.7z"/>
			<path d="M276.3,452.9c0-0.3-0.2-1.8-1.6-1.8c-1.6,0-2.3,1.7-2.3,3.8c0,0.6,0,3.5,2.1,3.5c0.9,0,1.8-0.6,1.8-1.9h2.3
				c0,0.6-0.1,1.5-0.9,2.4c-0.9,0.9-2,1.1-3,1.1c-3.5,0-4.6-2.6-4.6-5.1c0-3.2,1.8-5.3,4.6-5.3c2.2,0,3.8,1.3,3.8,3.4H276.3z"/>
			<path d="M285.3,449.6l3.5,10.1h-2.2l-0.7-2.2h-4l-0.8,2.2h-2.1l3.7-10.1H285.3z M285.4,455.9l-1.4-4.3l-1.5,4.3H285.4z"/>
			<path d="M290.1,449.7h6.5v1.6h-4.4v2.5h4.1v1.7h-4.1v4.3h-2.2V449.7z"/>
			<path d="M297.9,449.6h6.8v1.7h-4.6v2.4h4.3v1.7h-4.3v2.7h4.8v1.7h-6.9V449.6z"/>
			<path d="M214.7,469.5l1.3,5.3l1.5-5.3h2.3l1.5,5.3l1.4-5.3h2.1l-2.4,7.1h-2.3l-1.5-5.2l-1.5,5.2h-2.3l-2.3-7.1H214.7z"/>
			<path d="M226.8,473.6c0,0.5,0,1.9,1.4,1.9c0.5,0,1-0.2,1.2-1h1.9c0,0.3-0.1,0.9-0.7,1.5c-0.5,0.5-1.4,0.8-2.5,0.8
				c-0.6,0-1.8-0.1-2.5-0.9c-0.6-0.7-0.9-1.6-0.9-2.8c0-1.1,0.3-2.5,1.5-3.3c0.5-0.4,1.2-0.6,2-0.6c1,0,2.2,0.4,2.9,1.7
				c0.5,1,0.4,2,0.4,2.6H226.8z M229.5,472.2c0-0.3,0-1.6-1.2-1.6c-0.9,0-1.3,0.8-1.3,1.6H229.5z"/>
			<path d="M232.5,466.5h2.1v3.9c0.7-0.9,1.6-1,2-1c1.7,0,3.1,1.4,3.1,3.7c0,2.6-1.5,3.6-3,3.6c-0.4,0-1.5,0-2.1-1.1
				c0,0.2,0,0.6-0.1,1h-2V466.5z M236.1,470.8c-1.5,0-1.5,1.7-1.5,2.2c0,1.6,0.7,2.4,1.6,2.4c1.4,0,1.4-1.8,1.4-2.1
				C237.6,472.6,237.6,470.8,236.1,470.8z"/>
			<path d="M242.3,474.5c0,0.4,0.3,1,1.2,1c0.7,0,1.1-0.4,1.1-0.8c0-0.3-0.2-0.6-1-0.8l-1.3-0.4c-0.6-0.2-1.8-0.5-1.8-2
				c0-1.4,1.3-2.2,3.1-2.2c1.5,0,2.6,0.7,2.7,2.1h-1.9c-0.1-0.8-0.7-0.8-1-0.8c-0.6,0-1,0.3-1,0.7c0,0.5,0.4,0.6,1,0.7l1.3,0.4
				c1.3,0.3,1.9,1,1.9,2c0,1.2-1.1,2.4-3.2,2.4c-0.9,0-1.8-0.2-2.4-0.9c-0.5-0.5-0.5-1.1-0.5-1.4H242.3z"/>
			<path d="M247.4,466.5h2.2v1.8h-2.2V466.5z M247.5,469.5h2.1v7.1h-2.1V469.5z"/>
			<path d="M255.2,476.5c-0.7,0.2-1.3,0.2-1.6,0.2c-2.1,0-2.1-1.3-2.1-1.9v-3.9h-1.4v-1.4h1.4v-1.4l2.1-0.8v2.1h1.7v1.4h-1.7v3.2
				c0,0.6,0,1.1,0.9,1.1c0.3,0,0.4,0,0.7,0V476.5z"/>
			<path d="M257.5,473.6c0,0.5,0,1.9,1.4,1.9c0.5,0,1-0.2,1.2-1h1.9c0,0.3-0.1,0.9-0.7,1.5c-0.5,0.5-1.4,0.8-2.5,0.8
				c-0.6,0-1.8-0.1-2.5-0.9c-0.6-0.7-0.9-1.6-0.9-2.8c0-1.1,0.3-2.5,1.5-3.3c0.5-0.4,1.2-0.6,2-0.6c1,0,2.2,0.4,2.9,1.7
				c0.5,1,0.4,2,0.4,2.6H257.5z M260.1,472.2c0-0.3,0-1.6-1.2-1.6c-0.9,0-1.3,0.8-1.3,1.6H260.1z"/>
			<path class="st5" d="M270.6,467.4c-0.2,0-0.5,0-0.8,0c-1.1,0-1.1,0.5-1.1,1v1.1h1.6v1h-1.6v6.1h-1.3v-6.1h-1.4v-1h1.4v-0.8
				c0-1,0.1-1.3,0.3-1.7c0.3-0.4,0.9-0.8,1.8-0.8c0.4,0,0.8,0.1,1.1,0.1V467.4z"/>
			<path class="st5" d="M274.5,469.4c2.8,0,3.4,2.2,3.4,3.7c0,2.1-1.2,3.8-3.6,3.8c-2.3,0-3.5-1.6-3.5-3.7
				C270.9,471.4,271.7,469.4,274.5,469.4z M274.4,475.8c1,0,2.1-0.7,2.1-2.8c0-1.8-0.8-2.7-2-2.7c-0.8,0-2.2,0.5-2.2,2.7
				C272.3,474.5,272.9,475.8,274.4,475.8z"/>
			<path class="st5" d="M279.7,471c0-0.5,0-1-0.1-1.4h1.3l0,1.4c0.3-1,1.1-1.3,1.7-1.4c0.4-0.1,0.7,0,0.9,0v1.3
				c-0.1,0-0.2,0-0.3-0.1s-0.2,0-0.4,0c-1.6,0-1.9,0.9-1.9,2.1v3.7h-1.3V471z"/>
			<path class="st5" d="M292.6,476.6c-0.1-0.4-0.1-0.7-0.1-1.1c-0.6,1.2-1.6,1.3-2.2,1.3c-1.6,0-2.5-0.9-2.5-2.1
				c0-0.6,0.2-1.5,1.2-2.1c0.8-0.4,1.9-0.5,2.4-0.5c0.3,0,0.5,0,1,0c0-0.9,0-1.2-0.3-1.6c-0.3-0.3-0.8-0.5-1.2-0.5
				c-1.3,0-1.4,0.9-1.4,1.2h-1.3c0-0.4,0.1-0.9,0.5-1.3c0.5-0.6,1.5-0.8,2.3-0.8c1,0,2.1,0.3,2.5,1c0.2,0.4,0.2,0.8,0.2,1.1
				l-0.1,3.4c0,0.1,0,1.1,0.1,1.8H292.6z M291.7,473.1c-0.5,0-2.5,0-2.5,1.4c0,0.4,0.3,1.2,1.5,1.2c0.7,0,1.2-0.3,1.5-0.8
				c0.3-0.5,0.3-0.9,0.3-1.8C292.2,473.1,292,473.1,291.7,473.1z"/>
			<path class="st5" d="M300.6,466.5h1.3v9c0,0.2,0,0.8,0.1,1.1h-1.3l0-1.1c-0.1,0.2-0.3,0.5-0.6,0.7c-0.6,0.4-1.3,0.5-1.7,0.5
				c-0.9,0-3-0.5-3-3.6c0-2.7,1.5-3.8,3.2-3.8c1.5,0,2,0.9,2.2,1.2V466.5z M300.1,471c-0.3-0.4-0.8-0.7-1.5-0.7
				c-1.9,0-1.9,2.3-1.9,2.8c0,1.2,0.3,2.7,1.9,2.7c2.1,0,2.1-2.3,2.1-2.8C300.6,471.9,300.4,471.4,300.1,471z"/>
			<path class="st5" d="M308.8,466.5h1.3v9c0,0.2,0,0.8,0.1,1.1h-1.3l0-1.1c-0.1,0.2-0.3,0.5-0.6,0.7c-0.6,0.4-1.3,0.5-1.7,0.5
				c-0.9,0-3-0.5-3-3.6c0-2.7,1.5-3.8,3.2-3.8c1.5,0,2,0.9,2.2,1.2V466.5z M308.3,471c-0.3-0.4-0.8-0.7-1.5-0.7
				c-1.9,0-1.9,2.3-1.9,2.8c0,1.2,0.3,2.7,1.9,2.7c2.1,0,2.1-2.3,2.1-2.8C308.8,471.9,308.6,471.4,308.3,471z"/>
			<path class="st5" d="M312,466.5h1.6v1.4H312V466.5z M312.1,469.5h1.3v7h-1.3V469.5z"/>
			<path class="st5" d="M314.6,469.5h1.2V468l1.3-0.4v1.9h1.6v1h-1.6v4.2c0,0.3,0,0.9,0.9,0.9c0.3,0,0.5,0,0.6-0.1v1
				c-0.2,0-0.6,0.1-1.1,0.1c-1.2,0-1.8-0.3-1.8-1.5v-4.7h-1.2V469.5z"/>
			<path class="st5" d="M319.9,466.5h1.6v1.4h-1.6V466.5z M320,469.5h1.3v7H320V469.5z"/>
			<path class="st5" d="M326.6,469.4c2.8,0,3.4,2.2,3.4,3.7c0,2.1-1.2,3.8-3.6,3.8c-2.3,0-3.5-1.6-3.5-3.7
				C323,471.4,323.8,469.4,326.6,469.4z M326.5,475.8c1,0,2.1-0.7,2.1-2.8c0-1.8-0.8-2.7-2-2.7c-0.8,0-2.2,0.5-2.2,2.7
				C324.4,474.5,325,475.8,326.5,475.8z"/>
			<path class="st5" d="M331.8,470.3l0-0.8h1.3l0,1.1c0.2-0.3,0.7-1.3,2.3-1.3c0.6,0,2.5,0.2,2.5,2.4v4.8h-1.3v-4.5
				c0-0.5-0.1-0.9-0.4-1.2c-0.3-0.3-0.8-0.5-1.2-0.5c-1,0-1.8,0.7-1.8,2.1v4h-1.3V470.3z"/>
			<path class="st5" d="M344.2,476.6c-0.1-0.4-0.1-0.7-0.1-1.1c-0.6,1.2-1.6,1.3-2.2,1.3c-1.6,0-2.5-0.9-2.5-2.1
				c0-0.6,0.2-1.5,1.2-2.1c0.8-0.4,1.9-0.5,2.4-0.5c0.3,0,0.5,0,1,0c0-0.9,0-1.2-0.3-1.6c-0.3-0.3-0.8-0.5-1.2-0.5
				c-1.3,0-1.4,0.9-1.4,1.2h-1.3c0-0.4,0.1-0.9,0.5-1.3c0.5-0.6,1.5-0.8,2.3-0.8c1,0,2.1,0.3,2.5,1c0.2,0.4,0.2,0.8,0.2,1.1
				l-0.1,3.4c0,0.1,0,1.1,0.1,1.8H344.2z M343.3,473.1c-0.5,0-2.5,0-2.5,1.4c0,0.4,0.3,1.2,1.5,1.2c0.7,0,1.2-0.3,1.5-0.8
				c0.3-0.5,0.3-0.9,0.3-1.8C343.8,473.1,343.6,473.1,343.3,473.1z"/>
			<path class="st5" d="M347.4,466.5h1.3v10.1h-1.3V466.5z"/>
			<path class="st5" d="M213.8,487.8c0-0.5,0-1-0.1-1.4h1.3l0,1.4c0.3-1,1.1-1.3,1.7-1.4c0.4-0.1,0.7,0,0.9,0v1.3
				c-0.1,0-0.2,0-0.3-0.1c-0.1,0-0.2,0-0.4,0c-1.6,0-1.9,0.9-1.9,2.1v3.7h-1.3V487.8z"/>
			<path class="st5" d="M219.9,490.1c0,1.5,0.6,2.5,2,2.5c0.9,0,1.5-0.4,1.7-1.5h1.3c0,0.4-0.1,0.9-0.6,1.5c-0.3,0.4-1,0.9-2.4,0.9
				c-2.2,0-3.3-1.4-3.3-3.6c0-1.4,0.3-2.5,1.4-3.3c0.7-0.5,1.5-0.5,1.9-0.5c3.2,0,3.1,2.8,3.1,3.9H219.9z M223.6,489.2
				c0-0.7-0.1-2.1-1.7-2.1c-0.9,0-1.9,0.5-1.9,2.1H223.6z"/>
			<path class="st5" d="M227.7,491.3c0,0.5,0.3,1.3,1.5,1.3c0.5,0,1-0.1,1.2-0.4c0.1-0.2,0.2-0.4,0.2-0.7c0-0.7-0.5-0.8-1.5-1.1
				c-1.5-0.3-2.7-0.6-2.7-2.1c0-1.3,1.1-2.1,2.7-2.1c0.9,0,2.1,0.3,2.5,1.1c0.2,0.4,0.2,0.7,0.2,1h-1.3c0-1.1-0.9-1.1-1.4-1.1
				c-0.2,0-1.4,0-1.4,1c0,0.6,0.6,0.8,1,0.9c1.9,0.5,2.4,0.6,2.8,1c0.4,0.4,0.5,0.9,0.5,1.3c0,0.8-0.4,1.5-1,1.8
				c-0.6,0.4-1.4,0.5-2.1,0.5c-1.4,0-2.8-0.6-2.7-2.3H227.7z"/>
			<path class="st5" d="M237,486.2c2.8,0,3.4,2.2,3.4,3.7c0,2.1-1.2,3.8-3.6,3.8c-2.3,0-3.5-1.6-3.5-3.7
				C233.4,488.2,234.2,486.2,237,486.2z M236.9,492.6c1,0,2.1-0.7,2.1-2.8c0-1.8-0.8-2.7-2-2.7c-0.8,0-2.2,0.5-2.2,2.7
				C234.8,491.3,235.4,492.6,236.9,492.6z"/>
			<path class="st5" d="M243.7,486.3v4.5c0,0.7,0.2,1.6,1.5,1.6c0.7,0,1.3-0.2,1.7-0.8c0.3-0.4,0.3-1,0.3-1.3v-4h1.4v5.7
				c0,0.1,0,0.9,0,1.3h-1.4l0-1.2c-0.3,0.5-0.7,1.3-2.2,1.3c-1.7,0-2.5-1-2.5-2.4v-4.7H243.7z"/>
			<path class="st5" d="M251.1,487.8c0-0.5,0-1-0.1-1.4h1.3l0,1.4c0.3-1,1.1-1.3,1.7-1.4c0.4-0.1,0.7,0,0.9,0v1.3
				c-0.1,0-0.2,0-0.3-0.1c-0.1,0-0.2,0-0.4,0c-1.6,0-1.9,0.9-1.9,2.1v3.7h-1.3V487.8z"/>
			<path class="st5" d="M260.5,488.6c0-0.3-0.1-1.5-1.4-1.5c-1.8,0-1.8,2.1-1.8,2.6c0,1.4,0.4,2.8,1.8,2.8c1.1,0,1.5-0.8,1.5-1.5
				h1.3c-0.1,1.4-1.1,2.5-2.8,2.5c-0.5,0-1.6-0.1-2.3-0.9c-0.4-0.5-0.8-1.2-0.8-2.7c0-2.9,1.8-3.8,3.2-3.8c0.5,0,1.5,0.1,2.2,0.9
				c0.5,0.6,0.6,1.2,0.6,1.6H260.5z"/>
			<path class="st5" d="M264.3,490.1c0,1.5,0.6,2.5,2,2.5c0.9,0,1.5-0.4,1.7-1.5h1.3c0,0.4-0.1,0.9-0.6,1.5c-0.3,0.4-1,0.9-2.4,0.9
				c-2.2,0-3.3-1.4-3.3-3.6c0-1.4,0.3-2.5,1.4-3.3c0.7-0.5,1.5-0.5,1.9-0.5c3.2,0,3.1,2.8,3.1,3.9H264.3z M268,489.2
				c0-0.7-0.1-2.1-1.7-2.1c-0.9,0-1.9,0.5-1.9,2.1H268z"/>
			<path class="st5" d="M272,491.3c0,0.5,0.3,1.3,1.5,1.3c0.5,0,1-0.1,1.2-0.4c0.1-0.2,0.2-0.4,0.2-0.7c0-0.7-0.5-0.8-1.5-1.1
				c-1.5-0.3-2.7-0.6-2.7-2.1c0-1.3,1.1-2.1,2.7-2.1c0.9,0,2.1,0.3,2.5,1.1c0.2,0.4,0.2,0.7,0.2,1h-1.3c0-1.1-0.9-1.1-1.4-1.1
				c-0.2,0-1.4,0-1.4,1c0,0.6,0.6,0.8,1,0.9c1.9,0.5,2.4,0.6,2.8,1c0.4,0.4,0.5,0.9,0.5,1.3c0,0.8-0.4,1.5-1,1.8
				c-0.6,0.4-1.4,0.5-2.1,0.5c-1.4,0-2.8-0.6-2.7-2.3H272z"/>
			<path class="st5" d="M279.1,492h1.5v1.4h-1.5V492z M280.4,491.1h-1l-0.3-7.8h1.6L280.4,491.1z"/>
		</g>
	</g>
	<g>
		<path d="M58,48.5c0-4.8-2-7.3-7.2-7.3c-1.6,0-7.4,0.3-7.4,8.7v13.7c0,8.8,2.6,11.1,7.4,11.1c3.7,0,6.2-1,7.2-1.8V60.8h-7.4v-4.5
			h12.6V76c-3.3,1.8-7.2,3-12.4,3c-8.6,0-12.7-4.4-12.7-15.6V50.1c0-8.1,4.1-13.2,12.7-13.2c8.7,0,12.9,3.2,12.5,11.6H58z"/>
		<path d="M76.8,65.5c0,7.9,2.1,9.5,5.7,9.5c3.1,0,4.8-2.5,4.9-5.4h5c-0.1,6.3-3.9,9.1-9.9,9.1c-6,0-10.8-1.8-10.8-14.3
			c0-8.3,1-15.1,10.8-15.1c8.1,0,10.1,4.4,10.1,13.8v2.4H76.8z M87.8,62c0-8.2-2.3-9.2-5.7-9.2c-2.9,0-5.3,1.4-5.4,9.2H87.8z"/>
		<path d="M100.8,49.9v-5.4l4.6-2.1v7.5h6.2v3.5h-6.2v17.3c0,1.8,0,4.1,4.2,4.1c0.3,0,1.1-0.1,2.1-0.2V78c-1.5,0.1-3,0.4-4.5,0.4
			c-4.4,0-6.3-1.8-6.3-5V53.3h-4.6v-3.5H100.8z"/>
		<path d="M116.4,49.9v-5.4l4.6-2.1v7.5h6.2v3.5H121v17.3c0,1.8,0,4.1,4.2,4.1c0.3,0,1.1-0.1,2.1-0.2V78c-1.5,0.1-3,0.4-4.5,0.4
			c-4.4,0-6.3-1.8-6.3-5V53.3h-4.6v-3.5H116.4z"/>
		<path d="M131.1,37.7h5.2v4.9h-5.2V37.7z M135.9,78.2h-4.6V49.9h4.6V78.2z"/>
		<path d="M159.2,78.2V58.6c0-3-1.1-5.5-5-5.5c-5,0-5.8,4.5-5.8,8.3v16.7h-4.6V55.8c0-2-0.1-3.9-0.3-5.9h4.9v3.6h0.2
			c1.8-3.2,3.9-4.2,7.6-4.2c6,0,7.6,3.6,7.6,9.2v19.6H159.2z"/>
		<path d="M186.8,49.9h4.6V81c0,6.3-4.2,7.8-10.4,7.8c-4.7,0-9-2.4-8.6-7.6h5.2c0.1,2.6,1.8,4.1,4.3,4.1c3.2,0,4.9-2,4.9-4.9v-5.9
			h-0.2c-1.2,2.2-3.8,3.5-6.2,3.5c-7.7,0-9.2-6.6-9.2-15c0-13,6.6-13.8,8.8-13.8c3,0,5.3,1.3,6.6,4h0.1V49.9z M181.5,53.1
			c-5.2,0-5.4,6.3-5.4,10c0,9.1,2.1,11.2,5.5,11.2c5.5,0,5.4-6.6,5.4-10.5C187,59.7,187.2,53.1,181.5,53.1z"/>
		<path d="M220.7,78.7c-6.1,0-9.9-2.7-9.7-9.2h5.2c0,1.6,0.1,5.4,4.7,5.4c2.7,0,4.9-1.4,4.9-4.3c0-5-14.1-5.2-14.1-13.6
			c0-3,1.8-7.7,9.7-7.7c5,0,9.4,2.4,9,8h-5.1c0.1-3-1.5-4.5-4.4-4.5c-2.5,0-4.4,1.3-4.4,3.8c0,5,14.1,4.9,14.1,13.5
			C230.5,76.3,226.3,78.7,220.7,78.7z"/>
		<path d="M237.7,49.9v-5.4l4.6-2.1v7.5h6.2v3.5h-6.2v17.3c0,1.8,0,4.1,4.2,4.1c0.3,0,1.1-0.1,2.1-0.2V78c-1.5,0.1-3,0.4-4.5,0.4
			c-4.4,0-6.3-1.8-6.3-5V53.3H233v-3.5H237.7z"/>
		<path d="M267.3,74.1h-0.1c-1.4,3.2-3.6,4.6-7.1,4.6c-6,0-7.7-3.9-7.7-9.3c0-8.6,8.4-9,14.8-8.8c0.1-3.8,0.2-7.8-4.8-7.8
			c-3.1,0-4.7,2.1-4.4,5h-5c0.2-6.3,3.6-8.5,9.6-8.5c7.3,0,9.2,3.8,9.2,8.5v13.6c0,2.2,0.2,4.5,0.6,6.7h-5V74.1z M257,69.8
			c0,2.7,1.3,5.2,4.4,5.2c2.8,0,6.3-1.7,5.8-10.9C262.8,64.2,257,63.8,257,69.8z"/>
		<path d="M285.5,54.1h0.1c1.9-4.3,4.3-4.8,8.7-4.8v4.8c-0.4-0.1-0.8-0.1-1.2-0.2c-0.4-0.1-0.8-0.1-1.2-0.1c-5.1,0-6.4,3.9-6.4,7.7
			v16.7h-4.6V49.9h4.6V54.1z"/>
		<path d="M299.9,49.9v-5.4l4.6-2.1v7.5h6.2v3.5h-6.2v17.3c0,1.8,0,4.1,4.2,4.1c0.3,0,1.1-0.1,2.1-0.2V78c-1.5,0.1-3,0.4-4.5,0.4
			c-4.4,0-6.3-1.8-6.3-5V53.3h-4.6v-3.5H299.9z"/>
		<path d="M319.4,65.5c0,7.9,2.1,9.5,5.7,9.5c3.1,0,4.8-2.5,4.9-5.4h5c-0.1,6.3-3.9,9.1-9.9,9.1c-6,0-10.8-1.8-10.8-14.3
			c0-8.3,1-15.1,10.8-15.1c8.1,0,10.1,4.4,10.1,13.8v2.4H319.4z M330.5,62c0-8.2-2.3-9.2-5.7-9.2c-2.9,0-5.3,1.4-5.4,9.2H330.5z"/>
		<path d="M357.9,37.7h4.6v40.4h-4.6v-3.4h-0.1c-1.6,2.6-3.5,3.9-6.5,3.9c-4.5,0-9.1-1.8-9.1-14.2c0-7.1,0.2-15.2,9.4-15.2
			c2.7,0,4.6,1.2,6.2,3.4h0.2V37.7z M352.6,53.1c-4.9,0-5.6,3.9-5.6,11.5c0,4.3,0,10.4,5.8,10.4c5.2,0,5.2-6.4,5.2-12.1
			C357.9,59.1,357.7,53.1,352.6,53.1z"/>
		<path d="M379.9,49.9h5.1l5.1,24.4h0.1l6.3-24.4h6.5l5.8,24.4h0.1l5.6-24.4h4.9l-7.6,28.3h-6.2l-6-24.1h-0.1l-6.3,24.1h-6.2
			L379.9,49.9z"/>
		<path d="M423.4,37.7h5.2v4.9h-5.2V37.7z M428.3,78.2h-4.6V49.9h4.6V78.2z"/>
		<path d="M436.8,49.9v-5.4l4.6-2.1v7.5h6.2v3.5h-6.2v17.3c0,1.8,0,4.1,4.2,4.1c0.3,0,1.1-0.1,2.1-0.2V78c-1.5,0.1-3,0.4-4.5,0.4
			c-4.4,0-6.3-1.8-6.3-5V53.3h-4.6v-3.5H436.8z"/>
		<path d="M467.2,78.2V59c0-3.5-1.1-5.9-5-5.9c-4.6,0-5.8,3.7-5.8,8.5v16.6h-4.6V37.7h4.6v15.8h0.2c1.8-3.3,4-4.2,7.7-4.2
			c4.8,0,7.5,2.4,7.5,8.8v20H467.2z"/>
		<path d="M492.8,49.9v-5.4l4.6-2.1v7.5h6.2v3.5h-6.2v17.3c0,1.8,0,4.1,4.2,4.1c0.3,0,1.1-0.1,2.1-0.2V78c-1.5,0.1-3,0.4-4.5,0.4
			c-4.4,0-6.3-1.8-6.3-5V53.3h-4.6v-3.5H492.8z"/>
		<path d="M523.2,78.2V59c0-3.5-1.1-5.9-5-5.9c-4.6,0-5.8,3.7-5.8,8.5v16.6h-4.6V37.7h4.6v15.8h0.2c1.8-3.3,4-4.2,7.7-4.2
			c4.8,0,7.5,2.4,7.5,8.8v20H523.2z"/>
		<path d="M540.3,65.5c0,7.9,2.1,9.5,5.7,9.5c3.1,0,4.8-2.5,4.9-5.4h5c-0.1,6.3-3.9,9.1-9.9,9.1c-6,0-10.8-1.8-10.8-14.3
			c0-8.3,1-15.1,10.8-15.1c8.1,0,10.1,4.4,10.1,13.8v2.4H540.3z M551.3,62c0-8.2-2.3-9.2-5.7-9.2c-2.9,0-5.3,1.4-5.4,9.2H551.3z"/>
		<path d="M576.8,49.9v-5.4l4.6-2.1v7.5h6.2v3.5h-6.2v17.3c0,1.8,0,4.1,4.2,4.1c0.3,0,1.1-0.1,2.1-0.2V78c-1.5,0.1-3,0.4-4.5,0.4
			c-4.4,0-6.3-1.8-6.3-5V53.3h-4.6v-3.5H576.8z"/>
		<path d="M594.9,65.5c0,7.9,2.1,9.5,5.7,9.5c3.1,0,4.8-2.5,4.9-5.4h5c-0.1,6.3-3.9,9.1-9.9,9.1c-6,0-10.8-1.8-10.8-14.3
			c0-8.3,1-15.1,10.8-15.1c8.1,0,10.1,4.4,10.1,13.8v2.4H594.9z M605.9,62c0-8.2-2.3-9.2-5.7-9.2c-2.9,0-5.3,1.4-5.4,9.2H605.9z"/>
		<path d="M630.9,78.2V58.6c0-2.9-0.8-5.5-4.5-5.5c-1.4,0-3.3,0.8-4,1.9c-0.8,1.4-1.1,3.1-1.1,4.1v19h-4.6V55.8c0-2-0.1-3.9-0.3-5.9
			h4.9v3.5h0.1c1.3-3,3.8-4.1,7.1-4.1c2.6,0,5.5,1.1,6.6,3.6c1.6-3,4.1-3.6,6.7-3.6c3,0,7.7,0.7,7.7,7.3v21.5H645V58.6
			c0-2.9-0.8-5.5-4.5-5.5c-1.7,0-2.2,0.1-3.5,1.1c-1.3,1.1-1.6,3.9-1.6,5v19H630.9z"/>
		<path d="M661,53.2h0.1c1.6-2.6,3.5-3.9,6.5-3.9c4.5,0,9.1,1.8,9.1,14.2c0,7.1-0.2,15.2-9.4,15.2c-2.7,0-4.6-1.2-6.2-3.4H661v13.6
			h-4.6v-39h4.6V53.2z M672,63.5c0-4.3,0-10.5-5.8-10.5c-5.7,0-5.2,7.8-5.2,12.2c0,3.8,0.2,9.7,5.3,9.7C671.3,75,672,71.1,672,63.5z
			"/>
		<path d="M687.1,78.2h-4.6V37.7h4.6V78.2z"/>
		<path d="M708.3,74.1h-0.1c-1.4,3.2-3.6,4.6-7.1,4.6c-6,0-7.7-3.9-7.7-9.3c0-8.6,8.4-9,14.8-8.8c0.1-3.8,0.2-7.8-4.8-7.8
			c-3.1,0-4.7,2.1-4.4,5h-5c0.2-6.3,3.6-8.5,9.6-8.5c7.3,0,9.2,3.8,9.2,8.5v13.6c0,2.2,0.2,4.5,0.6,6.7h-5V74.1z M697.9,69.8
			c0,2.7,1.3,5.2,4.4,5.2c2.8,0,6.3-1.7,5.8-10.9C703.8,64.2,697.9,63.8,697.9,69.8z"/>
		<path d="M720.8,49.9v-5.4l4.6-2.1v7.5h6.2v3.5h-6.2v17.3c0,1.8,0,4.1,4.2,4.1c0.3,0,1.1-0.1,2.1-0.2V78c-1.5,0.1-3,0.4-4.5,0.4
			c-4.4,0-6.3-1.8-6.3-5V53.3h-4.6v-3.5H720.8z"/>
		<path d="M738.9,65.5c0,7.9,2.1,9.5,5.7,9.5c3.1,0,4.8-2.5,4.9-5.4h5c-0.1,6.3-3.9,9.1-9.9,9.1c-6,0-10.8-1.8-10.8-14.3
			c0-8.3,1-15.1,10.8-15.1c8.1,0,10.1,4.4,10.1,13.8v2.4H738.9z M750,62c0-8.2-2.3-9.2-5.7-9.2c-2.9,0-5.3,1.4-5.4,9.2H750z"/>
	</g>
	<g>
		<g>
			<defs>
				<rect id="SVGID_1_" x="684.2" y="538.3" width="72" height="37.7"/>
			</defs>
			<clipPath id="SVGID_2_">
				<use xlink:href="#SVGID_1_"  style="overflow:visible;"/>
			</clipPath>
			<path class="st6" d="M688.3,559.7h1.6c2.5,0,2.9-1.3,2.9-5.4V546c0-3.5-0.4-4.7-3.2-4.7h-1.3V559.7L688.3,559.7z M685,538.5h5.3
				c5.4,0,5.8,1.8,5.8,8.7v7.1c0,6.1-1.1,8.1-6.3,8.1H685V538.5L685,538.5z"/>
			<path class="st6" d="M698.1,544.6c0-3.3,1.1-6.3,5.6-6.3c3.3,0,4.8,1.7,4.8,4.3v2.4h-3.1v-1.7c0-1.5-0.5-2.5-1.9-2.5
				c-1.7,0-2.1,1.2-2.1,4.1v11.7c0,2.8,0.9,3.3,2,3.3c1.2,0,2-0.9,2-2.8v-1.7h3.1v2.7c0,2.5-1,4.4-4.9,4.4c-4.2,0-5.5-2.2-5.5-5.9
				V544.6L698.1,544.6z"/>
			<path class="st7" d="M709.7,544.6c0-3.3,1.1-6.3,5.6-6.3c3.3,0,4.8,1.7,4.8,4.3v2.4H717v-1.7c0-1.5-0.5-2.5-1.9-2.5
				c-1.7,0-2.1,1.2-2.1,4.1v11.7c0,2.8,0.9,3.3,2,3.3c1.2,0,2-0.9,2-2.8v-1.7h3.1v2.7c0,2.5-1,4.4-4.9,4.4c-4.2,0-5.5-2.2-5.5-5.9
				V544.6L709.7,544.6z"/>
		</g>
		<path d="M725.4,553.6h4.2l-2.1-11.5h-0.1L725.4,553.6L725.4,553.6z M725.8,538.5h3.8l4.9,23.9h-3.3l-1.1-6.1h-5.2l-1.1,6.1h-3.3
			L725.8,538.5L725.8,538.5z"/>
		<polygon points="736.1,538.5 745.1,538.5 745.1,541.3 739.4,541.3 739.4,548.8 744.8,548.8 744.8,551.6 739.4,551.6 739.4,562.4 
			736.1,562.4 736.1,538.5 		"/>
		<g>
			<defs>
				<rect id="SVGID_3_" x="684.2" y="538.3" width="72" height="37.7"/>
			</defs>
			<clipPath id="SVGID_4_">
				<use xlink:href="#SVGID_3_"  style="overflow:visible;"/>
			</clipPath>
			<polygon class="st8" points="746.5,538.5 755.5,538.5 755.5,541.3 749.8,541.3 749.8,548.8 755.2,548.8 755.2,551.6 749.8,551.6 
				749.8,559.7 755.5,559.7 755.5,562.4 746.5,562.4 746.5,538.5 			"/>
			<polygon class="st9" points="719.9,576.1 684.2,576.1 684.2,573.4 719.9,573.4 719.9,576.1 			"/>
		</g>
		<polygon class="st10" points="756.2,576.1 720.5,576.1 720.5,573.4 756.2,573.4 756.2,576.1 		"/>
	</g>
	<text transform="matrix(1 0 0 1 35.4028 575.8198)" class="st11 st12">durhamcollege.ca/cafe</text>
	<g>
		<path class="st13" d="M134,183v34.5c0,3,2.5,5.5,5.5,5.5h58.3c3,0,5.5-2.5,5.5-5.5V183c0-3-2.5-5.5-5.5-5.5h-58.3
			C136.4,177.5,134,180,134,183z"/>
		<path class="st13" d="M201.2,223.6H136c-3,0-2.6,2.2-5,6.2l-2.2,5.5c0,3,2.5,3.8,5.5,3.8h68.6c3,0,5.5-0.7,5.5-3.8l-2-5.8
			C204.7,226.3,204.2,223.6,201.2,223.6z"/>
		<rect x="138" y="181.7" class="st14" width="60.5" height="37.1"/>
		<rect x="161" y="225.1" class="st15" width="14.9" height="1.4"/>
		<polygon class="st16" points="140.6,231.2 135.5,231.2 136.5,228.6 141.1,228.6 		"/>
		<polygon class="st16" points="147.7,231.2 142.6,231.2 143.1,228.6 147.7,228.6 		"/>
		<rect x="149.7" y="228.6" class="st16" width="4.6" height="2.5"/>
		<rect x="156.3" y="228.6" class="st16" width="4.6" height="2.5"/>
		<rect x="162.9" y="228.6" class="st16" width="4.6" height="2.5"/>
		<rect x="170.2" y="228.6" class="st16" width="4.6" height="2.5"/>
		<rect x="176.8" y="228.6" class="st16" width="4.6" height="2.5"/>
		<rect x="183.8" y="228.8" class="st16" width="4.6" height="2.5"/>
		<polygon class="st16" points="195.5,231.3 190.4,231.3 190.4,228.8 195,228.8 		"/>
		<polygon class="st16" points="202.6,231.3 197,231.3 197,228.8 201.6,228.8 		"/>
		<polygon class="st16" points="140.6,235.8 135.5,235.8 136.5,233.3 141.1,233.3 		"/>
		<polygon class="st16" points="147.7,235.8 142.6,235.8 143.1,233.3 147.7,233.3 		"/>
		<rect x="149.7" y="233.3" class="st16" width="4.6" height="2.5"/>
		<rect x="156.3" y="233.3" class="st16" width="4.6" height="2.5"/>
		<rect x="162.9" y="233.3" class="st16" width="4.6" height="2.5"/>
		<rect x="170.2" y="233.3" class="st16" width="4.6" height="2.5"/>
		<rect x="176.8" y="233.3" class="st16" width="4.6" height="2.5"/>
		<rect x="183.8" y="233.4" class="st16" width="4.6" height="2.5"/>
		<polygon class="st16" points="195.5,235.9 190.4,235.9 190.4,233.4 195,233.4 		"/>
		<polygon class="st16" points="202.6,235.9 197,235.9 197,233.4 201.6,233.4 		"/>
		<rect x="167.1" y="181.7" class="st17" width="31.3" height="37.1"/>
		<polygon class="st13" points="172.8,199.1 160.9,195.3 164.7,207.2 166.2,203.2 171.1,208.2 173.8,205.6 168.8,200.6 		"/>
	</g>
	<g>
		<path class="st18" d="M375.9,407.1c0.1,0.5-0.2,1-0.6,1.1l-14.5,3.9c-0.5,0.1-1-0.2-1.1-0.6l-13.5-49.7c-0.1-0.5,0.2-1,0.6-1.1
			l14.5-3.9c0.5-0.1,1,0.2,1.1,0.6L375.9,407.1z"/>
		<path class="st19" d="M368.1,410.1l7.2-2c0.5-0.1,0.8-0.6,0.6-1.1l-13.5-49.7c-0.1-0.5-0.6-0.8-1.1-0.6l-7,1.9L368.1,410.1z"/>
		<path class="st14" d="M346.2,411.2c0,0.5-0.4,0.9-0.9,0.9h-15c-0.5,0-0.9-0.4-0.9-0.9v-51.5c0-0.5,0.4-0.9,0.9-0.9h15
			c0.5,0,0.9,0.4,0.9,0.9V411.2z"/>
		<path class="st17" d="M345.3,358.8h-7.8v53.3h7.8c0.5,0,0.9-0.4,0.9-0.9v-51.5C346.2,359.2,345.7,358.8,345.3,358.8z"/>
		<path class="st20" d="M329.4,411.2c0,0.5-0.4,0.9-0.9,0.9H318c-0.5,0-0.9-0.4-0.9-0.9v-62.3c0-0.5,0.4-0.9,0.9-0.9h10.5
			c0.5,0,0.9,0.4,0.9,0.9V411.2z"/>
		<path class="st21" d="M328.5,348h-4.8v64.1h4.8c0.5,0,0.9-0.4,0.9-0.9v-62.3C329.4,348.4,329,348,328.5,348z"/>
		<path class="st16" d="M316.8,411.2c0,0.5-0.4,0.9-0.9,0.9h-15c-0.5,0-0.9-0.4-0.9-0.9v-51.5c0-0.5,0.4-0.9,0.9-0.9h15
			c0.5,0,0.9,0.4,0.9,0.9V411.2z"/>
		<path class="st13" d="M315.9,358.8h-7.9v53.3h7.9c0.5,0,0.9-0.4,0.9-0.9v-51.5C316.8,359.2,316.4,358.8,315.9,358.8z"/>
		<polygon class="st22" points="317.8,371.6 301,371.6 300,370.8 316.8,370.8 		"/>
		<rect x="329.4" y="370.8" class="st13" width="16.8" height="7.6"/>
		<rect x="329.4" y="371.5" class="st23" width="16.8" height="0.9"/>
		<rect x="329.4" y="396.6" class="st13" width="16.8" height="3.8"/>
		<rect x="317.1" y="360" class="st15" width="12.3" height="7.6"/>
		<rect x="317.1" y="360" class="st13" width="12.3" height="1.2"/>
		<rect x="317.1" y="367.4" class="st13" width="12.3" height="1.2"/>
		<rect x="317.1" y="396.6" class="st15" width="12.3" height="3.8"/>
		<rect x="329.4" y="399.6" class="st23" width="16.8" height="0.9"/>
		
			<rect x="349.4" y="370.2" transform="matrix(0.9648 -0.2628 0.2628 0.9648 -85.2724 107.1165)" class="st15" width="16.8" height="4.3"/>
		
			<rect x="349.1" y="370.9" transform="matrix(0.9648 -0.2628 0.2628 0.9648 -85.0406 107.0247)" class="st22" width="16.8" height="0.9"/>
		
			<rect x="356.5" y="398" transform="matrix(0.9648 -0.2629 0.2629 0.9648 -91.898 109.9199)" class="st22" width="16.8" height="0.9"/>
		<rect x="317.1" y="399.9" class="st13" width="12.3" height="1.2"/>
		<rect x="317.1" y="395.8" class="st13" width="12.3" height="1.2"/>
		<rect x="300" y="399.7" class="st22" width="16.8" height="1.2"/>
		<path class="st22" d="M311.5,377.1c0,1.7-1.4,3.1-3.1,3.1c-1.7,0-3.1-1.4-3.1-3.1c0-1.7,1.4-3.1,3.1-3.1
			C310.1,374,311.5,375.4,311.5,377.1z"/>
		<path class="st22" d="M366.1,393.9c0,1.4-1.1,2.5-2.5,2.5c-1.4,0-2.5-1.1-2.5-2.5c0-1.4,1.1-2.5,2.5-2.5
			C365,391.4,366.1,392.5,366.1,393.9z"/>
	</g>
	<g>
		<path class="st16" d="M454.8,401.8V421h0.1c1.1,3.9,12,6.9,25.1,6.9c13.2,0,24-3.1,25.1-6.9h0.1v-19.1H454.8z"/>
		<path class="st13" d="M479.9,427.9c0,0,0.1,0,0.1,0c13.2,0,24-3.1,25.1-6.9h0.1v-19.1h-25.4V427.9z"/>
		<path class="st24" d="M430.4,393.7c-1.5,0.3-0.1,2.2-1,2.4c0,0,34.2,14.6,45.7,18c0,0,51.5-12.2,57.9-15.6c0,0,0.7-2.4-0.7-2.7
			c-10.6-2.1-41.5-5.8-49.1-8.5C483.2,387.3,444.3,391.2,430.4,393.7z"/>
		<path class="st16" d="M429.4,394.1c0,0,34.2,14.6,45.7,18c0,0,51.5-12.2,57.9-15.6c0,0-40.3-7.8-49.8-11.2
			C483.2,385.2,438.8,392,429.4,394.1z"/>
		<path class="st13" d="M479.9,410.9c12.9-3.1,47.9-11.7,53.2-14.4c0,0-40.3-7.8-49.8-11.2c0,0-1.2,0.2-3.4,0.5V410.9z"/>
		
			<rect x="493.7" y="387.9" transform="matrix(0.2271 -0.9739 0.9739 0.2271 -8.7126 790.8152)" class="st25" width="0.4" height="26.1"/>
		
			<rect x="493.7" y="387.2" transform="matrix(0.2312 -0.9729 0.9729 0.2312 -9.6463 788.0959)" class="st26" width="0.4" height="25.9"/>
		<path class="st24" d="M483.8,396.9c0,1-1.7,1.7-3.8,1.7c-2.1,0-3.8-0.8-3.8-1.7c0-1,1.7-1.7,3.8-1.7
			C482.1,395.2,483.8,395.9,483.8,396.9z"/>
		<path class="st26" d="M515.7,425.8c-3.6-2.2-2.7-14-2.6-14.5c0.3-5.6-4.2-6.3-4.2-6.3l0.1-0.4c0,0,4.9,0.7,4.5,6.7
			c0,0.1-1,12,2.4,14.1L515.7,425.8z"/>
		<path class="st26" d="M514.8,425.4c-3.6-2.2-2.7-14-2.6-14.5c0.3-5.6-4-6.2-4.2-6.3l0.1-0.4c0,0,4.9,0.7,4.5,6.7
			c0,0.1-1,12,2.4,14.1L514.8,425.4z"/>
		<path class="st26" d="M516.4,424.9c-3.6-2.2-2.6-13.5-2.6-14c0.3-5.6-4.9-6.5-5-6.5l0.1-0.4c0.1,0,5.6,0.9,5.3,6.9
			c0,0.1-1,11.5,2.4,13.6L516.4,424.9z"/>
		<path class="st26" d="M517.1,424.4c-3.6-2.2-2.6-13.5-2.6-14c0.3-5.6-4.8-6.4-5-6.5l0.1-0.4c0.1,0,5.6,0.9,5.3,6.9
			c0,0.1-1,11.5,2.4,13.6L517.1,424.4z"/>
		<path class="st26" d="M518.1,424.4c-3.6-2.2-2.6-13.5-2.6-14c0.3-5.6-4.9-6.5-5-6.5l0.1-0.4c0.1,0,5.6,0.9,5.3,6.9
			c0,0.1-1,11.5,2.4,13.6L518.1,424.4z"/>
		<path class="st22" d="M507.1,403.2c0.2-0.1,3.3,0,4.3,0.4c0,0,0.1,1.4-1.8,1.9c0,0-2.9-0.7-3-1.6
			C506.6,403.9,506.1,403.5,507.1,403.2z"/>
	</g>
	<g>
		<path class="st27" d="M697,194.9c0,2.4-2,4.4-4.4,4.4h-58.2c-2.4,0-4.4-2-4.4-4.4v-43.7c0-2.4,2-4.4,4.4-4.4h58.2
			c2.4,0,4.4,2,4.4,4.4V194.9z"/>
		<path class="st13" d="M692.7,146.9h-30.6v52.5h30.6c2.4,0,4.4-2,4.4-4.4v-43.7C697,148.8,695.1,146.9,692.7,146.9z"/>
		<polygon class="st28" points="638.9,155.8 634.8,163.9 643.3,163.9 647.4,155.8 		"/>
		<polygon class="st28" points="655.9,155.8 651.8,163.9 660.3,163.9 664.4,155.8 		"/>
		<polygon class="st28" points="671.8,155.8 667.7,163.9 676.2,163.9 680.3,155.8 		"/>
		<polygon class="st28" points="638.9,155.2 634.8,147.1 643.3,147.1 647.4,155.2 		"/>
		<polygon class="st28" points="655.9,155.2 651.8,147.1 660.3,147.1 664.4,155.2 		"/>
		<polygon class="st28" points="671.8,155.2 667.7,147.1 676.2,147.1 680.3,155.2 		"/>
		<polygon class="st28" points="688,155.8 684,163.9 692.5,163.9 696.5,155.8 		"/>
		<polygon class="st28" points="688,155.2 684,147.1 692.5,147.1 696.5,155.2 		"/>
		<rect x="630.3" y="163.9" class="st29" width="66.7" height="0.5"/>
		<rect x="630" y="190.7" class="st15" width="67" height="0.5"/>
		<rect x="670.6" y="190.8" class="st15" width="0.6" height="8.5"/>
		<rect x="654.3" y="190.8" class="st15" width="0.6" height="8.5"/>
		<polygon class="st30" points="656.6,169.3 672.4,178.4 656.6,187.5 		"/>
	</g>
	<g>
		<g>
			<rect x="406.4" y="136.2" class="st31" width="16.1" height="15.6"/>
			<rect x="413.6" y="136.2" class="st32" width="9" height="15.6"/>
			<rect x="428.8" y="129.3" class="st30" width="16.1" height="22.6"/>
			<rect x="436.9" y="129.3" class="st33" width="8.1" height="22.6"/>
			<rect x="451.2" y="122.3" class="st34" width="16.1" height="29.5"/>
			<rect x="458.9" y="122.3" class="st35" width="8" height="29.5"/>
			<rect x="473.6" y="115.4" class="st36" width="16.1" height="36.5"/>
			<rect x="480.8" y="115.4" class="st37" width="9" height="36.5"/>
		</g>
	</g>
</g>
</svg>
