<?xml version="1.0" encoding="utf-8"?>
<!-- Generator: Adobe Illustrator 24.0.2, SVG Export Plug-In . SVG Version: 6.00 Build 0)  -->
<svg version="1.1" id="Layer_1" xmlns="http://www.w3.org/2000/svg" xmlns:xlink="http://www.w3.org/1999/xlink" x="0px" y="0px"
	 viewBox="0 0 288.4 56.3" style="enable-background:new 0 0 288.4 56.3;" xml:space="preserve">
<style type="text/css">
	.st0{fill:#007853;}
	.st1{fill:#502C1E;}
</style>
<g>
	<g>
		<path class="st0" d="M2.5,28.7c0,0,0,1.2,0,1.8c0,8.6,6,15.8,13.9,16.8V28.7H2.5z M13.3,43L13,42.9c-5.2-2.5-7.5-8.2-7.3-10.8
			l7.6,0V43z"/>
		<path class="st0" d="M2.5,11.3v13.9h13.9V11.3H2.5z M13.3,22.1H5.7v-7.5h7.6V22.1z"/>
		<path class="st0" d="M19.9,28.7v18.6c7.9-1.1,13.9-8.3,13.9-16.8c0-0.6,0-1.8,0-1.8H19.9z M23.1,32.1l7.6,0
			c0.2,2.6-2.1,8.2-7.3,10.8L23.1,43V32.1z"/>
		<path class="st0" d="M19.9,11.3v13.9h13.9V11.3H19.9z M23.1,14.5h7.6v7.5h-7.6V14.5z"/>
	</g>
	<g>
		<path d="M47.8,12.8c-1.2-1.5-3-1.5-4.4-1.5h-3.3v11.1h3.2c1.6,0,2.9,0,4.1-0.9c0.4-0.3,1.8-1.7,1.8-4.5
			C49.2,15.3,48.7,13.8,47.8,12.8z M47.2,17c0,1.5-0.4,2.6-1.3,3.2c-0.7,0.5-1.7,0.5-2.7,0.5c0,0-0.9,0-1.2,0V13c0.3,0,1.6,0,1.6,0
			c1.2,0,2,0.1,2.7,0.9C47.1,14.8,47.2,16.4,47.2,17z"/>
		<path d="M58.6,11.3v6.7c0,0.8,0,2.8-2.7,2.8c-1,0-1.8-0.3-2.3-1c-0.2-0.3-0.4-0.7-0.4-1.8v-6.8h-1.9V18c0,1.7,0.3,2.3,0.7,2.8
			c1.1,1.6,3.1,1.8,3.9,1.8c0.9,0,2.5-0.2,3.6-1.6c0.9-1.1,0.9-2.4,0.9-3v-6.8H58.6z"/>
		<path d="M71.8,22.1c-0.4-1.1-0.5-2-0.6-3.3l0,0c-0.1-1.1-0.5-1.7-1.2-2c0.3-0.1,0.5-0.3,0.8-0.5c0.5-0.5,0.8-1.2,0.8-2
			c0-1-0.5-1.8-1.3-2.3c-0.8-0.5-2-0.5-2.6-0.5h-4v11.1h1.9c0,0,0-4.4,0-4.8c0.3,0,1.6,0,1.6,0c1.7,0,2,0.4,2.1,1.8c0,0,0,0.2,0,0.2
			c0.1,0.8,0.2,2,0.5,2.6l0,0.1h2L71.8,22.1z M65.5,13c0.3,0,2.1,0,2.1,0c0.9,0,1.9,0.2,1.9,1.5c0,0.8-0.4,1.1-0.6,1.2
			c-0.2,0.1-0.7,0.2-1.3,0.2c0,0-1.8,0-2.1,0V13z"/>
		<path d="M81.5,11.3c0,0,0,4.2,0,4.6h-4.6c0-0.4,0-4.6,0-4.6H75v11.1h1.9c0,0,0-4.4,0-4.8h4.6c0,0.4,0,4.8,0,4.8h1.9V11.3H81.5z"/>
		<path d="M92.1,11.3h-1.9l-4.7,11.1h2c0,0,1.1-2.5,1.2-2.8h4.7c0.1,0.2,1.2,2.8,1.2,2.8h2L92.1,11.3z M92.8,18h-3.4
			c0.2-0.5,1.5-3.7,1.8-4.4C91.4,14.3,92.6,17.5,92.8,18z"/>
		<path d="M107.6,11.3c0,0-2.6,7.4-2.9,8.3c-0.3-1-2.9-8.3-2.9-8.3h-3v11.1h1.8c0,0,0-6.7,0-8.5c0.6,1.8,3,8.5,3,8.5h1.7
			c0,0,2.5-6.9,3.1-8.6c0,1.8,0,8.6,0,8.6h1.9V11.3H107.6z"/>
		<path d="M41.5,47.3c-1.2,0-1.5-0.7-1.4-1.5h1c0,0.5,0,0.8,0.6,0.8c0.3,0,0.5-0.2,0.5-0.5c0-0.9-2-0.9-2-2.3c0-0.7,0.4-1.3,1.6-1.3
			c1,0,1.4,0.4,1.4,1.4h-1c0-0.4-0.1-0.7-0.5-0.7c-0.3,0-0.5,0.2-0.5,0.5c0,0.9,2,0.8,2,2.3C43.2,47.1,42.3,47.3,41.5,47.3z"/>
		<path d="M48.3,42.5v3.3c0,0.7-0.4,1.5-1.6,1.5c-1.1,0-1.6-0.6-1.6-1.5v-3.3h1v3.3c0,0.6,0.2,0.8,0.6,0.8c0.4,0,0.6-0.3,0.6-0.8
			v-3.3H48.3z"/>
		<path d="M50.4,44.8c0-1.2,0-2.4,1.6-2.4c1,0,1.4,0.6,1.4,1.6h-1c0-0.6-0.1-0.9-0.4-0.9c-0.6,0-0.6,0.5-0.6,1.7
			c0,1.2,0.1,1.7,0.6,1.7c0.5,0,0.4-0.6,0.4-1h1c0,1.3-0.5,1.7-1.4,1.7C50.4,47.3,50.4,46.1,50.4,44.8z"/>
		<path d="M55.3,44.8c0-1.2,0-2.4,1.6-2.4c1,0,1.4,0.6,1.4,1.6h-1c0-0.6-0.1-0.9-0.4-0.9c-0.6,0-0.6,0.5-0.6,1.7
			c0,1.2,0.1,1.7,0.6,1.7c0.5,0,0.4-0.6,0.5-1h1c0,1.3-0.5,1.7-1.4,1.7C55.3,47.3,55.3,46.1,55.3,44.8z"/>
		<path d="M60.2,47.2v-4.7h2.6v0.7h-1.6v1.2h1.5v0.7h-1.5v1.4h1.6v0.7H60.2z"/>
		<path d="M66.1,47.3c-1.2,0-1.5-0.7-1.4-1.5h1c0,0.5,0,0.8,0.6,0.8c0.3,0,0.5-0.2,0.5-0.5c0-0.9-2-0.9-2-2.3c0-0.7,0.4-1.3,1.6-1.3
			c1,0,1.4,0.4,1.4,1.4h-1c0-0.4-0.1-0.7-0.5-0.7c-0.3,0-0.5,0.2-0.5,0.5c0,0.9,2,0.8,2,2.3C67.7,47.1,66.8,47.3,66.1,47.3z"/>
		<path d="M71,47.3c-1.2,0-1.5-0.7-1.4-1.5h1c0,0.5,0,0.8,0.6,0.8c0.3,0,0.5-0.2,0.5-0.5c0-0.9-2-0.9-2-2.3c0-0.7,0.3-1.3,1.6-1.3
			c1,0,1.4,0.4,1.4,1.4h-1c0-0.4-0.1-0.7-0.5-0.7c-0.3,0-0.5,0.2-0.5,0.5c0,0.9,2,0.8,2,2.3C72.6,47.1,71.7,47.3,71,47.3z"/>
		<path d="M77.3,47.2v-4.7h1.6l0.7,3.2h0l0.8-3.2h1.5v4.7h-1v-3.6h0l-0.9,3.6h-0.9l-0.9-3.6h0v3.6H77.3z"/>
		<path d="M83.7,47.2l1.3-4.7h1.3l1.3,4.7h-1l-0.3-1h-1.3l-0.3,1H83.7z M85.6,43.4L85.6,43.4l-0.5,2H86L85.6,43.4z"/>
		<path d="M91.7,42.5v0.8h-1.1v3.9h-1v-3.9h-1.1v-0.8H91.7z"/>
		<path d="M96.3,42.5v0.8h-1.1v3.9h-1v-3.9h-1.1v-0.8H96.3z"/>
		<path d="M98,47.2v-4.7h2.6v0.7H99v1.2h1.5v0.7H99v1.4h1.6v0.7H98z"/>
		<path d="M103.5,47.2h-1v-4.7h1.8c0.7,0,1.1,0.4,1.1,1.2c0,0.6-0.2,1.1-0.9,1.2v0c0.2,0,0.9,0.1,0.9,0.9c0,0.3,0,1.2,0.1,1.4h-1
			c-0.1-0.3-0.1-0.6-0.1-0.9c0-0.6,0.1-1-0.7-1h-0.3V47.2z M103.5,44.5h0.4c0.4,0,0.5-0.4,0.5-0.7c0-0.5-0.2-0.6-0.5-0.6h-0.4V44.5z
			"/>
		<path d="M108.7,47.3c-1.2,0-1.4-0.7-1.4-1.5h1c0,0.5,0,0.8,0.6,0.8c0.3,0,0.5-0.2,0.5-0.5c0-0.9-2-0.9-2-2.3
			c0-0.7,0.4-1.3,1.6-1.3c1,0,1.4,0.4,1.4,1.4h-1c0-0.4-0.1-0.7-0.5-0.7c-0.3,0-0.5,0.2-0.5,0.5c0,0.9,2,0.8,2,2.3
			C110.4,47.1,109.5,47.3,108.7,47.3z"/>
		<rect x="40.1" y="39" width="70.3" height="0.5"/>
		<path class="st0" d="M46.9,32.6c0,0.2-0.1,0.6-0.5,1c-0.4,0.4-0.9,0.6-1.6,0.6c-1.9,0-2.8-1.3-2.8-4c0-1.6,0.4-4.2,2.8-4.2
			c1.8,0,2,1.2,2.1,1.6l0,0.2l0.2,0H49l0-0.2c-0.2-2.4-2.2-3.2-4-3.2c-3.6,0-4.9,3-4.9,5.8c0,1.3,0.3,5.6,4.7,5.6
			c1.8,0,3.9-0.8,4.2-3.1l0-0.2h-2L46.9,32.6z"/>
		<path class="st0" d="M55.6,24.3c-1.1,0-2.6,0.3-3.7,1.5c-0.9,1-1.4,2.5-1.4,4.4c0,3.7,1.8,5.7,5,5.7c3.3,0,5.1-2.1,5.1-5.9
			C60.6,26.4,58.8,24.3,55.6,24.3z M57.7,33.3c-0.5,0.6-1.2,0.9-2.2,0.9c-1,0-1.7-0.3-2.2-0.9c-0.6-0.7-0.9-1.8-0.9-3.2
			c0-2.7,1.1-4.1,3.2-4.1c2,0,3,1.3,3,4C58.6,30.8,58.5,32.3,57.7,33.3z"/>
		<path class="st0" d="M64.4,33.9c0-0.4,0-9.3,0-9.3h-1.9v11.1h6.8v-1.7C69.4,33.9,64.8,33.9,64.4,33.9z"/>
		<path class="st0" d="M73.5,33.9c0-0.4,0-9.3,0-9.3h-1.9v11.1h6.8v-1.7C78.5,33.9,73.9,33.9,73.5,33.9z"/>
		<path class="st0" d="M83,33.9v-3.1c0.4,0,5,0,5,0v-1.7c0,0-4.6,0-5,0v-2.9c0.4,0,5.2,0,5.2,0v-1.7h-7.1v11.1h7.2v-1.7
			C88.3,33.9,83.4,33.9,83,33.9z"/>
		<path class="st0" d="M95.6,29.5v1.6c0,0,2.1,0,2.4,0V34c-0.4,0.1-1.1,0.3-2.1,0.3c-1.2,0-2.1-0.3-2.7-1c-0.7-0.8-0.9-2.2-0.9-3.2
			c0-0.9,0.2-2.3,1.1-3.3c0.5-0.6,1.2-0.8,2.2-0.8c1.3,0,2,0.5,2.2,1.5l0,0.2h2l0-0.2c0-0.4-0.1-1.1-0.8-1.8
			c-1.1-1.1-2.4-1.2-3.3-1.2c-1.3,0-2.3,0.3-3.1,0.8c-2.2,1.5-2.4,4.3-2.4,5.1c0,1.7,0.6,3.2,1.5,4.2c0.9,0.9,2.2,1.4,4,1.4
			c1.9,0,3.3-0.5,3.9-0.7l0.1,0v-5.6H95.6z"/>
		<path class="st0" d="M105.2,33.9v-3.1c0.4,0,5,0,5,0v-1.7c0,0-4.6,0-5,0v-2.9c0.4,0,5.2,0,5.2,0v-1.7h-7.1v11.1h7.2v-1.7
			C110.5,33.9,105.6,33.9,105.2,33.9z"/>
	</g>
</g>
<g>
	<rect x="127.4" y="2.3" class="st0" width="2.2" height="26.5"/>
	<rect x="127.4" y="29.8" class="st1" width="2.2" height="26.5"/>
</g>
<g>
	<g>
		<path d="M149.5,7.7c0-1.8,0-3.6,2.4-3.6c1.5,0,2.1,0.8,2,2.3h-1.4c0-0.9-0.2-1.3-0.6-1.3c-0.8,0-0.9,0.8-0.9,2.6
			c0,1.8,0.1,2.6,0.9,2.6c0.7,0,0.6-0.9,0.7-1.4h1.4c0,1.9-0.7,2.5-2.1,2.5C149.5,11.3,149.5,9.5,149.5,7.7z"/>
		<path d="M155,11.2v-7h3.8v1.1h-2.3V7h2.2v1.1h-2.2v2h2.4v1.1H155z"/>
		<path d="M159.9,11.2v-7h2l1.9,4.8h0V4.2h1.4v7h-1.9l-1.9-5.1h0v5.1H159.9z"/>
		<path d="M170.5,4.2v1.2h-1.6v5.8h-1.5V5.4h-1.6V4.2H170.5z"/>
		<path d="M172.6,11.2h-1.5v-7h2.7c1,0,1.6,0.6,1.6,1.8c0,0.9-0.3,1.6-1.3,1.7v0c0.3,0,1.3,0.1,1.3,1.4c0,0.4,0,1.8,0.2,2h-1.4
			c-0.2-0.4-0.2-0.9-0.2-1.4c0-0.8,0.1-1.5-1-1.5h-0.4V11.2z M172.6,7.2h0.6c0.6,0,0.7-0.6,0.7-1c0-0.7-0.3-0.9-0.7-0.9h-0.6V7.2z"
			/>
		<path d="M176.6,11.2v-7h3.8v1.1H178V7h2.2v1.1H178v2h2.4v1.1H176.6z"/>
		<path d="M183.6,11.2v-7h3.6v1.1H185v1.8h2.1v1.1H185v3H183.6z"/>
		<path d="M187.8,7.7c0-1.8,0-3.6,2.4-3.6c2.4,0,2.4,1.8,2.4,3.6c0,1.8,0,3.6-2.4,3.6C187.8,11.3,187.8,9.5,187.8,7.7z M191.2,7.7
			c0-1.8-0.1-2.6-0.9-2.6c-0.8,0-0.9,0.8-0.9,2.6c0,1.8,0.1,2.6,0.9,2.6C191.1,10.3,191.2,9.5,191.2,7.7z"/>
		<path d="M195.3,11.2h-1.5v-7h2.7c1,0,1.6,0.6,1.6,1.8c0,0.9-0.3,1.6-1.3,1.7v0c0.3,0,1.3,0.1,1.3,1.4c0,0.4,0,1.8,0.2,2h-1.4
			c-0.2-0.4-0.2-0.9-0.2-1.4c0-0.8,0.1-1.5-1-1.5h-0.4V11.2z M195.3,7.2h0.6c0.6,0,0.7-0.6,0.7-1c0-0.7-0.3-0.9-0.7-0.9h-0.6V7.2z"
			/>
	</g>
	<g>
		<path class="st0" d="M149.8,18.6h3.6c3,0,3.5,0.8,3.5,4.4c0,3.6-0.6,4.4-3.5,4.4H152v6.8h-2.2V18.6z M152,25.6h1.1
			c1.5,0,1.6-0.2,1.6-2.6c0-2.4-0.2-2.6-1.6-2.6H152V25.6z"/>
		<path class="st0" d="M158.3,18.6h3.4c3.2,0,3.5,0.8,3.5,4.3c0,2.1-0.3,3-2.1,3.6v0c1.5,0.2,2,0.9,2,2.4v3.4c0,0.6,0,1.3,0.1,2h-2
			c-0.2-0.4-0.3-0.8-0.3-1.4v-3.5c0-1.5-0.3-1.9-1.7-1.9h-0.7v6.8h-2.2V18.6z M160.5,25.6h0.6c1.7,0,2-0.3,2-2.7
			c0-2.3-0.1-2.5-1.5-2.5h-1V25.6z"/>
		<path class="st0" d="M166.8,22.6c0-2.2,0.7-4.1,3.7-4.1c2.8,0,3.7,1.5,3.7,3.9v7.9c0,2.2-0.7,4.1-3.7,4.1c-2.8,0-3.7-1.5-3.7-3.9
			V22.6z M169,30.6c0,1.4,0.6,2.1,1.5,2.1c0.9,0,1.5-0.7,1.5-2.1v-8.3c0-1.5-0.5-2.3-1.5-2.3c-1,0-1.5,0.7-1.5,2.3V30.6z"/>
		<path class="st0" d="M175.8,18.6h5.9v1.8H178v4.9h3.5v1.8H178v7.1h-2.2V18.6z"/>
		<path class="st0" d="M182.7,18.6h5.9v1.8h-3.7v4.9h3.5v1.8h-3.5v5.3h3.7v1.8h-5.9V18.6z"/>
		<path class="st0" d="M189.4,29.7h2.2V31c0,1,0.4,1.7,1.3,1.7c1.2,0,1.4-0.8,1.4-1.8c0-1.3-0.1-1.8-2.3-4c-1.4-1.4-2.5-2.7-2.5-4.8
			c0-2.6,1.2-3.7,3.6-3.7c1.2,0,2,0.4,2.5,0.9c0.4,0.3,0.6,0.9,0.6,2v1.5h-2v-1.2c0-0.9-0.4-1.4-1.2-1.4c-0.9,0-1.3,0.5-1.3,1.7
			c0,1.1,0.2,1.7,2.2,3.8c2.1,2.2,2.5,3,2.5,4.9c0,2.5-1,3.9-3.5,3.9c-2,0-3.4-0.8-3.4-2.8V29.7z"/>
		<path class="st0" d="M197.5,29.7h2.2V31c0,1,0.4,1.7,1.3,1.7c1.2,0,1.4-0.8,1.4-1.8c0-1.3-0.1-1.8-2.3-4c-1.4-1.4-2.5-2.7-2.5-4.8
			c0-2.6,1.2-3.7,3.6-3.7c1.2,0,2,0.4,2.5,0.9c0.4,0.3,0.6,0.9,0.6,2v1.5h-2v-1.2c0-0.9-0.4-1.4-1.2-1.4c-0.9,0-1.3,0.5-1.3,1.7
			c0,1.1,0.2,1.7,2.2,3.8c2.1,2.2,2.5,3,2.5,4.9c0,2.5-1,3.9-3.5,3.9c-2,0-3.4-0.8-3.4-2.8V29.7z"/>
		<path class="st0" d="M205.8,18.6h2.2v15.7h-2.2V18.6z"/>
		<path class="st0" d="M209.5,22.6c0-2.2,0.7-4.1,3.7-4.1c2.8,0,3.7,1.5,3.7,3.9v7.9c0,2.2-0.7,4.1-3.7,4.1c-2.8,0-3.7-1.5-3.7-3.9
			V22.6z M211.7,30.6c0,1.4,0.6,2.1,1.5,2.1c0.9,0,1.5-0.7,1.5-2.1v-8.3c0-1.5-0.5-2.3-1.5-2.3c-1,0-1.5,0.7-1.5,2.3V30.6z"/>
		<path class="st0" d="M218.5,18.6h3l2.6,13.1h0V18.6h2v15.7H223l-2.6-13.4h0v13.4h-1.9V18.6z"/>
		<path class="st0" d="M230.7,18.6h2.5l3.2,15.7h-2.2l-0.7-4h-3.4l-0.7,4h-2.2L230.7,18.6z M230.5,28.4h2.8l-1.4-7.6h0L230.5,28.4z"
			/>
		<path class="st0" d="M237.5,18.6h2.2v13.9h3.7v1.8h-5.8V18.6z"/>
		<path class="st0" d="M250.7,18.6h2.5l3.2,15.7h-2.2l-0.7-4h-3.4l-0.7,4h-2.2L250.7,18.6z M250.4,28.4h2.8l-1.3-7.6h0L250.4,28.4z"
			/>
		<path class="st0" d="M257.5,18.6h3l2.6,13.1h0V18.6h2v15.7h-3.1l-2.6-13.4h0v13.4h-1.9V18.6z"/>
		<path class="st0" d="M266.8,18.6h3.5c3.5,0,3.8,1.2,3.8,5.7V29c0,4-0.7,5.3-4.2,5.3h-3.2V18.6z M269,32.5h1c1.6,0,1.9-0.8,1.9-3.5
			v-5.4c0-2.3-0.2-3.1-2.1-3.1H269V32.5z"/>
		<path class="st0" d="M149.8,38.7h3.6c3,0,3.5,0.8,3.5,4.4c0,3.6-0.6,4.4-3.5,4.4H152v6.8h-2.2V38.7z M152,45.7h1.1
			c1.5,0,1.6-0.2,1.6-2.6c0-2.4-0.2-2.6-1.6-2.6H152V45.7z"/>
		<path class="st0" d="M161.2,38.7h2.5l3.2,15.7h-2.2l-0.7-4h-3.4l-0.7,4h-2.2L161.2,38.7z M160.9,48.6h2.8l-1.3-7.6h0L160.9,48.6z"
			/>
		<path class="st0" d="M167.9,38.7h3.4c3.2,0,3.5,0.8,3.5,4.3c0,2.1-0.3,3-2.1,3.6v0c1.5,0.2,2,0.9,2,2.4v3.4c0,0.6,0,1.3,0.1,2h-2
			c-0.2-0.4-0.3-0.8-0.3-1.4v-3.5c0-1.5-0.3-1.9-1.7-1.9h-0.7v6.8h-2.2V38.7z M170.1,45.7h0.6c1.7,0,2-0.3,2-2.7
			c0-2.3-0.1-2.5-1.5-2.5h-1V45.7z"/>
		<path class="st0" d="M175.7,38.7h7.4v1.8h-2.6v13.9h-2.2V40.5h-2.6V38.7z"/>
		<path class="st0" d="M183.9,48.1h5.3v1.7h-5.3V48.1z"/>
		<path class="st0" d="M189.8,38.7h7.4v1.8h-2.6v13.9h-2.2V40.5h-2.6V38.7z"/>
		<path class="st0" d="M198.1,38.7h2.2v15.7h-2.2V38.7z"/>
		<path class="st0" d="M201.8,38.7h3.5l2,12h0l2-12h3.4v15.7h-2V40.3h0l-2.2,14.2h-2.2l-2.4-14.2h0v14.2h-1.9V38.7z"/>
		<path class="st0" d="M214.3,38.7h5.9v1.8h-3.7v4.9h3.5v1.8h-3.5v5.3h3.7v1.8h-5.9V38.7z"/>
		<path class="st0" d="M225.3,38.7h2.2v13.9h3.7v1.8h-5.8V38.7z"/>
		<path class="st0" d="M232.1,38.7h5.9v1.8h-3.7v4.9h3.5v1.8h-3.5v5.3h3.7v1.8h-5.9V38.7z"/>
		<path class="st0" d="M241.9,38.7h2.5l3.2,15.7h-2.2l-0.7-4h-3.4l-0.7,4h-2.2L241.9,38.7z M241.6,48.6h2.8L243,41h0L241.6,48.6z"/>
		<path class="st0" d="M248.6,38.7h3.4c3.2,0,3.5,0.8,3.5,4.3c0,2.1-0.3,3-2.1,3.6v0c1.5,0.2,2,0.9,2,2.4v3.4c0,0.6,0,1.3,0.1,2h-2
			c-0.2-0.4-0.3-0.8-0.3-1.4v-3.5c0-1.5-0.3-1.9-1.7-1.9h-0.7v6.8h-2.2V38.7z M250.8,45.7h0.6c1.7,0,2-0.3,2-2.7
			c0-2.3-0.1-2.5-1.5-2.5h-1V45.7z"/>
		<path class="st0" d="M257.1,38.7h3l2.6,13.1h0V38.7h2v15.7h-3.1L259.1,41h0v13.4h-1.9V38.7z"/>
		<path class="st0" d="M266.3,38.7h2.2v15.7h-2.2V38.7z"/>
		<path class="st0" d="M270,38.7h3l2.6,13.1h0V38.7h2v15.7h-3.1L272,41h0v13.4H270V38.7z"/>
		<path class="st0" d="M284.4,42.8V42c0-1.1-0.5-1.8-1.4-1.8c-1,0-1.5,0.9-1.5,2.6v7.9c0,1.3,0.6,2.1,1.5,2.1c0.6,0,1.1-0.1,1.4-0.2
			v-4.6H283v-1.8h3.6v7.9c-0.8,0.2-2.4,0.4-3.6,0.4c-2.8,0-3.7-1.5-3.7-3.9v-7.9c0-2.9,0.9-4.1,3.7-4.1c2.3,0,3.5,0.8,3.5,2.9v1.4
			H284.4z"/>
	</g>
</g>
</svg>
